<?xml version="1.0" encoding="utf-8" ?><svg xmlns="http://www.w3.org/2000/svg" xmlns:xlink="http://www.w3.org/1999/xlink" width="1024" height="1024" viewBox="0 0 1024 1024"><defs><linearGradient id="gradient_0" gradientUnits="userSpaceOnUse" x1="127.55693" y1="390.93204" x2="385.61472" y2="127.32547"><stop offset="0" stop-color="#9DCFF7"/><stop offset="1" stop-color="#ECF3F4"/></linearGradient></defs><path fill="url(#gradient_0)" transform="scale(2 2)" d="M323.365 86.699C332.599 58.5186 373.625 44.4398 400.517 52.8699C415.511 57.2236 430.314 67.5368 438.338 81.0717C459.457 110.479 449.804 153.79 422.129 175.571C421.868 175.776 421.516 175.992 421.23 176.172C421.148 176.685 425.615 186.01 426.139 187.263C453.283 252.216 439.684 329.574 394.059 382.768C388.914 388.766 383.087 394.473 377.797 400.474C382.106 406.895 387.793 415.221 392.597 421.255C405.993 438.083 391.801 460.682 370.915 456.52C360.948 454.534 356.001 444.76 350.676 436.923L341.695 423.914C297.322 450.213 231.758 450.058 185.199 430.309C182.962 429.361 171.882 423.861 170.925 423.914C165.992 431.596 159.54 441.379 154.251 448.488C136.795 471.954 99.7605 446.328 120.372 419.927C125.584 413.251 130.26 405.947 135.415 399.271C71.1787 344.548 55.3346 250.31 91.4909 175.125C65.2093 158.376 54.1483 121.231 67.4227 92.8439C73.0126 78.1152 88.0635 62.8246 102.592 56.93C132.036 43.3209 167.653 53.4853 186.112 79.7271C187.387 81.5395 189.733 84.7833 190.63 86.699C229.723 73.5983 263.317 69.8575 304.433 80.3811C312.049 82.3306 316.602 84.5927 323.365 86.699Z"/><defs><linearGradient id="gradient_1" gradientUnits="userSpaceOnUse" x1="87.621246" y1="69.855789" x2="140.7986" y2="131.52252"><stop offset="0" stop-color="#75DCF2"/><stop offset="1" stop-color="#5793FD"/></linearGradient></defs><path fill="url(#gradient_1)" transform="scale(2 2)" d="M102.592 56.93C132.036 43.3209 167.653 53.4853 186.112 79.7271C187.387 81.5395 189.733 84.7833 190.63 86.699C146.284 104.495 113.665 132.599 91.4909 175.125C65.2093 158.376 54.1483 121.231 67.4227 92.8439C73.0126 78.1152 88.0635 62.8246 102.592 56.93Z"/><path fill="#B6E5F8" transform="scale(2 2)" d="M102.592 56.93C102.188 58.258 101.642 58.1349 100.747 59.073C100.695 59.1282 101.464 61.1858 101.304 61.375C95.6962 68.0121 89.4005 74.507 82.394 79.7151C76.1997 84.3195 74.1904 88.355 69.0362 92.7642C68.7542 92.4726 68.598 92.268 68.3447 91.9523L68.5103 91.7549C68.1689 92.1506 67.8275 92.5129 67.4227 92.8439C73.0126 78.1152 88.0635 62.8246 102.592 56.93Z"/><defs><linearGradient id="gradient_2" gradientUnits="userSpaceOnUse" x1="422.51804" y1="69.237549" x2="370.14749" y2="133.79347"><stop offset="0" stop-color="#77E1EF"/><stop offset="1" stop-color="#5692FD"/></linearGradient></defs><path fill="url(#gradient_2)" transform="scale(2 2)" d="M323.365 86.699C332.599 58.5186 373.625 44.4398 400.517 52.8699C415.511 57.2236 430.314 67.5368 438.338 81.0717C459.457 110.479 449.804 153.79 422.129 175.571C421.868 175.776 421.516 175.992 421.23 176.172C408.245 142.869 368.48 107.678 337.57 92.7132C335.187 91.5594 325.71 87.0102 323.365 86.699Z"/><path fill="#B6E5F8" transform="scale(2 2)" d="M400.517 52.8699C415.511 57.2236 430.314 67.5368 438.338 81.0717C436.977 86.5821 413.221 69.6183 410.797 67.7546C408.182 65.7444 402.428 63.0957 401.443 59.1818C400.243 54.4151 394.404 55.5558 400.517 52.8699Z"/><path fill="#85A7F7" transform="scale(2 2)" d="M135.415 399.271C136.277 399.706 137.304 400.945 138.065 401.62C147.967 410.393 159.58 417.228 170.925 423.914C165.992 431.596 159.54 441.379 154.251 448.488C136.795 471.954 99.7605 446.328 120.372 419.927C125.584 413.251 130.26 405.947 135.415 399.271Z"/><path fill="#85A7F7" transform="scale(2 2)" d="M341.695 423.914C353.768 418.564 367.547 408.623 377.797 400.474C382.106 406.895 387.793 415.221 392.597 421.255C405.993 438.083 391.801 460.682 370.915 456.52C360.948 454.534 356.001 444.76 350.676 436.923L341.695 423.914Z"/><defs><linearGradient id="gradient_3" gradientUnits="userSpaceOnUse" x1="168.58376" y1="353.76889" x2="342.57281" y2="168.70314"><stop offset="0" stop-color="#72A7F7"/><stop offset="1" stop-color="#CDD3F3"/></linearGradient></defs><path fill="url(#gradient_3)" transform="scale(2 2)" d="M250.208 133.862C320.537 130.787 380.081 185.228 383.302 255.551C386.522 325.875 332.203 385.53 261.887 388.896C191.366 392.271 131.498 337.759 128.268 267.231C125.038 196.703 179.673 136.947 250.208 133.862Z"/><path fill="#B0D3F8" transform="scale(2 2)" d="M241.305 243.714C250.398 235.886 260.512 235.798 270.263 242.415C276.588 249.256 278.26 253.243 278.003 262.579C286.303 270.751 307.635 289.145 313.477 298.142C323.471 316.843 299.182 325.844 292.372 318.809C280.139 306.168 267.203 294.314 254.634 281.99C252.719 280.112 248.56 279.511 246.207 278C233.077 269.564 232.225 255.286 241.305 243.714Z"/><defs><linearGradient id="gradient_4" gradientUnits="userSpaceOnUse" x1="261.17596" y1="179.22672" x2="251.45969" y2="243.95746"><stop offset="0" stop-color="#F4F0EE"/><stop offset="1" stop-color="#B5C8F4"/></linearGradient></defs><path fill="url(#gradient_4)" transform="scale(2 2)" d="M241.305 243.714C241.152 241.749 241.292 238.156 241.293 236.062L241.299 202.513C241.295 191.569 240.166 180.22 254.753 178.3C270.705 176.201 270.276 194.304 270.28 204.135L270.261 229.106C270.247 233.47 269.985 238.116 270.263 242.415C260.512 235.798 250.398 235.886 241.305 243.714Z"/></svg>