<?xml version="1.0" encoding="utf-8" ?><svg xmlns="http://www.w3.org/2000/svg" xmlns:xlink="http://www.w3.org/1999/xlink" width="1024" height="1024" viewBox="0 0 1024 1024"><defs><linearGradient id="gradient_0" gradientUnits="userSpaceOnUse" x1="407.36639" y1="426.64786" x2="114.27508" y2="184.20422"><stop offset="0" stop-color="#6DA7F6"/><stop offset="1" stop-color="#C2DEF6"/></linearGradient></defs><path fill="url(#gradient_0)" transform="scale(2 2)" d="M270.06 185.424C261.728 182.946 249.63 174.254 243.466 168.093C191.605 116.258 248.912 32.053 317.081 50.056C346.278 57.7667 375.846 86.3039 391.382 112.327C399.045 123.902 404.975 135.754 409.46 148.825C414.788 162.508 421.827 175.502 427.493 189.041L454.107 253.17C465.735 281.001 473.207 308.85 470.424 339.607C469.175 353.422 459.465 365.349 450.584 375.274C402.275 430.348 334.53 461.564 261.118 458.557C228.299 457.212 195.688 449.368 166.256 434.663C142.794 422.942 146.621 436.157 133.68 447.949C121.903 459.911 90.3961 460.662 74.1114 457.422C41.5488 450.943 42.1413 422.431 42.1438 397.266L42.1517 304.087C42.1528 295.163 41.5976 284.869 43.0289 276.049C45.1716 262.846 57.781 250.75 70.8872 248.545C78.2558 247.306 110.036 247.512 117.056 248.847C141.85 253.564 138.912 280.329 156.161 283.847C161.707 284.978 168.504 284.339 173.091 280.832C201.867 258.834 240.658 249.587 276.373 256.522C304.307 261.946 330.628 280.729 350.238 301.329C344.436 270.127 342.538 245.662 350.11 213.745C351.992 205.812 354.669 198.553 356.48 190.998C348.881 187.848 342.587 184.116 335.579 179.795C313.839 191.504 294.255 194.524 270.06 185.424Z"/><path fill="#B0D3F8" transform="scale(2 2)" d="M270.06 185.424C261.728 182.946 249.63 174.254 243.466 168.093C191.605 116.258 248.912 32.053 317.081 50.056C346.278 57.7667 375.846 86.3039 391.382 112.327C389.256 111.327 369.121 81.477 360.041 75.9847C357.874 78.7524 361.122 86.7339 354.917 89.7907C354.129 90.1789 348.91 94.6957 348.086 95.5112L347.352 95.5124C336.504 108.99 339.451 106.795 325.139 117.751C321.594 120.464 318.913 124.804 315.396 127.279C309.003 131.777 295.161 137.008 289.733 142.071C283.706 147.693 277.726 150.773 269.955 153.285C266.077 154.539 256.995 165.259 254.474 168.276C253.566 169.362 253.514 171.57 252.191 172.03C250.935 171.593 250.103 171.365 249.979 172.887C252.883 177.365 268.277 183.32 270.06 185.424Z"/></svg>