<?xml version="1.0" encoding="utf-8" ?><svg xmlns="http://www.w3.org/2000/svg" xmlns:xlink="http://www.w3.org/1999/xlink" width="1024" height="1024" viewBox="0 0 1024 1024"><defs><linearGradient id="gradient_0" gradientUnits="userSpaceOnUse" x1="151.5249" y1="381.19495" x2="424.58911" y2="113.79068"><stop offset="0" stop-color="#8DB5F4"/><stop offset="1" stop-color="#D7EDF3"/></linearGradient></defs><path fill="url(#gradient_0)" transform="scale(2 2)" d="M163.558 120.262L176.963 98.3365C193.384 71.6026 196.471 72.4786 226.026 72.4873L287.329 72.4891C318.304 72.4785 321.2 73.7963 335.549 99.2575C339.621 106.483 344.426 113.718 348.408 120.932L389.142 120.922C412.378 120.924 430.558 118.761 448.533 137.304C465.14 154.435 463.73 170.339 463.723 192.141L463.711 378.65C463.644 397.034 460.873 409.218 447.447 423.03C430.41 440.556 411.675 438.378 389.536 438.374L160.13 438.381C160.075 438.38 160.019 438.379 159.964 438.377L122.353 438.387C112.323 438.386 99.5067 439.035 89.9419 436.768C70.659 432.198 54.2458 415.515 49.8617 396.213C48.1272 388.577 48.4616 381.442 48.4705 373.642L48.4853 282.816L48.4835 185.951C48.4815 176.944 47.9836 168.273 50.2329 159.495C54.8396 141.519 70.2341 126.13 88.405 121.948C98.6236 119.597 112.17 120.256 122.859 120.256L163.558 120.262Z"/><path fill="#8DB0F7" transform="scale(2 2)" d="M48.4853 282.816C50.0019 286.218 48.2788 279.063 49.1614 276.799C50.9201 277.7 50.8237 277.749 51.4499 275.428L51.7329 275.186L51.9636 275.311C55.8195 277.344 56.2052 269.517 65.175 275.341C68.9405 277.786 71.3591 278.088 75.8631 281.89C76.2935 282.253 78.3782 282.736 78.7368 283.107C81.5734 286.043 94.0307 300.725 95.9657 301.362C99.8635 306.856 100.776 297.772 103.222 310.677C104.466 317.24 111.595 320.252 112.943 326.405C113.662 329.687 127.966 346.217 130.878 348.856C135.401 352.953 139.594 355.84 145.367 357.485C160.263 361.728 155.666 368.122 164.123 377.11C165.327 378.389 171.868 387.978 173.198 385.561C173.33 386.78 183.151 398.474 185.194 400.344C190.441 405.063 193.785 411.59 201.145 417.881C202.997 419.463 216.473 434.745 216.826 435.654L216.202 435.992L216.221 436.238C218.032 437.272 221.171 437.243 222.754 437.95C218.588 438.617 210.596 438.349 205.853 438.365C199.179 438.388 164.844 437.19 159.964 438.377L122.353 438.387C112.323 438.386 99.5067 439.035 89.9419 436.768C70.659 432.198 54.2458 415.515 49.8617 396.213C48.1272 388.577 48.4616 381.442 48.4705 373.642L48.4853 282.816Z"/><defs><linearGradient id="gradient_1" gradientUnits="userSpaceOnUse" x1="192.24788" y1="350.13553" x2="318.72076" y2="207.61807"><stop offset="0" stop-color="#82D4F4"/><stop offset="1" stop-color="#EDEFF5"/></linearGradient></defs><path fill="url(#gradient_1)" transform="scale(2 2)" d="M252.433 183.506C305.165 181.666 349.407 222.915 351.258 275.646C353.11 328.377 311.871 372.629 259.14 374.492C206.393 376.356 162.125 335.101 160.273 282.353C158.42 229.606 199.685 185.347 252.433 183.506Z"/><defs><linearGradient id="gradient_2" gradientUnits="userSpaceOnUse" x1="288.22122" y1="245.93716" x2="226.92422" y2="309.46216"><stop offset="0" stop-color="#C0B4EF"/><stop offset="1" stop-color="#5E93F7"/></linearGradient></defs><path fill="url(#gradient_2)" transform="scale(2 2)" d="M210.394 293.175C204.381 272.943 212.524 251.178 230.341 239.862C248.157 228.546 271.319 230.427 287.076 244.469C302.833 258.512 307.358 281.305 298.16 300.302C288.962 319.298 268.275 329.884 247.487 326.232C229.856 323.134 215.493 310.334 210.394 293.175Z"/><path fill="#7394F7" transform="scale(2 2)" d="M210.394 293.175L210.776 293.074C211.516 293.656 211.81 294.02 212.365 294.75C217.608 301.647 235.311 316.205 242.095 320.524C244.403 321.993 246.707 323.396 247.808 325.99L247.487 326.232C229.856 323.134 215.493 310.334 210.394 293.175Z"/><path fill="white" transform="scale(2 2)" d="M384.657 142.297C390.76 142.204 397.646 141.641 402.89 145.233C415.481 153.856 411.13 171.881 395.061 174.963C388.428 175.017 380.267 176.01 374.901 171.501C363.746 162.127 368.25 143.667 384.657 142.297Z"/></svg>