<?xml version="1.0" encoding="utf-8" ?><svg xmlns="http://www.w3.org/2000/svg" xmlns:xlink="http://www.w3.org/1999/xlink" width="1024" height="1024" viewBox="0 0 1024 1024"><defs><linearGradient id="gradient_0" gradientUnits="userSpaceOnUse" x1="372.02859" y1="391.32526" x2="138.26297" y2="116.16376"><stop offset="0" stop-color="#487C97"/><stop offset="1" stop-color="#CCE4E7"/></linearGradient></defs><path fill="url(#gradient_0)" transform="scale(2 2)" d="M140.605 396.065C139.171 395.267 133.198 389.608 131.718 388.234C35.7016 297.463 60.9754 139.313 185.883 87.2599C275.931 49.7339 387.078 91.6467 423.66 182.694C442.562 221.044 442.217 274.524 428.732 314.162C424.522 326.538 409.369 358.81 397.537 364.548C383.698 371.259 368.524 356.442 374.018 342.148C375.645 337.913 378.813 334.103 381.189 330.259C403.62 293.971 406.675 255.023 396.337 214.688C372.61 137.493 293.3 90.516 214.31 114.885C107.849 147.73 77.3569 274.285 149.507 355.19C152.642 358.701 157.858 362.723 160.352 365.606C168.165 371.623 173.504 376.464 182.281 381.659C222.078 405.214 269.446 407.44 311.983 390.854C317.789 388.591 326.64 383.347 332.22 382.571C350.076 380.085 364.747 407.235 333.939 420.946C270.89 451.228 195.592 441.156 141.417 396.764C141.095 396.5 140.906 396.351 140.605 396.065Z"/></svg>