<?xml version="1.0" encoding="utf-8" ?><svg xmlns="http://www.w3.org/2000/svg" xmlns:xlink="http://www.w3.org/1999/xlink" width="1024" height="1024" viewBox="0 0 1024 1024"><path fill="#B6E5F8" transform="scale(2 2)" d="M215.399 72.5609C214.951 63.4233 215.747 55.5931 222.86 49.0114C232.38 40.2016 261.419 43.4619 275.507 43.2965C291.74 43.1059 297.121 58.7206 296.292 72.5609C316.659 70.8233 327.342 81.8416 327.537 101.956C327.628 103.308 327.626 103.964 327.537 105.317L351.528 105.31C369.65 105.316 380.41 105.003 394.715 118.853C409.139 132.817 406.494 153.433 406.482 171.641L406.486 413.091C406.449 428.644 403.934 437.584 392.782 449.445C379.184 463.909 362.972 462.321 345.056 462.284L151.62 462.285C118.265 462.139 104.547 439.131 104.542 409.378L104.572 153.746C104.621 139.48 107.855 128.473 118.227 117.792C133.64 101.919 154.3 105.728 174.165 105.347C176.436 105.304 182.579 106.636 183.284 105.317L183.242 101.851C183.115 78.6109 194.713 72.4501 215.399 72.5609Z"/><defs><linearGradient id="gradient_0" gradientUnits="userSpaceOnUse" x1="255.46371" y1="152.02992" x2="254.86942" y2="43.145645"><stop offset="0" stop-color="#529BEE"/><stop offset="1" stop-color="#D0D0EC"/></linearGradient></defs><path fill="url(#gradient_0)" transform="scale(2 2)" d="M215.399 72.5609C214.951 63.4233 215.747 55.5931 222.86 49.0114C232.38 40.2016 261.419 43.4619 275.507 43.2965C291.74 43.1059 297.121 58.7206 296.292 72.5609C316.659 70.8233 327.342 81.8416 327.537 101.956C327.29 115.427 330.678 136.763 320.846 146.135C313.614 153.028 306.637 151.953 297.29 151.958L207.175 151.928C180.945 152.684 181.983 124.345 183.284 105.317L183.242 101.851C183.115 78.6109 194.713 72.4501 215.399 72.5609Z"/><defs><linearGradient id="gradient_1" gradientUnits="userSpaceOnUse" x1="253.20221" y1="263.56982" x2="258.67188" y2="305.95453"><stop offset="0" stop-color="#A0E3F1"/><stop offset="1" stop-color="#88C0F4"/></linearGradient></defs><path fill="url(#gradient_1)" transform="scale(2 2)" d="M201.611 270.063L302.082 270.047C305.557 270.043 312.187 269.686 315.316 270.337C331.265 273.656 331.718 298.938 310.687 299.564C303.583 299.863 294.054 299.572 286.807 299.568L211.683 299.567C204.222 299.572 196.453 300.995 190.362 296.025C179.345 287.037 186.845 271.142 201.611 270.063Z"/><defs><linearGradient id="gradient_2" gradientUnits="userSpaceOnUse" x1="253.78737" y1="340.27527" x2="258.09644" y2="380.14938"><stop offset="0" stop-color="#95DBEE"/><stop offset="1" stop-color="#75B8F3"/></linearGradient></defs><path fill="url(#gradient_2)" transform="scale(2 2)" d="M199.318 345.931C202.047 345.67 204.398 345.839 207.121 345.859L291.797 345.93C299.15 345.929 306.365 345.875 313.718 346.154C329.85 346.764 335.567 372.551 312.099 374.836L207.483 374.889C199.927 374.86 194.898 376.128 188.745 370.7C178.665 361.808 187.34 345.799 199.318 345.931Z"/></svg>