<?xml version="1.0" encoding="utf-8" ?><svg xmlns="http://www.w3.org/2000/svg" xmlns:xlink="http://www.w3.org/1999/xlink" width="1024" height="1024" viewBox="0 0 1024 1024"><defs><linearGradient id="gradient_0" gradientUnits="userSpaceOnUse" x1="126.61494" y1="324.0282" x2="335.08069" y2="116.89751"><stop offset="0" stop-color="#69A1CD"/><stop offset="1" stop-color="#CBEDF5"/></linearGradient></defs><path fill="url(#gradient_0)" transform="scale(2 2)" d="M53.2939 259.174C35.39 190.845 82.8488 114.684 153.936 103.683C165.424 101.905 173.564 102.231 185.158 102.236L254.453 102.233C302.259 102.236 337.677 111.051 369.351 151.652C371.779 154.765 374.908 158.309 376.87 161.732C377.308 160.74 377.025 160.488 376.96 159.44C379.045 157.288 389.78 160.739 392.543 161.624C487.983 192.177 483.676 325.76 389.98 360.113C376.542 365.04 384.973 381.322 381.741 396.291C379.79 405.329 368.158 412.076 359.694 407.459C353.095 403.858 337.276 389.336 330.431 383.844C317.034 373.095 309.614 364.918 290.973 362.951C277.074 361.485 285.544 362.866 275.252 357.983L234.881 357.989C219.371 357.991 213.079 355.72 199.9 364.033C197.235 365.714 178.018 382.001 177.78 382.076C172.165 388.509 159.226 397.895 152.211 403.741C140.403 413.404 124.82 408.007 124.612 393.036C124.55 388.597 124.577 384.183 124.577 379.757L124.59 345.843C92.0087 328.227 68.8218 307.84 56.4965 270.934C55.4679 267.854 53.67 262.278 53.2939 259.174Z"/><defs><linearGradient id="gradient_1" gradientUnits="userSpaceOnUse" x1="311.07736" y1="381.98636" x2="442.55365" y2="191.1312"><stop offset="0" stop-color="#CDE1ED"/><stop offset="1" stop-color="#F5F6F5"/></linearGradient></defs><path fill="url(#gradient_1)" transform="scale(2 2)" d="M376.87 161.732C377.308 160.74 377.025 160.488 376.96 159.44C379.045 157.288 389.78 160.739 392.543 161.624C487.983 192.177 483.676 325.76 389.98 360.113C376.542 365.04 384.973 381.322 381.741 396.291C379.79 405.329 368.158 412.076 359.694 407.459C353.095 403.858 337.276 389.336 330.431 383.844C317.034 373.095 309.614 364.918 290.973 362.951C277.074 361.485 285.544 362.866 275.252 357.983C278.39 357.333 283.506 357.277 287.003 356.763C371.503 344.35 420.412 246.632 381.797 170.863C380.328 167.979 378.222 164.817 376.951 161.924L376.87 161.732Z"/><path fill="#659BCA" transform="scale(2 2)" d="M53.2939 259.174C53.9774 257.439 49.7059 240.453 50.8811 238.135C51.1229 240.413 53.9873 247.899 55.5141 249.599L55.4609 250.072C56.9594 252.398 58.8299 251.118 58.9518 253.373C59.089 255.91 65.0167 258.891 62.3951 259.3L62.261 259.566C62.9481 260.356 63.0206 260.333 64.1304 260.163C67.392 262.584 70.1688 265.249 73.7053 267.487C76.8674 269.488 81.2309 270.94 84.2787 272.8C88.1602 275.169 91.5244 279.99 95.4982 282.494C98.1418 284.535 112.795 294.902 115.047 295.955C117.56 297.13 121.244 301.393 123.596 303.108C125.053 304.381 133.134 310.693 134.16 311.328L134.629 311.229C136.043 307.275 151.675 323.535 153.647 325.259C156.822 328.033 156.933 328.507 159.056 331.79C162.025 336.38 167.777 337.774 171.256 342.282C175.925 348.33 181.55 354.03 185.415 360.601C185.739 361.141 187.968 371.582 187.908 371.925L187.618 371.976L187.34 371.717C185.536 376.163 177.526 380.319 177.78 382.076C172.165 388.509 159.226 397.895 152.211 403.741C140.403 413.404 124.82 408.007 124.612 393.036C124.55 388.597 124.577 384.183 124.577 379.757L124.59 345.843C92.0087 328.227 68.8218 307.84 56.4965 270.934C55.4679 267.854 53.67 262.278 53.2939 259.174Z"/><defs><linearGradient id="gradient_2" gradientUnits="userSpaceOnUse" x1="157.32903" y1="256.29471" x2="156.44177" y2="213.21516"><stop offset="0" stop-color="#D8E6EE"/><stop offset="1" stop-color="white"/></linearGradient></defs><path fill="url(#gradient_2)" transform="scale(2 2)" d="M153.587 212.55C165.851 210.671 177.318 219.087 179.204 231.351C181.09 243.614 172.682 255.086 160.419 256.98C148.146 258.874 136.662 250.457 134.775 238.183C132.887 225.909 141.311 214.43 153.587 212.55Z"/><defs><linearGradient id="gradient_3" gradientUnits="userSpaceOnUse" x1="227.73596" y1="256.3667" x2="223.75133" y2="213.20372"><stop offset="0" stop-color="#D2E4EF"/><stop offset="1" stop-color="#FFFFFD"/></linearGradient></defs><path fill="url(#gradient_3)" transform="scale(2 2)" d="M224.804 212.317C237.174 211.708 247.704 221.223 248.347 233.59C248.989 245.958 239.503 256.514 227.137 257.19C214.724 257.868 204.119 248.338 203.474 235.923C202.828 223.508 212.388 212.929 224.804 212.317Z"/><defs><linearGradient id="gradient_4" gradientUnits="userSpaceOnUse" x1="294.47345" y1="256.30539" x2="296.91391" y2="213.42397"><stop offset="0" stop-color="#CEE2EF"/><stop offset="1" stop-color="#FFFCF7"/></linearGradient></defs><path fill="url(#gradient_4)" transform="scale(2 2)" d="M292.484 212.854C304.647 211.036 315.986 219.408 317.831 231.567C319.675 243.726 311.329 255.083 299.174 256.955C286.981 258.832 275.58 250.454 273.729 238.257C271.879 226.059 280.283 214.677 292.484 212.854Z"/></svg>