<?xml version="1.0" encoding="utf-8" ?><svg xmlns="http://www.w3.org/2000/svg" xmlns:xlink="http://www.w3.org/1999/xlink" width="1024" height="1024" viewBox="0 0 1024 1024"><defs><linearGradient id="gradient_0" gradientUnits="userSpaceOnUse" x1="446.23312" y1="263.11298" x2="66.334541" y2="242.86713"><stop offset="0" stop-color="#A4C4F5"/><stop offset="1" stop-color="#D5F0F2"/></linearGradient></defs><path fill="url(#gradient_0)" transform="scale(2 2)" d="M147.015 68.0278L344.001 68.0281C354.059 68.027 368.275 67.4991 377.793 69.4902C413.571 76.9749 439.768 107.142 441.26 143.941C441.49 149.595 441.322 156.021 441.317 161.722L441.318 342.915C441.325 353.034 442.124 365.943 440.316 375.692C433.276 413.64 404.127 436.552 366.062 437.989L165.507 437.995C155.301 438.002 142.874 438.618 133 436.682C99.468 430.105 72.6079 399.321 71.4569 364.993C71.2518 358.873 71.2342 352.921 71.2382 346.785L71.2392 169.503C71.2392 141.515 69.1542 118.401 89.4623 95.644C105.685 77.4652 122.995 69.4829 147.015 68.0278Z"/><path fill="#7C9EF7" transform="scale(2 2)" d="M253.54 220.028C272.062 218.828 288.032 232.907 289.164 251.433C290.296 269.958 276.158 285.877 257.629 286.941C239.196 287.999 223.378 273.951 222.251 255.521C221.125 237.092 235.115 221.222 253.54 220.028Z"/><defs><linearGradient id="gradient_1" gradientUnits="userSpaceOnUse" x1="193.53085" y1="364.01999" x2="145.42027" y2="319.08536"><stop offset="0" stop-color="#A3AAEC"/><stop offset="1" stop-color="#B5D3EE"/></linearGradient></defs><path fill="url(#gradient_1)" transform="scale(2 2)" d="M168.417 308.373C186.832 307.746 202.266 322.175 202.877 340.591C203.488 359.007 189.046 374.427 170.629 375.022C152.235 375.617 136.838 361.196 136.228 342.803C135.617 324.41 150.024 309 168.417 308.373Z"/><defs><linearGradient id="gradient_2" gradientUnits="userSpaceOnUse" x1="363.10104" y1="367.11523" x2="323.76038" y2="314.36932"><stop offset="0" stop-color="#5D87F2"/><stop offset="1" stop-color="#74C6F7"/></linearGradient></defs><path fill="url(#gradient_2)" transform="scale(2 2)" d="M338.494 307.975C356.644 305.147 373.633 317.619 376.371 335.784C379.11 353.948 366.553 370.875 348.375 373.523C330.325 376.153 313.542 363.703 310.823 345.666C308.104 327.628 320.47 310.784 338.494 307.975Z"/><defs><linearGradient id="gradient_3" gradientUnits="userSpaceOnUse" x1="366.98016" y1="188.9516" x2="319.23593" y2="145.28876"><stop offset="0" stop-color="#6085F3"/><stop offset="1" stop-color="#70C3F4"/></linearGradient></defs><path fill="url(#gradient_3)" transform="scale(2 2)" d="M339.453 134.688C357.462 132.59 373.752 145.512 375.808 163.525C377.863 181.539 364.903 197.799 346.885 199.812C328.926 201.819 312.732 188.911 310.683 170.957C308.634 153.003 321.504 136.779 339.453 134.688Z"/><defs><linearGradient id="gradient_4" gradientUnits="userSpaceOnUse" x1="192.23715" y1="190.03558" x2="147.27888" y2="144.23544"><stop offset="0" stop-color="#A2A9ED"/><stop offset="1" stop-color="#BDD5EF"/></linearGradient></defs><path fill="url(#gradient_4)" transform="scale(2 2)" d="M168.212 134.885C186.085 133.918 201.37 147.6 202.381 165.471C203.392 183.343 189.747 198.661 171.879 199.716C153.947 200.774 138.564 187.072 137.55 169.138C136.535 151.205 150.275 135.855 168.212 134.885Z"/></svg>