<?xml version="1.0" encoding="utf-8" ?><svg xmlns="http://www.w3.org/2000/svg" xmlns:xlink="http://www.w3.org/1999/xlink" width="1024" height="1024" viewBox="0 0 1024 1024"><defs><linearGradient id="gradient_0" gradientUnits="userSpaceOnUse" x1="395.20724" y1="379.16379" x2="142.12061" y2="162.86554"><stop offset="0" stop-color="#4987FC"/><stop offset="1" stop-color="#B4D2F7"/></linearGradient></defs><path fill="url(#gradient_0)" transform="scale(2 2)" d="M185.488 230.828C183.953 223.835 183.538 215.16 183.567 208.011C183.81 149.845 218.015 92.194 267.844 62.4929C282.949 54.0023 306.633 39.2357 306.404 69.2995C307.6 96.3751 321.305 138.032 345.014 153.951C404.905 194.162 432.744 264.649 414.282 334.658C402.932 376.222 374.005 412.57 336.498 433.227C333.372 434.948 324.895 439.63 321.665 440.638C236.103 478.762 134.981 435.15 101.964 347.625C79.8946 289.119 91.6107 220.534 133.111 172.941C140.127 166.895 145.628 173.225 147.745 179.965C154.19 200.489 168.315 218.015 185.488 230.828Z"/><path fill="#7394F7" transform="scale(2 2)" d="M321.665 440.638C320.82 440.194 321.066 440.517 320.784 439.734L321.042 439.264L321.241 439.575L321.858 439.619C322.886 438.615 329.046 433.493 330.297 434.501C331.233 435.255 335.14 431.047 336.077 430.716C340.364 429.204 337.31 430.415 340.902 428.086C341.493 427.703 342.86 428.016 343.283 427.704C345.739 425.891 346.905 424.233 349.818 422.928L350.443 423.345L350.84 423.113C350.943 422.478 355.045 416.504 356.334 416.207C358.914 417.007 358.023 415.175 359.993 414.212C367.142 410.717 364.009 403.812 371.027 402.797L371.503 402.731C371.758 401.561 372.302 401.5 372.901 402.397L373.146 402.769C374.367 402.379 382.3 394.551 383.58 392.966C392.15 382.365 399.292 370.708 405.051 358.359C408.843 350.225 410.78 342.51 413.891 334.529L414.282 334.658C402.932 376.222 374.005 412.57 336.498 433.227C333.372 434.948 324.895 439.63 321.665 440.638Z"/><defs><linearGradient id="gradient_1" gradientUnits="userSpaceOnUse" x1="202.10484" y1="252.22025" x2="308.61005" y2="378.90295"><stop offset="0" stop-color="#B8F2F1"/><stop offset="1" stop-color="#8CAFFA"/></linearGradient></defs><path fill="url(#gradient_1)" transform="scale(2 2)" d="M260.481 204.821C271.853 204.307 278.824 216.025 285.195 224.237C305.703 250.671 324.105 286.046 325.766 320.008C328.066 364.71 306.48 396.256 261.309 400.375C256.194 400.841 250.724 400.3 245.498 400.512C242.941 399.264 236.435 398.285 233.286 397.335C185.737 383.214 172.17 332.797 197.895 291.864C204.217 281.803 213.025 274.467 222.259 285.846C245.783 271.777 251.33 253.801 251.491 226.56C251.543 217.788 248.558 207.171 260.481 204.821Z"/></svg>