<?xml version="1.0" encoding="utf-8" ?><svg xmlns="http://www.w3.org/2000/svg" xmlns:xlink="http://www.w3.org/1999/xlink" width="1024" height="1024" viewBox="0 0 1024 1024"><path fill="#A9DAEE" transform="scale(2 2)" d="M339.709 383.599C293.343 384.876 249.933 360.9 226.322 320.976C202.712 281.051 202.617 231.461 226.074 191.446C249.532 151.431 292.849 127.289 339.22 128.389C393.673 129.679 441.308 165.381 457.829 217.283C474.35 269.186 456.116 325.853 412.428 358.383C391.36 374.07 365.966 382.876 339.709 383.599Z"/><defs><linearGradient id="gradient_0" gradientUnits="userSpaceOnUse" x1="347.379" y1="377.7121" x2="249.47226" y2="154.43877"><stop offset="0" stop-color="#6EC4E8"/><stop offset="1" stop-color="#E1F0F6"/></linearGradient></defs><path fill="url(#gradient_0)" transform="scale(2 2)" d="M339.709 383.599C293.343 384.876 249.933 360.9 226.322 320.976C202.712 281.051 202.617 231.461 226.074 191.446C249.532 151.431 292.849 127.289 339.22 128.389C337.699 128.332 336.827 128.292 335.313 128.056L335.415 165.657C335.445 174.42 335.323 182.279 335.544 191.144C337.628 192.133 349.959 191.095 356.423 194.319C355.451 194.433 350.3 192.754 348.804 192.57C344.073 191.991 339.35 192.56 335.313 192.122L335.311 308.655C335.31 310.622 336.195 318.301 334.327 319.072C337.438 319.313 344.945 318.224 348.427 317.885C347.204 319.232 337.424 318.89 335.313 319.072C335.013 321.482 335.33 329.905 335.318 332.925C335.255 349.872 335.322 366.873 335.313 383.827C336.742 383.742 338.287 383.615 339.709 383.599Z"/><path fill="#EBF2FA" transform="scale(2 2)" d="M334.327 319.072C325.131 317.311 318.776 316.966 309.972 312.762C258.993 288.42 260.038 216.201 313.72 195.566C317.89 193.963 331.237 190.209 335.313 192.122L335.311 308.655C335.31 310.622 336.195 318.301 334.327 319.072Z"/><defs><linearGradient id="gradient_1" gradientUnits="userSpaceOnUse" x1="335.20233" y1="254.98679" x2="399.77933" y2="255.29195"><stop offset="0" stop-color="#D2E5EF"/><stop offset="1" stop-color="white"/></linearGradient></defs><path fill="url(#gradient_1)" transform="scale(2 2)" d="M335.313 192.122C339.35 192.56 344.073 191.991 348.804 192.57C350.3 192.754 355.451 194.433 356.423 194.319C370.291 197.585 383.49 208.947 391.014 220.942C412.838 255.737 395.132 304.652 355.711 316.135C353.308 316.846 350.828 317.244 348.427 317.885C344.945 318.224 337.438 319.313 334.327 319.072C336.195 318.301 335.31 310.622 335.311 308.655L335.313 192.122Z"/><path fill="#52B1D3" transform="scale(2 2)" d="M335.313 383.827C335.322 366.873 335.255 349.872 335.318 332.925C335.33 329.905 335.013 321.482 335.313 319.072C336.726 325.898 335.297 353.655 335.417 362.25C335.486 367.228 335.188 379.318 339.556 383.193L339.538 383.119C358.377 384.02 385.864 374.641 401.965 364.887C403.52 363.945 411.747 357.974 412.428 358.383C391.36 374.07 365.966 382.876 339.709 383.599C338.287 383.615 336.742 383.742 335.313 383.827Z"/><defs><linearGradient id="gradient_2" gradientUnits="userSpaceOnUse" x1="93.99659" y1="396.61426" x2="116.23457" y2="106.83091"><stop offset="0" stop-color="#13548F"/><stop offset="1" stop-color="#B4CFDD"/></linearGradient></defs><path fill="url(#gradient_2)" transform="scale(2 2)" d="M144.01 108.877C149.338 87.6605 175.836 90.2749 175.798 116.196L175.805 168.324C175.805 173.598 176.271 203.264 175.085 206.283C173.223 227.75 154.988 245.489 135.459 252.53L135.457 347.625C135.456 363.266 135.13 379.857 135.459 395.377C126.419 426.962 90.6552 419.037 87.7543 395.377C88.0435 391.571 87.7711 384.431 87.7628 380.318L87.7543 252.53C64.5924 244.783 49.5919 216.119 49.2513 192.801L49.2722 117.249C49.2845 113.789 49.6528 110.245 49.2513 106.842C56.0537 89.3952 76.2223 91.5558 80.4287 108.877C80.63 126.675 80.4352 144.883 80.4343 162.71L80.4099 176.653C80.3911 180.933 79.5607 186.388 82.6639 189.574C89.0004 196.08 96.1616 190.332 96.1975 180.943L96.189 128.588C96.187 123.032 95.9832 116.031 96.1937 110.584C97.7521 95.1631 115.332 89.4011 124.482 100.66C128.837 106.02 128.308 112.606 128.256 119.137C128.41 124.12 128.255 130.001 128.253 135.043L128.246 166.475C128.246 172.581 128.097 178.804 128.435 184.892C128.858 191.488 136.685 194.117 141.513 190.086C144.955 187.213 144.038 179.662 144.025 175.496L144.001 158.925C143.999 142.391 144.223 125.368 144.01 108.877Z"/><path fill="#0E4683" transform="scale(2 2)" d="M87.7543 395.377L88.2789 395.012C90.9877 397.782 92.8499 395.149 96.2521 395.28C104.518 395.6 127.468 396.413 135.459 395.377C126.419 426.962 90.6552 419.037 87.7543 395.377Z"/><path fill="#A9DAEE" transform="scale(2 2)" d="M144.01 108.877C149.338 87.6605 175.836 90.2749 175.798 116.196C175.089 114.837 175.163 117.78 175.165 118.147C172.78 112.914 155.002 113.599 149.92 113.051C148.799 112.931 146.934 114.521 145.269 114.054C143.612 112.186 145.539 110.525 144.01 108.877Z"/><path fill="#A9DAEE" transform="scale(2 2)" d="M96.1937 110.584C97.7521 95.1631 115.332 89.4011 124.482 100.66C128.837 106.02 128.308 112.606 128.256 119.137C127.958 117.925 128.055 116.624 127.713 115.443C123.953 113.184 108.854 112.182 104.293 112.373C99.2185 112.586 97.881 115.418 96.5892 110.75L96.1937 110.584Z"/><path fill="#A9DAEE" transform="scale(2 2)" d="M49.2513 106.842C56.0537 89.3952 76.2223 91.5558 80.4287 108.877C79.8947 109.432 79.8621 109.685 79.7126 110.444C79.4588 107.006 78.6973 109.39 77.9035 109.21C76.9532 107.869 53.1105 110.06 50.6901 109.435C50.0934 108.918 50.0165 107.777 49.855 106.929L49.2513 106.842Z"/></svg>