<?xml version="1.0" encoding="utf-8" ?><svg xmlns="http://www.w3.org/2000/svg" xmlns:xlink="http://www.w3.org/1999/xlink" width="1024" height="1024" viewBox="0 0 1024 1024"><defs><linearGradient id="gradient_0" gradientUnits="userSpaceOnUse" x1="152.69679" y1="430.64267" x2="404.48639" y2="26.918247"><stop offset="0" stop-color="#4F8FF8"/><stop offset="1" stop-color="#A1E5FB"/></linearGradient></defs><path fill="url(#gradient_0)" transform="scale(2 2)" d="M451.15 61.6112C469.27 61.2191 479.918 73.3298 479.927 90.4796L479.954 190.497C479.954 194.307 480.303 200.813 479.529 204.376C476.098 220.174 457.041 228.898 442.952 220.612C438.041 217.723 435.274 214.749 431.316 210.726L423.269 202.618C420.071 205.721 417.103 208.944 413.976 212.104L311.719 314.891C307.44 319.169 303.206 323.765 298.86 327.879C282.776 343.104 259.389 346.458 240.529 334.114C234.513 330.177 230.864 325.957 225.928 321.026L210.191 305.21C201.317 296.281 191.291 286.933 182.668 277.972C180.713 279.505 176.985 283.515 175.045 285.454L110.245 350.159C95.052 365.131 86.3831 376.12 63.1706 372.687C44.4319 369.502 31.0484 350.553 32.4699 332.029C33.7983 314.719 43.9938 307.605 55.0377 296.567L126.865 224.93C134.731 216.97 144.675 205.899 153.207 198.875C169.484 185.477 193.99 183.565 211.558 195.72C216.429 199.09 221.141 204.207 225.338 208.383L248.049 231.418C252.749 236.221 261.21 244.005 265.298 248.858C270.225 243.404 275.128 238.514 280.25 233.25L359.101 153.262C350.481 144.143 336.611 133.932 335.602 121.323C333.504 100.144 352.329 95.4055 367.54 90.1762L418.959 71.756C427.364 68.7197 442.631 62.1783 451.15 61.6112Z"/><defs><linearGradient id="gradient_1" gradientUnits="userSpaceOnUse" x1="162.60312" y1="521.9328" x2="459.26581" y2="263.48813"><stop offset="0" stop-color="#C1D2EB"/><stop offset="1" stop-color="#E3F5F6"/></linearGradient></defs><path fill="url(#gradient_1)" transform="scale(2 2)" d="M438.66 248.858C456.516 247.474 455.288 264.204 455.266 276.383L455.281 423.775C455.57 452.284 443.818 447.103 421.004 447.101L121.475 447.115C108.817 447.119 88.5044 450.485 88.448 431.736C88.4257 424.326 92.8067 420.758 97.5858 415.979L104.875 408.611C113.738 399.981 122.745 390.641 131.511 381.847L165.077 348.523C167.793 345.812 170.387 343.219 173.23 340.636C184.977 329.961 196.534 344.574 204.186 352.142L250.87 398.837C257.547 405.614 268.045 416.552 278.158 406.344L414.412 267.652C421.867 259.95 427.835 250.861 438.66 248.858Z"/></svg>