<?xml version="1.0" encoding="utf-8" ?><svg xmlns="http://www.w3.org/2000/svg" xmlns:xlink="http://www.w3.org/1999/xlink" width="1024" height="1024" viewBox="0 0 1024 1024"><defs><linearGradient id="gradient_0" gradientUnits="userSpaceOnUse" x1="318.2735" y1="366.88666" x2="199.0975" y2="136.31195"><stop offset="0" stop-color="#C0E2F3"/><stop offset="1" stop-color="#FFFDF9"/></linearGradient></defs><path fill="url(#gradient_0)" transform="scale(2 2)" d="M211.408 70.328C222.365 67.0329 233.096 66.0154 244.374 65.1048C304.844 60.2225 363.864 88.6967 400.443 136.592C404.94 142.484 408.924 149.066 412.998 155.289C428.76 155.97 444.255 151.517 456.467 164.774C467.123 176.341 469.058 192.953 460.644 206.558C457.192 212.139 449.511 218.885 444.639 223.747L413.474 254.659C409.965 258.15 404.917 262.676 401.763 266.083C402.26 269.486 400.142 281.556 400.243 281.712L400.986 281.983C428.993 284.437 434.417 312.533 422.912 334.078C421.236 339.681 416.337 348.391 413.353 353.496C386.42 399.576 330.933 439.324 276.687 442.841C275.104 443.441 268.623 443.699 266.533 443.829C200.233 447.924 130.786 411.525 98.2278 352.748C82.5026 352.776 67.7823 355.18 55.8055 342.509C44.9794 331.055 44.0034 314.563 52.236 301.367C54.4971 297.743 60.4088 292.573 63.6878 289.363L79.851 273.439C95.1261 258.463 108.519 237.728 131.587 238.796C133.206 236.952 130.75 237.426 129.517 236.49C127.604 235.039 125.94 233.266 124.278 231.552C126.001 228.54 129.773 225.697 129.915 223.336C121.906 227.642 107.87 229.241 99.9566 224.158C99.1883 224.093 96.6168 222.482 95.9245 221.991C82.0456 212.089 81.3224 200.635 86.4422 185.745C101.513 141.914 133.566 106.509 174.191 84.5393C183.685 79.3939 201.3 72.114 211.408 70.328Z"/><defs><linearGradient id="gradient_1" gradientUnits="userSpaceOnUse" x1="346.7569" y1="301.08121" x2="201.02599" y2="78.916374"><stop offset="0" stop-color="#6899F1"/><stop offset="1" stop-color="#A1CAF5"/></linearGradient></defs><path fill="url(#gradient_1)" transform="scale(2 2)" d="M211.408 70.328C222.365 67.0329 233.096 66.0154 244.374 65.1048C304.844 60.2225 363.864 88.6967 400.443 136.592C404.94 142.484 408.924 149.066 412.998 155.289C428.76 155.97 444.255 151.517 456.467 164.774C467.123 176.341 469.058 192.953 460.644 206.558C457.192 212.139 449.511 218.885 444.639 223.747L413.474 254.659C409.965 258.15 404.917 262.676 401.763 266.083C400.324 266.539 398.551 267.545 397.084 268.148C374.076 277.586 357.609 264.171 343.205 249.051L313.305 218.277C309.566 214.472 303.904 209.353 301.46 204.803C290.429 184.261 302.989 157.81 326.821 155.635C330.459 155.304 334.271 155.399 337.899 155.289C334.218 153.169 328.215 147.808 324.219 145.002C310.305 135.232 297.699 129.103 281.294 125.208C257.883 119.734 218.131 122.174 197.74 136.884C171.284 147.41 145.817 182.379 137.217 208.546C134.99 215.324 135.798 218.845 129.915 223.336C121.906 227.642 107.87 229.241 99.9566 224.158C99.1883 224.093 96.6168 222.482 95.9245 221.991C82.0456 212.089 81.3224 200.635 86.4422 185.745C101.513 141.914 133.566 106.509 174.191 84.5393C183.685 79.3939 201.3 72.114 211.408 70.328Z"/><path fill="#B0D3F8" transform="scale(2 2)" d="M211.408 70.328C215.488 71.1564 220.605 69.4007 223.854 69.6743C222.742 72.0909 218.226 71.3233 218.678 73.432C223.919 78.7868 217.059 77.1611 215.638 79.6786C214.496 81.7023 214.445 84.5646 211.364 85.2016C205.668 86.3713 188.851 95.8282 183.93 100.025C176.396 106.452 167.791 111.562 161.297 119.138C159.665 121.041 149.722 132.11 149.039 132.643C132.487 145.569 124.871 159.197 117.835 178.391C115.366 183.946 111.549 188.461 109.429 194.193C108.179 197.57 99.4563 217.444 96.5602 219.195C91.4047 222.31 99.2738 220.935 99.9566 224.158C99.1883 224.093 96.6168 222.482 95.9245 221.991C82.0456 212.089 81.3224 200.635 86.4422 185.745C101.513 141.914 133.566 106.509 174.191 84.5393C183.685 79.3939 201.3 72.114 211.408 70.328Z"/><defs><linearGradient id="gradient_2" gradientUnits="userSpaceOnUse" x1="308.40173" y1="422.00308" x2="165.23984" y2="207.96594"><stop offset="0" stop-color="#7BA0F5"/><stop offset="1" stop-color="#CFDBF3"/></linearGradient></defs><path fill="url(#gradient_2)" transform="scale(2 2)" d="M98.2278 352.748C82.5026 352.776 67.7823 355.18 55.8055 342.509C44.9794 331.055 44.0034 314.563 52.236 301.367C54.4971 297.743 60.4088 292.573 63.6878 289.363L79.851 273.439C95.1261 258.463 108.519 237.728 131.587 238.796C145.584 240.829 149.217 245.593 158.822 255.038L197.447 293.057C200.414 296.001 204.226 299.41 206.684 302.752C223.915 326.186 204.585 353.517 176.065 352.748C239.659 413.502 341.229 382.267 372.923 304.599C378.242 291.564 383.609 280.933 400.986 281.983C428.993 284.437 434.417 312.533 422.912 334.078C421.236 339.681 416.337 348.391 413.353 353.496C386.42 399.576 330.933 439.324 276.687 442.841C275.104 443.441 268.623 443.699 266.533 443.829C200.233 447.924 130.786 411.525 98.2278 352.748Z"/><path fill="#7394F7" transform="scale(2 2)" d="M276.687 442.841C277.334 441.983 279.131 441.459 280.187 441.036L279.681 440.097C282.475 436.824 296.555 427.225 301.173 424.358C312.193 417.517 321.532 409.163 331.608 401.177C336.231 397.512 357.64 387.35 361.021 383.718C361.973 382.551 363.545 381.507 364.828 380.599C377.502 371.621 409.44 337.723 420.64 337.829C421.101 337.506 421.934 335.17 422.447 334.211L422.912 334.078C421.236 339.681 416.337 348.391 413.353 353.496C386.42 399.576 330.933 439.324 276.687 442.841Z"/><path fill="white" transform="scale(2 2)" d="M197.74 136.884C218.131 122.174 257.883 119.734 281.294 125.208C276.688 126.821 275.595 124.564 272.113 124.567C258.251 124.581 244.472 124.34 230.699 126.237C229.107 126.458 226.306 128.74 224.362 128.639C220.543 129.473 217.466 127.972 214.408 129.664L215.152 129.83C215.238 132.705 200.349 136.346 197.74 136.884Z"/></svg>