<?xml version="1.0" encoding="utf-8" ?><svg xmlns="http://www.w3.org/2000/svg" xmlns:xlink="http://www.w3.org/1999/xlink" width="1024" height="1024" viewBox="0 0 1024 1024"><defs><linearGradient id="gradient_0" gradientUnits="userSpaceOnUse" x1="374.65649" y1="408.65237" x2="110.88919" y2="118.89909"><stop offset="0" stop-color="#799FF2"/><stop offset="1" stop-color="#B7D9F7"/></linearGradient></defs><path fill="url(#gradient_0)" transform="scale(2 2)" d="M359.416 105.877C364.626 94.6082 370.997 90.4891 379.552 81.5534L400.925 59.4259C407.535 52.6752 417.861 38.9399 428.437 49.6804C432.961 54.2746 432.133 60.0764 432.111 66.0451L432.087 80.2405C435.825 79.6876 440.767 79.8093 444.552 80.2405C448.637 80.2505 451.834 80.1946 455.962 80.9687C463.354 82.3548 468.158 92.6123 463.935 98.8881C461.323 102.77 446.009 117.901 441.29 121.539C435.672 130.043 416.66 147.537 405.237 151.487C406.373 153.394 407.639 155.36 408.84 157.241C451.65 224.278 448.364 315.938 401.216 380.172C336.403 468.471 213.416 487.685 125.535 420.685C40.8247 356.102 22.0466 236.34 83.5787 149.423C140.486 69.5223 250.432 40.6299 336.66 89.9949C344.489 94.477 352.138 100.52 359.416 105.877Z"/><defs><linearGradient id="gradient_1" gradientUnits="userSpaceOnUse" x1="332.86694" y1="355.97943" x2="153.69263" y2="172.76198"><stop offset="0" stop-color="#C5D2F1"/><stop offset="1" stop-color="#FDFBFA"/></linearGradient></defs><path fill="url(#gradient_1)" transform="scale(2 2)" d="M344.571 185.114C384.806 233.442 381.062 302.628 339.893 349.435C262.849 437.031 122.393 386.961 115.552 272.075C109.854 176.377 205.317 109.967 293.751 146.047C305.03 150.648 317.939 157.739 326.916 165.805C324.69 168.386 321.795 171.148 319.348 173.619L290.615 202.187C287.972 204.818 285.376 207.687 282.63 210.171C287.689 215.229 296.367 223.934 300.797 229.424C314.67 214.498 330.054 199.465 344.571 185.114Z"/><defs><linearGradient id="gradient_2" gradientUnits="userSpaceOnUse" x1="301.07468" y1="301.66003" x2="187.04767" y2="229.38594"><stop offset="0" stop-color="#6A8DEE"/><stop offset="1" stop-color="#A3C1F4"/></linearGradient></defs><path fill="url(#gradient_2)" transform="scale(2 2)" d="M300.797 229.424C330.554 264.913 301.605 327.326 252.919 333.316C192.341 340.768 154.817 271.933 190.88 223.555C211.909 195.345 254.553 188.033 282.63 210.171L282.63 210.171C287.689 215.229 296.367 223.934 300.797 229.424L300.797 229.424Z"/><defs><linearGradient id="gradient_3" gradientUnits="userSpaceOnUse" x1="274.44537" y1="258.00693" x2="252.58331" y2="238.53477"><stop offset="0" stop-color="#67C2F3"/><stop offset="1" stop-color="#A7EBF2"/></linearGradient></defs><path fill="url(#gradient_3)" transform="scale(2 2)" d="M282.63 210.171L282.63 210.171C287.689 215.229 296.367 223.934 300.797 229.424L300.797 229.424C299.693 230.431 297.739 232.726 296.646 233.898L286.617 244.654C277.472 254.377 263.916 269.8 254.045 278.391C245.051 286.232 230.695 280.159 231.057 267.84C231.286 260.064 237.676 254.932 242.781 249.831L271.421 220.99C274.7 217.666 279.108 212.962 282.63 210.171Z"/><defs><linearGradient id="gradient_4" gradientUnits="userSpaceOnUse" x1="343.73083" y1="121.58025" x2="398.00589" y2="168.46901"><stop offset="0" stop-color="#C4F8F4"/><stop offset="1" stop-color="#71BFF8"/></linearGradient></defs><path fill="url(#gradient_4)" transform="scale(2 2)" d="M359.416 105.877C364.626 94.6082 370.997 90.4891 379.552 81.5534L400.925 59.4259C407.535 52.6752 417.861 38.9399 428.437 49.6804C432.961 54.2746 432.133 60.0764 432.111 66.0451L432.087 80.2405C435.825 79.6876 440.767 79.8093 444.552 80.2405C448.637 80.2505 451.834 80.1946 455.962 80.9687C463.354 82.3548 468.158 92.6123 463.935 98.8881C461.323 102.77 446.009 117.901 441.29 121.539C435.672 130.043 416.66 147.537 405.237 151.487C395.392 154.346 388.596 153.703 379.312 149.783C377.739 152.074 375.191 154.439 373.183 156.422C370.168 159.398 345.302 183.605 344.571 185.114C330.054 199.465 314.67 214.498 300.797 229.424C296.367 223.934 287.689 215.229 282.63 210.171C285.376 207.687 287.972 204.818 290.615 202.187L319.348 173.619C321.795 171.148 324.69 168.386 326.916 165.805C331.586 160.779 336.16 156.551 341.005 151.755L361.425 131.441C357.9 122.569 356.627 115.365 359.416 105.877Z"/><path fill="#8DB0F7" transform="scale(2 2)" d="M444.552 80.2405C448.637 80.2505 451.834 80.1946 455.962 80.9687C463.354 82.3548 468.158 92.6123 463.935 98.8881C461.323 102.77 446.009 117.901 441.29 121.539L440.682 121.45C438.995 122.973 430.748 132.051 429.739 131.987C429.051 129.456 451.122 88.4826 448.375 81.0577C446.095 80.4964 438.929 80.6403 444.552 80.2405Z"/></svg>