<?xml version="1.0" encoding="utf-8" ?><svg xmlns="http://www.w3.org/2000/svg" xmlns:xlink="http://www.w3.org/1999/xlink" width="1024" height="1024" viewBox="0 0 1024 1024"><defs><linearGradient id="gradient_0" gradientUnits="userSpaceOnUse" x1="364.03513" y1="340.80725" x2="100.55775" y2="134.32422"><stop offset="0" stop-color="#BBD4DF"/><stop offset="1" stop-color="#FFFFFC"/></linearGradient></defs><path fill="url(#gradient_0)" transform="scale(2 2)" d="M372.441 341.535C372.36 341.541 372.279 341.548 372.198 341.554L122.619 341.544C110.138 341.545 96.7866 341.84 84.3635 340.816C66.8598 339.373 52.7036 322.988 49.2306 306.544C46.5637 293.535 48.83 262.368 48.578 248.015C48.2308 228.242 45.6607 201.724 59.8684 186.915C70.2742 176.068 81.0003 169.96 96.3902 170.08L411.481 169.656C422.494 169.619 437.293 170.524 445.82 178.775C464.283 191.484 463.893 210.208 463.899 229.732L463.896 287.409C463.889 301.279 464.572 311.551 456.11 323.622C442.928 342.427 426.69 341.564 406.488 341.542L372.441 341.535Z"/><path fill="#AECFE2" transform="scale(2 2)" d="M436.697 227.059C442.691 227.557 439.427 226.407 441.228 222.942C443.763 218.066 446.221 213.202 448.366 208.138C450.622 202.813 448.972 198.045 452.079 201.528C453.042 200.546 453.358 196.08 453.757 194.349L454.357 194.665C458.519 186.972 446.331 181.467 445.82 178.775C464.283 191.484 463.893 210.208 463.899 229.732L463.896 287.409C463.889 301.279 464.572 311.551 456.11 323.622C442.928 342.427 426.69 341.564 406.488 341.542L372.441 341.535C370.718 340.62 327.894 342.74 321.242 341.253C326.038 339.459 349.694 344.211 353.978 337.09L353.045 336.741C353.111 335.765 355.468 335.135 356.163 333.159C358.342 326.968 363.049 322.188 367.871 317.613C371.462 314.206 369.865 311.788 377.589 308.359C379.548 307.535 380.208 310.509 379.905 306.553C381.089 305.415 387.929 302.699 390.148 300.922C395.346 296.761 397.518 293.295 403.697 288.74C406.061 286.906 405.668 282.905 409.859 284.43L410.128 284.53L410.27 284.272C405.131 280.515 406.364 273.981 406.36 268.3L406.359 252.525C406.36 245.772 403.346 226.598 413.828 226.886C420.277 227.062 430.599 226.001 436.697 227.059Z"/><defs><linearGradient id="gradient_1" gradientUnits="userSpaceOnUse" x1="427.98264" y1="285.5795" x2="419.81244" y2="226.3109"><stop offset="0" stop-color="#144E90"/><stop offset="1" stop-color="#3283C0"/></linearGradient></defs><path fill="url(#gradient_1)" transform="scale(2 2)" d="M410.27 284.272C405.131 280.515 406.364 273.981 406.36 268.3L406.359 252.525C406.36 245.772 403.346 226.598 413.828 226.886C420.277 227.062 430.599 226.001 436.697 227.059C445.031 232.104 441.674 242.427 432.082 241.572C428.505 241.253 425.061 241.168 421.479 241.194C421.543 243.922 421.562 246.29 421.479 249.026C426.086 249.028 436.414 247.585 439.568 251.108C443.876 255.919 439.986 263.1 433.741 263.197C429.528 263.41 425.597 263.331 421.479 263.308L421.479 271.037C424.293 271.023 435.361 270.701 436.966 271.644C445.66 276.755 441.11 286.08 431.049 285.421C424.318 284.981 416.667 286.426 410.27 284.272Z"/><defs><linearGradient id="gradient_2" gradientUnits="userSpaceOnUse" x1="309.45877" y1="285.05597" x2="300.43259" y2="238.08684"><stop offset="0" stop-color="#14549B"/><stop offset="1" stop-color="#438FCB"/></linearGradient></defs><path fill="url(#gradient_2)" transform="scale(2 2)" d="M274.845 247.83C280.081 225.299 309.941 217.989 326.675 236.561C337.785 247.806 336.175 266.93 325.104 277.538C302.077 299.604 265.911 275.52 274.845 247.83Z"/><path fill="#EBF2FA" transform="scale(2 2)" d="M289.092 249.896C291.048 245.198 295.109 241.701 300.045 240.464C304.982 239.227 310.212 240.396 314.152 243.617C320.571 248.864 321.957 258.126 317.356 265.023C312.755 271.919 303.67 274.195 296.361 270.284C289.052 266.372 285.906 257.55 289.092 249.896Z"/><path fill="#4089C6" transform="scale(2 2)" d="M274.845 247.83C280.081 225.299 309.941 217.989 326.675 236.561L326.332 236.724C325.304 235.787 324.287 234.858 323.239 233.944L322.811 234.001C320.482 237.215 314.407 241.948 314.152 243.617C310.212 240.396 304.982 239.227 300.045 240.464C295.109 241.701 291.048 245.198 289.092 249.896L288.555 249.687C286.886 246.471 277.615 248.163 276.145 249.113C275.077 249.803 275.192 248.557 274.845 247.83Z"/><defs><linearGradient id="gradient_3" gradientUnits="userSpaceOnUse" x1="133.35982" y1="267.92136" x2="66.292976" y2="233.32446"><stop offset="0" stop-color="#79B5E4"/><stop offset="1" stop-color="#ABD9F5"/></linearGradient></defs><path fill="url(#gradient_3)" transform="scale(2 2)" d="M104.005 226.76C113.552 226.37 116.783 248.079 119.228 256.017C120.772 249.181 123.361 238.61 125.575 231.86C128.35 223.398 141.387 225.846 140.402 234.832C138.703 242.79 136.339 252.096 133.666 259.79C130.955 267.591 130.166 285.573 119.701 285.145C108.849 284.701 108.955 257.951 104.266 251.192L104.005 251.588C99.8182 260.773 98.6846 271.204 94.2969 280.332C90.2394 288.493 81.5499 286.292 78.9275 277.338C75.3087 264.983 71.1716 252.782 67.3784 240.482C65.1844 233.367 67.5717 223.993 76.2663 227.181C82.8077 229.579 85.2603 248.983 88.221 256.017C90.8506 246.165 92.9727 227.503 104.005 226.76Z"/><defs><linearGradient id="gradient_4" gradientUnits="userSpaceOnUse" x1="374.86203" y1="288.50031" x2="364.20419" y2="231.17401"><stop offset="0" stop-color="#125096"/><stop offset="1" stop-color="#3987C2"/></linearGradient></defs><path fill="url(#gradient_4)" transform="scale(2 2)" d="M340.069 271.037L340.055 245.995C340.056 241.109 338.461 230.62 343.292 227.609C349.672 223.633 353.796 227.996 357.114 232.896C361.103 238.409 365.297 244.09 368.986 249.782C372.384 244.148 378.721 234.289 383.213 229.38C387.729 224.444 395.884 225.621 397.5 232.346C397.954 238.667 397.772 245.206 397.772 251.557L397.764 268.666C397.759 273.245 398.687 280.425 395.442 283.73C391.047 288.206 383.001 286.031 382.319 279.435C382.004 272.305 382.076 264.573 382.176 257.425C378.379 261.85 372.46 275.889 365.467 269.842C361.969 266.817 359.174 261.009 355.776 257.425C355.672 264.319 356.274 272.808 355.415 279.564C354.684 285.306 339.539 293.384 340.069 271.037Z"/><path fill="#4089C6" transform="scale(2 2)" d="M340.069 271.037L340.055 245.995C340.056 241.109 338.461 230.62 343.292 227.609C349.672 223.633 353.796 227.996 357.114 232.896C352.827 238.245 346.631 238.234 341.154 241.535C338.231 243.297 341.271 266.152 340.069 271.037Z"/><defs><linearGradient id="gradient_5" gradientUnits="userSpaceOnUse" x1="179.46484" y1="271.30533" x2="147.84091" y2="232.15782"><stop offset="0" stop-color="#3481C6"/><stop offset="1" stop-color="#6FB4E5"/></linearGradient></defs><path fill="url(#gradient_5)" transform="scale(2 2)" d="M160.936 285.422C147.014 286.067 148.693 276.753 148.695 266.574L148.735 248.612C148.744 241.736 145.659 227.084 156.495 227.138C163.889 227.176 171.546 226.745 178.89 227.245C186.481 227.761 186.94 239.6 179.787 240.745C174.769 241.548 168.256 241.211 163.02 241.194C162.902 243.858 162.968 246.364 163.02 249.026C169.167 249.029 183.374 246.924 183.571 255.146C185.526 265.484 168.871 262.756 163.02 262.749C163.118 265.953 163.155 268.538 163.02 271.735C164.315 271.722 165.618 271.733 166.913 271.735C171.391 271.699 179.788 270.68 183.18 273.621C186.79 276.75 184.55 284.444 179.859 285.076C173.873 285.883 167.089 285.42 160.936 285.422Z"/><path fill="#427AA1" transform="scale(2 2)" d="M166.913 271.735C171.391 271.699 179.788 270.68 183.18 273.621C186.79 276.75 184.55 284.444 179.859 285.076C173.873 285.883 167.089 285.42 160.936 285.422C164.043 284.587 172.806 274.569 173.444 272.425C172.654 271.872 168.621 272.295 166.913 271.735Z"/><defs><linearGradient id="gradient_6" gradientUnits="userSpaceOnUse" x1="266.30576" y1="281.57666" x2="237.51375" y2="234.43069"><stop offset="0" stop-color="#1759A4"/><stop offset="1" stop-color="#4F97D2"/></linearGradient></defs><path fill="url(#gradient_6)" transform="scale(2 2)" d="M223.111 247.83C225.924 233.664 242.42 223.661 256.402 226.76C268.87 224.886 279.712 242.075 264.534 243.698C258.595 241.113 252.603 237.863 246.096 240.743C232.457 246.778 233.056 264.746 246.558 271.171C257.343 276.304 266.222 261.854 271.578 272.635C278.042 285.648 232.066 296.371 223.432 264.936C222.35 260.996 220.897 251.371 223.111 247.83Z"/><path fill="#4089C6" transform="scale(2 2)" d="M223.111 247.83C225.924 233.664 242.42 223.661 256.402 226.76C255.061 226.951 251.116 226.146 250.543 226.773C239.282 239.088 244.858 240.957 226.88 241.976L226.337 242.689L226.079 242.487L226.082 241.873C224.61 242.639 224.473 246.548 223.111 247.83Z"/><defs><linearGradient id="gradient_7" gradientUnits="userSpaceOnUse" x1="216.73192" y1="274.0441" x2="183.0464" y2="239.75705"><stop offset="0" stop-color="#2768B3"/><stop offset="1" stop-color="#5CA6DE"/></linearGradient></defs><path fill="url(#gradient_7)" transform="scale(2 2)" d="M209.905 285.422C195.292 285.566 191.974 288.514 191.974 271.731L191.98 242.135C191.983 238.884 191.923 235.815 192.221 232.612C192.987 224.351 205.308 224.665 206.612 232.164C207.228 235.706 206.963 241.825 206.966 245.472L206.961 271.735C210.817 271.722 214.544 271.856 218.421 271.735C228.54 277.163 223.809 286.007 209.905 285.422Z"/><path fill="#427AA1" transform="scale(2 2)" d="M218.421 271.735C228.54 277.163 223.809 286.007 209.905 285.422C209.087 285.131 205.749 284.954 204.613 284.847C206.081 281.99 214.548 276.698 218.421 271.735Z"/></svg>