<?xml version="1.0" encoding="utf-8" ?><svg xmlns="http://www.w3.org/2000/svg" xmlns:xlink="http://www.w3.org/1999/xlink" width="1024" height="1024" viewBox="0 0 1024 1024"><defs><linearGradient id="gradient_0" gradientUnits="userSpaceOnUse" x1="355.57761" y1="470.10629" x2="161.63239" y2="151.84732"><stop offset="0" stop-color="#A5C2F2"/><stop offset="1" stop-color="#F6FAF1"/></linearGradient></defs><path fill="url(#gradient_0)" transform="scale(2 2)" d="M330.749 90.4002C333.735 60.1261 373.198 64.7928 373.668 90.4002C374.006 94.3246 373.13 119.564 374.036 121.182L374.157 121.258C394.752 121.646 410.948 117.442 426.842 133.927C440.196 148.015 438.734 160.279 438.727 177.932L438.72 204.776C438.719 204.818 438.717 204.86 438.716 204.902C438.408 208.774 438.703 215.642 438.708 219.867L438.727 380.775C438.728 386.99 438.778 393.127 438.586 399.346C437.999 418.416 423.404 435.106 404.247 437.174C399.217 437.717 393.969 437.527 388.907 437.526L133.498 437.528C126.581 437.53 119.59 437.713 112.641 437.359C93.7413 436.398 77.0636 422.374 74.1061 403.479C73.3926 398.92 73.6957 394.461 73.7232 389.893L73.731 218.361C73.7193 214.143 73.4792 209.013 73.7368 204.902C73.6108 203.61 73.7003 200.592 73.7038 199.163L73.7322 187.54C73.7794 166.609 69.7071 150.768 85.7805 134.131C100.038 119.373 115.383 121.23 134.062 121.258C135.366 121.26 136.942 121.302 138.223 121.258L138.21 101.85C138.202 98.8575 138.312 95.2891 138.188 92.4102C137.081 66.5709 171.796 60.461 180.068 84.8922C181.729 90.3049 180.657 114.303 180.78 121.258L330.749 121.258C330.036 114.755 330.384 97.0822 330.749 90.4002Z"/><defs><linearGradient id="gradient_1" gradientUnits="userSpaceOnUse" x1="248.64929" y1="108.31371" x2="259.92365" y2="222.11703"><stop offset="0" stop-color="#73D4F1"/><stop offset="1" stop-color="#71A6F8"/></linearGradient></defs><path fill="url(#gradient_1)" transform="scale(2 2)" d="M330.749 90.4002C333.735 60.1261 373.198 64.7928 373.668 90.4002C374.006 94.3246 373.13 119.564 374.036 121.182L374.157 121.258C394.752 121.646 410.948 117.442 426.842 133.927C440.196 148.015 438.734 160.279 438.727 177.932L438.72 204.776C438.719 204.818 438.717 204.86 438.716 204.902L73.7368 204.902C73.6108 203.61 73.7003 200.592 73.7038 199.163L73.7322 187.54C73.7794 166.609 69.7071 150.768 85.7805 134.131C100.038 119.373 115.383 121.23 134.062 121.258C135.366 121.26 136.942 121.302 138.223 121.258L138.21 101.85C138.202 98.8575 138.312 95.2891 138.188 92.4102C137.081 66.5709 171.796 60.461 180.068 84.8922C181.729 90.3049 180.657 114.303 180.78 121.258L330.749 121.258C330.036 114.755 330.384 97.0822 330.749 90.4002Z"/><defs><linearGradient id="gradient_2" gradientUnits="userSpaceOnUse" x1="349.07474" y1="168.13153" x2="353.8139" y2="101.11836"><stop offset="0" stop-color="#B6F7F2"/><stop offset="1" stop-color="#77CCF5"/></linearGradient></defs><path fill="url(#gradient_2)" transform="scale(2 2)" d="M330.749 90.4002C333.735 60.1261 373.198 64.7928 373.668 90.4002C374.006 94.3246 373.13 119.564 374.036 121.182L374.157 121.258L373.963 121.348C373.309 122.353 373.823 143.243 373.563 146.728C372.022 167.405 349.817 176.427 336.16 161.593C328.83 153.631 330.917 143.804 330.748 133.94C330.687 130.358 330.473 124.468 330.749 121.258C330.036 114.755 330.384 97.0822 330.749 90.4002Z"/><path fill="#96B9F7" transform="scale(2 2)" d="M330.749 90.4002C333.735 60.1261 373.198 64.7928 373.668 90.4002C373.085 96.0009 372.868 97.5235 373.668 103.121C370.681 103.215 367.114 102.374 363.946 102.203C354.525 101.695 341.951 99.6358 332.902 99.8756L331.34 101.817C331.377 98.7275 331.112 93.4592 330.749 90.4002Z"/><path fill="#B0D3F8" transform="scale(2 2)" d="M138.223 121.258L138.21 101.85C138.202 98.8575 138.312 95.2891 138.188 92.4102C137.081 66.5709 171.796 60.461 180.068 84.8922C181.729 90.3049 180.657 114.303 180.78 121.258C180.906 122.168 180.944 131.374 180.78 132.208C179.714 134.436 181.161 139.715 180.651 142.308C180.197 140.977 178.379 139.799 176.938 140.164C174.076 142.464 173.854 139.465 170.388 141.941C162.19 141.212 154.812 141.657 146.447 139.617C143.556 138.912 141.61 135.882 138.223 136.915C138.178 133.255 138.929 126.87 138.223 123.693C138.09 122.901 138.184 122.075 138.223 121.258C137.245 121.315 134.831 121.584 134.062 121.258C135.366 121.26 136.942 121.302 138.223 121.258Z"/><path fill="#B6E5F8" transform="scale(2 2)" d="M138.223 123.693C138.929 126.87 138.178 133.255 138.223 136.915C141.61 135.882 143.556 138.912 146.447 139.617C154.812 141.657 162.19 141.212 170.388 141.941C173.854 139.465 174.076 142.464 176.938 140.164C178.379 139.799 180.197 140.977 180.651 142.308C181.161 139.715 179.714 134.436 180.78 132.208C180.708 142.669 182.852 153.244 174.622 161.424C161.93 174.579 138.376 166.082 138.129 147.51C138.025 139.724 138.116 131.528 138.223 123.693Z"/><defs><linearGradient id="gradient_3" gradientUnits="userSpaceOnUse" x1="280.44986" y1="389.68958" x2="232.88847" y2="252.84529"><stop offset="0" stop-color="#A0B4F3"/><stop offset="1" stop-color="#C4EBF2"/></linearGradient></defs><path fill="url(#gradient_3)" transform="scale(2 2)" d="M297.034 299.501C293.674 271.598 320.615 258.137 337.147 274.178C343.783 280.617 344.422 288.255 344.453 297.028L344.445 332.065C344.485 353.309 345.403 375.031 317.486 374.994C302.122 374.301 297.052 361.692 297.028 348.183L297.034 337.687L216.182 337.687C215.747 347.497 217.596 356.423 210.992 364.924C203.443 374.965 187.848 377.89 177.835 369.829C168.414 362.246 169.654 353.382 169.674 342.567L169.687 299.292C169.7 283.918 172.343 269.996 190.746 268.103C211.252 266.089 216.243 283.259 216.182 299.501L297.034 299.501Z"/></svg>