<?xml version="1.0" encoding="utf-8" ?><svg xmlns="http://www.w3.org/2000/svg" xmlns:xlink="http://www.w3.org/1999/xlink" width="1024" height="1024" viewBox="0 0 1024 1024"><defs><linearGradient id="gradient_0" gradientUnits="userSpaceOnUse" x1="280.3829" y1="442.93777" x2="218.3013" y2="145.53445"><stop offset="0" stop-color="#8ABACF"/><stop offset="1" stop-color="#FDFFF9"/></linearGradient></defs><path fill="url(#gradient_0)" transform="scale(2 2)" d="M134.904 242.048C128.548 248.278 119.125 258.963 110.774 261.264C86.9261 267.834 71.5109 238.928 90.4454 221.65L222.209 100.378C227.658 95.2744 233.522 89.1129 239.42 84.7855C248.578 78.0663 263.608 77.8555 272.606 84.9903C286.948 96.3624 302.557 112.63 316.108 125.348L413.277 215.488C422.054 223.473 431.25 228.953 430.47 242.371C429.797 253.967 419.327 263.105 407.814 262.277C395.753 261.546 391.618 253.072 383.034 246.551L382.679 246.936C384.929 250.784 384.249 282.552 384.249 289.102L384.25 394.548C384.235 399.761 384.226 414.721 379.46 418.318C370.492 433.326 349.982 430.754 334.805 430.756L289.23 430.751C288.96 419.295 289.225 406.776 289.23 395.245C289.023 392.582 289.211 386.612 289.215 383.804L289.242 360.111C289.249 346.094 289.572 334.91 272.285 334.958C262.53 334.985 242.159 333.719 233.149 335.633C222.565 337.881 223.245 347.823 223.26 355.925L223.28 430.751L178.578 430.755C170.117 430.755 156.476 431.484 148.564 429.598C125.769 424.165 129.303 396.167 129.302 378.718L129.295 280.805C129.3 271.412 129.286 262.157 129.689 252.768C129.894 247.98 134.883 243.823 134.904 242.048Z"/><defs><linearGradient id="gradient_1" gradientUnits="userSpaceOnUse" x1="341.75961" y1="331.92758" x2="169.94273" y2="147.9684"><stop offset="0" stop-color="#4694C5"/><stop offset="1" stop-color="#86C6E1"/></linearGradient></defs><path fill="url(#gradient_1)" transform="scale(2 2)" d="M134.904 242.048C128.548 248.278 119.125 258.963 110.774 261.264C86.9261 267.834 71.5109 238.928 90.4454 221.65L222.209 100.378C227.658 95.2744 233.522 89.1129 239.42 84.7855C248.578 78.0663 263.608 77.8555 272.606 84.9903C286.948 96.3624 302.557 112.63 316.108 125.348L413.277 215.488C422.054 223.473 431.25 228.953 430.47 242.371C429.797 253.967 419.327 263.105 407.814 262.277C395.753 261.546 391.618 253.072 383.034 246.551C381.606 244.279 368.511 233.377 365.799 230.867L279.731 152.48C262.629 137.105 255.285 130.616 236.767 148.013C208.064 174.981 178.283 200.767 149.629 227.784C145.405 231.772 138.285 237.728 134.904 242.048Z"/><path fill="#83AFC5" transform="scale(2 2)" d="M289.23 395.245C289.63 401.092 289.721 426.526 290.786 428.105C294.515 427.815 295.349 429.925 298.645 429.701C311.758 428.808 321.846 431.823 334.795 428.032C335.815 424.413 340.966 426.982 343.176 424.263C346.393 420.304 362.388 418.493 367.567 420.799C370.815 422.245 369.289 418.793 373.584 423.576C376.287 422.004 377.419 419.097 379.46 418.318C370.492 433.326 349.982 430.754 334.805 430.756L289.23 430.751C288.96 419.295 289.225 406.776 289.23 395.245Z"/></svg>