<?xml version="1.0" encoding="utf-8" ?><svg xmlns="http://www.w3.org/2000/svg" xmlns:xlink="http://www.w3.org/1999/xlink" width="1024" height="1024" viewBox="0 0 1024 1024"><path fill="#64ADF6" transform="scale(2 2)" d="M206.939 319.312L126.561 319.317C118.302 319.322 105.001 320.143 97.5969 317.602C80.0051 311.567 70.7533 291.166 77.2713 273.796C79.6124 267.557 83.2506 261.93 86.495 256.193L197.583 57.8772C212.005 33.3291 218.092 31.0441 245.564 31.0942L301.336 31.101C321.119 31.0957 336.664 30.2333 347.038 51.9387C354.329 67.1933 348.334 80.3504 342.21 94.4233L317.031 153.191C312.898 162.701 307.345 174.492 303.806 184.118C306.435 184.353 311.669 184.155 314.456 184.138L401.306 184.118C422.562 185.592 438.802 203.499 436.758 225.025C435.384 239.496 425.02 248.051 415.496 258.002L229.365 454.985C217.503 467.737 209.325 479.609 189.736 476.156C176.556 475.421 166.015 458.288 167.388 445.679C168.37 436.666 173.198 426.302 176.006 417.498C183.562 393.808 191.829 370.291 198.946 346.456C201.247 338.693 205.413 326.828 206.939 319.312Z"/><path fill="#64ADF6" transform="scale(2 2)" d="M401.306 184.118C422.562 185.592 438.802 203.499 436.758 225.025C435.384 239.496 425.02 248.051 415.496 258.002L229.365 454.985C217.503 467.737 209.325 479.609 189.736 476.156L189.69 475.979C189.173 475.406 188.701 475.441 187.904 475.307L187.568 475.253L187.744 474.885C194.246 476.561 199.614 475.032 205.003 471.529C206.223 468.942 217.975 460.038 219.278 457.819C222.389 452.523 228.35 451.695 230.152 446.01C234.687 442.427 240.928 433.897 243.875 432.074L244.318 432.125C244.884 431.508 251.438 425.759 251.84 425.626L252.302 426.561C254.299 422.607 260.892 414.337 264.841 412.383C265.812 411.902 276.282 398.483 278.193 395.642C280.58 392.095 283.284 386.588 285.973 382.913C290.198 377.139 301.269 362.886 307.82 359.595C310.145 355.165 311.893 356.673 314.976 353.292C315.479 352.74 317.256 348.265 317.939 347.35C326.056 336.472 329.27 328.789 335.094 316.485C335.297 316.056 335.61 312.121 335.811 311.779C337.442 309.01 338.941 305.887 340.247 303.107C341.213 301.549 344.56 299.247 345.284 297.752C348.952 290.184 359.193 273.969 365.811 269.758C366.974 269.018 367.847 264.499 368.611 263.249C369.575 261.54 371.072 260.143 372.199 258.553C372.485 258.117 372.325 254.778 372.796 253.328C376.279 250.495 381.24 237.407 383.626 232.76C384.922 230.237 387.51 227.86 388.483 225.709C389.279 223.878 389.42 220.36 390.591 218.801C396.007 211.587 398.361 205.408 403.584 198.724C403.676 192.563 405.764 191.102 400.915 185.572C399.925 184.442 400.665 184.794 401.592 184.615L401.306 184.118Z"/></svg>