<?xml version="1.0" encoding="utf-8" ?><svg xmlns="http://www.w3.org/2000/svg" xmlns:xlink="http://www.w3.org/1999/xlink" width="1024" height="1024" viewBox="0 0 1024 1024"><defs><linearGradient id="gradient_0" gradientUnits="userSpaceOnUse" x1="256.93045" y1="365.73483" x2="253.8213" y2="57.476585"><stop offset="0" stop-color="#CFD9DC"/><stop offset="1" stop-color="#F7F4F3"/></linearGradient></defs><path fill="url(#gradient_0)" transform="scale(2 2)" d="M208.643 365.933C199.09 359.975 193.272 360.983 193.199 344.73C192.823 324.902 180.104 321.242 167.651 310.384C119.04 270.882 102.193 201.395 126.38 143.701C159.279 65.2267 257.291 32.2312 329.741 77.8235C409.788 128.196 418.191 245.251 347.404 307.697C332.793 320.586 319.418 323.826 318.243 346.672C317.309 364.821 306.829 363.556 305.799 365.933C330.742 372.137 327.007 407.857 302.704 407.813C303.121 456.53 237.108 472.719 214.385 429.294C211.251 423.305 208.933 415.465 208.643 408.666C208.291 407.559 192.799 407.952 191.418 394.881C189.964 381.112 191.424 365.945 208.643 365.933Z"/><defs><linearGradient id="gradient_1" gradientUnits="userSpaceOnUse" x1="226.26285" y1="425.91888" x2="285.32236" y2="348.20587"><stop offset="0" stop-color="#6497B7"/><stop offset="1" stop-color="#8ACAE1"/></linearGradient></defs><path fill="url(#gradient_1)" transform="scale(2 2)" d="M208.643 365.933L305.799 365.933C330.742 372.137 327.007 407.857 302.704 407.813C303.121 456.53 237.108 472.719 214.385 429.294C211.251 423.305 208.933 415.465 208.643 408.666C208.291 407.559 192.799 407.952 191.418 394.881C189.964 381.112 191.424 365.945 208.643 365.933Z"/><defs><linearGradient id="gradient_2" gradientUnits="userSpaceOnUse" x1="230.31844" y1="446.48999" x2="279.18896" y2="388.89453"><stop offset="0" stop-color="#3A4E72"/><stop offset="1" stop-color="#537896"/></linearGradient></defs><path fill="url(#gradient_2)" transform="scale(2 2)" d="M208.643 408.666L208.785 408.197C209.592 407.659 214.06 407.822 215.344 407.819L302.704 407.813C303.121 456.53 237.108 472.719 214.385 429.294C211.251 423.305 208.933 415.465 208.643 408.666Z"/><defs><linearGradient id="gradient_3" gradientUnits="userSpaceOnUse" x1="255.48309" y1="270.26849" x2="255.81393" y2="181.15279"><stop offset="0" stop-color="#859AB3"/><stop offset="1" stop-color="#BCCED8"/></linearGradient></defs><path fill="url(#gradient_3)" transform="scale(2 2)" d="M228.652 181.099C241.895 179.072 246.385 196.732 256.011 196.59C265.276 196.453 268.973 180.325 282.283 180.959C297.071 181.663 303.314 196.017 296.542 208.121C294.818 211.203 289.9 215.42 287.322 217.912L273.222 231.351L273.222 245.312C273.244 276.846 242.463 277.246 236.153 258.377C235.159 255.404 235.525 248.085 235.528 244.625L235.552 228.301C227.922 220.935 213.175 210.308 212.534 200.054C211.893 189.803 218.426 181.96 228.652 181.099Z"/></svg>