<?xml version="1.0" encoding="utf-8" ?><svg xmlns="http://www.w3.org/2000/svg" xmlns:xlink="http://www.w3.org/1999/xlink" width="1024" height="1024" viewBox="0 0 1024 1024"><defs><linearGradient id="gradient_0" gradientUnits="userSpaceOnUse" x1="205.81705" y1="381.25342" x2="222.86894" y2="45.756046"><stop offset="0" stop-color="#759DFF"/><stop offset="1" stop-color="#ADCFFD"/></linearGradient></defs><path fill="url(#gradient_0)" transform="scale(2 2)" d="M306.523 355.092C233.917 402.112 137.518 386.649 83.2608 319.278C29.0039 251.908 34.4438 154.428 95.8598 93.5129C157.276 32.5977 254.797 27.9562 321.721 82.763C388.645 137.57 403.318 234.092 355.705 306.311C342.859 325.796 326.113 342.406 306.523 355.092Z"/><defs><linearGradient id="gradient_1" gradientUnits="userSpaceOnUse" x1="200.20465" y1="201.71294" x2="303.27692" y2="282.64734"><stop offset="0" stop-color="#8FD3FC"/><stop offset="1" stop-color="#F9F7F7"/></linearGradient></defs><path fill="url(#gradient_1)" transform="scale(2 2)" d="M128.083 288.138C92.6093 247.725 90.0925 188.055 122.037 144.799C153.981 101.543 211.752 86.3948 260.811 108.41C303.454 127.545 330.155 170.711 328.236 217.411C326.317 264.111 296.165 304.94 252.096 320.513C208.026 336.085 158.916 323.264 128.083 288.138Z"/><path fill="#B6E5F8" transform="scale(2 2)" d="M128.083 288.138C92.6093 247.725 90.0925 188.055 122.037 144.799C153.981 101.543 211.752 86.3948 260.811 108.41C261.765 110.147 274.746 114.46 274.425 117.108C269.42 117.737 261.797 125.58 263.667 129.042C261.364 132.982 256.503 141.538 253.193 144.092L251.877 144.108C251.704 144.552 251.71 146.198 251.779 146.134C239.554 157.386 231.834 172.607 220.465 184.584C217.342 188.442 198.6 210.999 198.585 211.663L198.75 211.973C198.119 212.142 198.032 212.148 197.377 212.191L197.04 212.556L197.104 213.221C196.088 212.789 196.367 212.427 195.594 214.484L195.318 214.415L195.09 213.961C194.284 214.703 194.448 215.684 193.761 216.257C181.896 226.374 175.134 233.884 165.496 246.217C164.269 247.787 163.74 250.504 162.611 252.297L162.4 252.268L162.251 251.849C161.969 251.883 156.724 258.567 156.013 259.498C153.826 262.366 142.674 279.769 139.885 280.858C137.61 281.746 131.518 290.163 130.825 290.403C129.512 289.811 129.26 288.222 128.083 288.138Z"/><defs><linearGradient id="gradient_2" gradientUnits="userSpaceOnUse" x1="365.07013" y1="417.07501" x2="419.07681" y2="367.00354"><stop offset="0" stop-color="#ADBBFD"/><stop offset="1" stop-color="#B9EDFA"/></linearGradient></defs><path fill="url(#gradient_2)" transform="scale(2 2)" d="M355.705 306.311C360.465 309.7 367.628 317.541 372.012 321.913L444.382 394.298C448.655 398.577 452.734 402.432 456.732 407.006C482.608 436.603 441.982 482.073 409.589 457.19C404.487 453.27 400.188 448.685 395.666 444.163L315.52 364.343C312.623 361.426 309.213 358.145 306.523 355.092C326.113 342.406 342.859 325.796 355.705 306.311Z"/></svg>