<?xml version="1.0" encoding="utf-8" ?><svg xmlns="http://www.w3.org/2000/svg" xmlns:xlink="http://www.w3.org/1999/xlink" width="1024" height="1024" viewBox="0 0 1024 1024"><defs><linearGradient id="gradient_0" gradientUnits="userSpaceOnUse" x1="162.58974" y1="459.18048" x2="312.34424" y2="307.28903"><stop offset="0" stop-color="#1D579C"/><stop offset="1" stop-color="#9AB1CD"/></linearGradient></defs><path fill="url(#gradient_0)" transform="scale(2 2)" d="M225.222 236.311C303.854 211.618 388.685 282.661 392.209 362.663C392.643 372.515 393.524 392.507 392.493 402.063C391.275 420.465 378.082 436.624 359.88 440.45C354.508 441.58 348.637 441.273 343.143 441.27L168.215 441.271C156.449 441.274 148.129 441.588 137.89 434.605C117.412 420.638 120.407 404.575 119.746 383.748C117.333 322.156 144.995 265.697 204.614 243.077C211.444 240.485 217.888 237.739 225.222 236.311Z"/><path fill="#A0B6D0" transform="scale(2 2)" d="M225.222 236.311C303.854 211.618 388.685 282.661 392.209 362.663C392.643 372.515 393.524 392.507 392.493 402.063C391.893 398.203 392.418 394.22 391.862 390.387C391.923 390.813 388.708 384.445 389.09 384.849C385.751 381.322 383.101 377.23 379.733 373.767C378.245 372.238 363.766 362.085 362.064 361.089C360.413 360.124 361.208 358.344 360.455 357.787C357.919 355.946 355.335 354.148 352.952 352.115C352.08 351.983 350.574 348.198 350.599 348.21C341.374 343.791 335.326 334.97 327.965 328.152C326.685 326.965 324.404 326.132 323.518 325.161L296.068 295.262C289.733 288.423 283.607 283.651 276.912 277.599C275.143 276 271.841 271.292 270.463 270.34C264.759 266.401 261.215 261.036 255.266 259.906L255.654 259.357C255.16 257.85 253.096 258.295 252.033 257.366C251.227 252.681 232.446 245.936 230.381 237.774L229.749 237.888C229.195 237.427 229.349 237.724 229.185 237.038L230.043 236.73L230.18 236.441C229.392 235.649 227.151 236.356 225.504 236.319L225.222 236.311Z"/><defs><linearGradient id="gradient_1" gradientUnits="userSpaceOnUse" x1="201.79533" y1="200.35329" x2="309.82111" y2="88.526192"><stop offset="0" stop-color="#B0BDDD"/><stop offset="1" stop-color="#EDF1F5"/></linearGradient></defs><path fill="url(#gradient_1)" transform="scale(2 2)" d="M251.698 66.0579C295.032 63.7266 332.062 96.9406 334.438 140.272C336.815 183.602 303.64 220.667 260.311 223.089C216.919 225.515 179.787 192.279 177.407 148.884C175.027 105.489 208.301 68.3927 251.698 66.0579Z"/></svg>