<?xml version="1.0" encoding="utf-8" ?><svg xmlns="http://www.w3.org/2000/svg" xmlns:xlink="http://www.w3.org/1999/xlink" width="1024" height="1024" viewBox="0 0 1024 1024"><defs><linearGradient id="gradient_0" gradientUnits="userSpaceOnUse" x1="162.18535" y1="410.90817" x2="349.76605" y2="101.0423"><stop offset="0" stop-color="#7BB8FF"/><stop offset="1" stop-color="#E9FEF2"/></linearGradient></defs><path fill="url(#gradient_0)" transform="scale(2 2)" d="M246.14 74.6067C346.649 69.2616 432.368 146.609 437.344 247.137C442.32 347.665 364.658 433.099 264.112 437.706C164.087 442.288 79.1922 365.117 74.2422 265.109C69.2921 165.102 146.151 79.9241 246.14 74.6067Z"/><defs><linearGradient id="gradient_1" gradientUnits="userSpaceOnUse" x1="216.51643" y1="358.41147" x2="292.74112" y2="254.91771"><stop offset="0" stop-color="#6EADFF"/><stop offset="1" stop-color="#B4CBFA"/></linearGradient></defs><path fill="url(#gradient_1)" transform="scale(2 2)" d="M176.155 288.327C186.709 287.295 189.635 296.672 195.41 302.625C226.682 334.861 282.268 335.902 313.949 303.914C319.985 297.82 322.482 289.063 332.368 288.332C340.924 287.676 349.164 294.804 349.887 303.317C350.666 312.485 344.472 318.877 338.947 325.328C292.776 374.539 216.844 372.661 172.026 323.442C167.702 318.693 162.755 312.98 161.883 306.35C160.701 297.364 167.322 289.483 176.155 288.327Z"/><defs><linearGradient id="gradient_2" gradientUnits="userSpaceOnUse" x1="218.0966" y1="195.02432" x2="165.54094" y2="239.59308"><stop offset="0" stop-color="#B6CAF8"/><stop offset="1" stop-color="#7998FF"/></linearGradient></defs><path fill="url(#gradient_2)" transform="scale(2 2)" d="M191.724 182.762C210.934 182.688 226.557 198.217 226.599 217.427C226.64 236.636 211.085 252.234 191.875 252.243C172.711 252.253 157.158 236.742 157.117 217.578C157.075 198.414 172.56 182.835 191.724 182.762Z"/><defs><linearGradient id="gradient_3" gradientUnits="userSpaceOnUse" x1="346.21759" y1="195.30977" x2="293.86639" y2="239.04076"><stop offset="0" stop-color="#B1CAF9"/><stop offset="1" stop-color="#7195FF"/></linearGradient></defs><path fill="url(#gradient_3)" transform="scale(2 2)" d="M316.561 183.003C335.493 180.948 352.514 194.61 354.604 213.538C356.694 232.466 343.064 249.513 324.14 251.638C305.166 253.769 288.065 240.095 285.969 221.118C283.874 202.14 297.579 185.064 316.561 183.003Z"/></svg>