<?xml version="1.0" encoding="utf-8" ?><svg xmlns="http://www.w3.org/2000/svg" xmlns:xlink="http://www.w3.org/1999/xlink" width="1024" height="1024" viewBox="0 0 1024 1024"><defs><linearGradient id="gradient_0" gradientUnits="userSpaceOnUse" x1="379.73199" y1="430.12064" x2="128.05324" y2="159.19652"><stop offset="0" stop-color="#629FF5"/><stop offset="1" stop-color="#DBEDED"/></linearGradient></defs><path fill="url(#gradient_0)" transform="scale(2 2)" d="M215.82 93.9869C215.846 81.795 215.875 73.0443 223.587 62.7846C246.96 31.6919 294.626 46.7994 295.84 85.9285C296.125 88.4557 295.944 91.4208 295.84 93.9869C302.313 95.6144 309.799 99.3472 315.764 102.367C365.812 127.699 392.032 178.312 392.016 233.075L392.005 314.378C436.684 321.887 446.885 383.332 408.4 402.247C396.79 407.954 387.605 407.007 375.169 406.997L344.007 406.978C338.053 406.98 323.544 407.971 318.392 406.984C317.434 413.25 315.554 422.642 312.1 428.003C311.604 429.293 310.58 431.102 309.879 432.278C290.309 464.828 243.506 471.443 214.878 446.916C209.835 442.596 200.139 431.112 198.612 424.791C195.977 419.76 194.437 412.647 193.937 406.984L145.489 406.992C128.812 406.99 115.428 409.15 100.608 399.025C66.2825 375.571 77.6947 322.68 120.083 315.19C119.715 310.745 120.05 306.204 120.069 301.726L120.071 237.683C120.067 228.411 119.752 218.445 121.021 209.294C128.723 153.746 164.417 113.386 215.82 93.9869Z"/><path fill="#85A7F7" transform="scale(2 2)" d="M193.937 406.984C199.287 408.144 211.523 407.771 217.591 407.768L294.485 407.773C300.605 407.771 313.124 408.125 318.392 406.984C317.434 413.25 315.554 422.642 312.1 428.003C311.604 429.293 310.58 431.102 309.879 432.278C290.309 464.828 243.506 471.443 214.878 446.916C209.835 442.596 200.139 431.112 198.612 424.791C195.977 419.76 194.437 412.647 193.937 406.984Z"/><path fill="#7394F7" transform="scale(2 2)" d="M193.937 406.984C199.287 408.144 211.523 407.771 217.591 407.768L294.485 407.773C300.605 407.771 313.124 408.125 318.392 406.984C317.434 413.25 315.554 422.642 312.1 428.003L311.803 427.937C311.572 426.502 314.639 423.731 313.668 421.938C310.227 420.668 296.697 421.249 292.429 421.119C275.969 420.628 259.615 418.903 243.181 418.303C240.614 418.144 237.828 417.369 235.286 417.29C226.239 417.009 204.793 413.747 197.677 416.623C195.381 419.556 199.204 422.256 198.612 424.791C195.977 419.76 194.437 412.647 193.937 406.984Z"/><defs><linearGradient id="gradient_1" gradientUnits="userSpaceOnUse" x1="254.18974" y1="46.685207" x2="256.02338" y2="94.504143"><stop offset="0" stop-color="#95E7E6"/><stop offset="1" stop-color="#70C8F3"/></linearGradient></defs><path fill="url(#gradient_1)" transform="scale(2 2)" d="M215.82 93.9869C215.846 81.795 215.875 73.0443 223.587 62.7846C246.96 31.6919 294.626 46.7994 295.84 85.9285C295.735 88.7296 295.777 91.194 295.84 93.9869C272.979 85.0779 238.74 85.3897 215.82 93.9869Z"/></svg>