<?xml version="1.0" encoding="utf-8" ?><svg xmlns="http://www.w3.org/2000/svg" xmlns:xlink="http://www.w3.org/1999/xlink" width="1024" height="1024" viewBox="0 0 1024 1024"><defs><linearGradient id="gradient_0" gradientUnits="userSpaceOnUse" x1="353.04248" y1="385.91727" x2="222.9467" y2="247.93527"><stop offset="0" stop-color="#618DC3"/><stop offset="1" stop-color="#AED3E2"/></linearGradient></defs><path fill="url(#gradient_0)" transform="scale(2 2)" d="M268.031 197.443C312.845 165.431 374.172 183.785 395.476 234.519C417.808 287.702 377.222 362.816 340.181 398.999C327.73 411.16 314.032 423.078 295.183 419.639C282.116 417.254 271.049 409.522 257.378 409.263C236.911 408.875 218.794 426.03 197.926 418.325C176.183 410.298 133.61 355.762 125.564 332.571C113.232 313.756 108.719 269.121 113.235 247.861C124.722 193.789 184.124 165.747 233.372 191.636C235.958 192.995 238.886 194.556 241.428 196.032C255.911 204.437 252.641 207.166 268.031 197.443Z"/><path fill="#B3D4E4" transform="scale(2 2)" d="M125.564 332.571C113.232 313.756 108.719 269.121 113.235 247.861C124.722 193.789 184.124 165.747 233.372 191.636C235.958 192.995 238.886 194.556 241.428 196.032C255.911 204.437 252.641 207.166 268.031 197.443L268.604 197.63C271.44 196.072 284.623 186.664 286.495 189.15C287.464 189.247 293.408 186.073 291.363 189.248C289.999 191.366 289.314 193.841 288.29 196.019L287.94 195.976C287.201 196.325 284.018 205.489 283.048 206.875C276.95 215.595 266.007 222.733 259.905 231.009L259.879 232.843L259.669 232.908L259.395 232.141C258.26 232.778 253.289 237.785 252.545 239.556L251.691 238.014C251.116 238.331 239.436 251.261 238.741 252.155C238.015 253.089 237.221 252.065 236.521 253.103C234.564 255.612 235.732 258.682 235 259.808C225.654 260.391 228.352 264.139 222.5 268.404C219.079 270.898 208.613 280.8 206.02 281.451C203.411 282.188 201.343 285.532 199.411 287.307C199.436 287.284 198.8 287.081 198.812 287.085C196.294 289.349 193.701 291.351 190.362 292.197C190.185 292.864 180.271 301.619 179.102 302.581C174.905 306.031 171.097 306.719 167.987 311.626C164.473 317.17 156.955 321.288 152.167 325.619C150.303 327.305 148.519 331.013 147.321 328.918C145.923 330.071 145.506 331.149 143.717 332.287C141.287 333.833 134.81 335.758 138.366 339.27C138.585 341.235 134.4 341.676 132.743 342.432C129.509 341.799 127.496 333.78 125.564 332.571Z"/><defs><linearGradient id="gradient_1" gradientUnits="userSpaceOnUse" x1="353.79999" y1="282.24127" x2="315.52872" y2="245.94452"><stop offset="0" stop-color="#C5DBE9"/><stop offset="1" stop-color="#FCFAF8"/></linearGradient></defs><path fill="url(#gradient_1)" transform="scale(2 2)" d="M341.973 227.846C365.381 225.022 380.597 255.807 363.439 273.007C357.981 278.478 352.392 284.382 346.861 289.885C340.338 296.374 335.177 305.624 325.183 306.028C316.296 304.95 297.336 285.072 296.127 276.162C294.533 264.325 304.14 257.806 311.467 250.403C320.128 241.887 329.513 229.387 341.973 227.846Z"/><defs><linearGradient id="gradient_2" gradientUnits="userSpaceOnUse" x1="309.82901" y1="152.01257" x2="166.92737" y2="78.355247"><stop offset="0" stop-color="#6BAAD9"/><stop offset="1" stop-color="#BDE6E0"/></linearGradient></defs><path fill="url(#gradient_2)" transform="scale(2 2)" d="M162.976 125.019C159.689 120.355 157.946 108.317 157.642 102.497C156.751 85.4552 167.035 88.7888 179.511 88.9189C184.742 90.5385 189.592 91.5108 194.739 93.4759C223.9 104.609 232.686 122.523 245.001 147.772C254.012 124.583 265.623 106.319 289.815 95.7775C329.453 78.5182 338.957 91.5002 322.749 128.302C292.597 196.768 192.579 190.639 163.186 125.707C163.116 125.478 163.046 125.248 162.976 125.019Z"/><path fill="#B3D4E4" transform="scale(2 2)" d="M162.976 125.019C159.689 120.355 157.946 108.317 157.642 102.497C156.751 85.4552 167.035 88.7888 179.511 88.9189L179.344 89.4582C165.588 89.5383 159.695 85.4761 158.109 101.396C159.193 95.3367 159.043 97.8571 161.368 93.8429L161.852 93.8873C165.217 94.164 160.095 98.0882 163.463 100.44C162.46 104.173 161.467 106.105 160.486 109.008C160.659 111.043 162.075 113.434 161.368 114.854C160.172 113.601 160.907 112.908 159.525 112.349L159.26 112.593C159.613 113.928 163.272 124.429 162.976 125.019Z"/><path fill="#B3D4E4" transform="scale(2 2)" d="M170.502 93.0172C171.631 93.3022 171.024 93.7595 170.893 94.7604L171.487 94.9587L171.665 95.4603C171.277 97.1489 169.814 98.0623 168.681 99.2489L167.793 99.722L167.831 99.6541L167.123 99.3781C166.648 97.137 168.835 94.3224 170.502 93.0172Z"/><path fill="#B3D4E4" transform="scale(2 2)" d="M170.502 89.8901C171.319 89.9215 172.287 90.1429 172.913 90.6946L172.635 91.0901C171.747 91.43 171.454 91.4637 170.502 91.6245C169.427 91.64 168.777 91.8669 168.098 91.3315L168.216 90.8956C169.163 90.1516 169.29 90.1717 170.502 89.8901Z"/></svg>