<?xml version="1.0" encoding="utf-8" ?><svg xmlns="http://www.w3.org/2000/svg" xmlns:xlink="http://www.w3.org/1999/xlink" width="1024" height="1024" viewBox="0 0 1024 1024"><defs><linearGradient id="gradient_0" gradientUnits="userSpaceOnUse" x1="113.88904" y1="397.60416" x2="402.19812" y2="81.442581"><stop offset="0" stop-color="#ACC8F5"/><stop offset="1" stop-color="#EFFAF7"/></linearGradient></defs><path fill="url(#gradient_0)" transform="scale(2 2)" d="M64.7543 358.773C64.3032 355.948 64.7466 348.949 64.7536 345.753L64.7531 180.553C64.7479 150.682 63.2434 128.199 85.2678 104.452C116.49 70.7875 155.193 77.9873 196.956 77.9892L346.04 77.9912C358.418 77.9788 372.552 77.0618 384.671 79.4671C414.522 85.3917 439.019 109.606 445.48 139.338C447.867 150.324 447.52 162.149 447.519 173.379L447.515 340.544C447.512 346.077 447.326 352.119 447.517 357.57C447.726 359.534 447.038 362.95 446.799 364.985C442.471 401.719 410.524 428.31 374.084 428.873L158.487 428.877C148.118 428.877 135.84 429.381 125.702 427.748C88.6791 421.785 68.4456 393.943 64.7543 358.773Z"/><defs><linearGradient id="gradient_1" gradientUnits="userSpaceOnUse" x1="153.90318" y1="464.31754" x2="298.28714" y2="293.85333"><stop offset="0" stop-color="#6FAAF8"/><stop offset="1" stop-color="#99C8FC"/></linearGradient></defs><path fill="url(#gradient_1)" transform="scale(2 2)" d="M64.7543 354.442C67.4983 352.661 79.8032 336.439 82.655 332.84L149.122 248.734C161.691 233.076 173.173 210.531 197.179 214.492C216.449 217.408 222.508 232.749 233.784 246.901L267.155 288.825C273.591 296.901 279.901 304.306 286.073 312.64C293.691 322.229 301.735 331.236 309.562 340.584L344.899 383.303C356.498 397.223 371.676 410.527 374.084 428.873L158.487 428.877C148.118 428.877 135.84 429.381 125.702 427.748C88.6791 421.785 68.4456 393.943 64.7543 358.773C64.8618 357.495 64.7767 355.757 64.7543 354.442Z"/><defs><linearGradient id="gradient_2" gradientUnits="userSpaceOnUse" x1="405.09302" y1="282.10867" x2="331.20779" y2="401.44669"><stop offset="0" stop-color="#7FB3F7"/><stop offset="1" stop-color="#477CFF"/></linearGradient></defs><path fill="url(#gradient_2)" transform="scale(2 2)" d="M286.073 312.64C293.949 302.453 302.015 292.97 309.969 282.928L322.275 267.432C332.541 254.612 346.734 243.035 363.451 255.938C367.591 259.132 371.696 265.028 375.007 269.224L433.379 340.816C435.868 343.867 444.885 355.905 447.517 357.57C447.726 359.534 447.038 362.95 446.799 364.985C442.471 401.719 410.524 428.31 374.084 428.873C371.676 410.527 356.498 397.223 344.899 383.303L309.562 340.584C301.735 331.236 293.691 322.229 286.073 312.64Z"/><defs><linearGradient id="gradient_3" gradientUnits="userSpaceOnUse" x1="321.8938" y1="102.07339" x2="381.26697" y2="177.09084"><stop offset="0" stop-color="#76B4FE"/><stop offset="1" stop-color="#A7F4FA"/></linearGradient></defs><path fill="url(#gradient_3)" transform="scale(2 2)" d="M347.167 91.6597C373.682 89.2128 397.152 108.746 399.559 135.264C401.967 161.783 382.4 185.223 355.878 187.592C329.411 189.956 306.03 170.438 303.627 143.975C301.224 117.511 320.708 94.1015 347.167 91.6597Z"/></svg>