<?xml version="1.0" encoding="utf-8" ?><svg xmlns="http://www.w3.org/2000/svg" xmlns:xlink="http://www.w3.org/1999/xlink" width="1024" height="1024" viewBox="0 0 1024 1024"><defs><linearGradient id="gradient_0" gradientUnits="userSpaceOnUse" x1="151.70992" y1="265.42801" x2="285.79941" y2="152.88554"><stop offset="0" stop-color="#72B0DD"/><stop offset="1" stop-color="#D8EAEF"/></linearGradient></defs><path fill="url(#gradient_0)" transform="scale(2 2)" d="M143.721 105.764C143.165 96.457 144.024 86.1894 143.835 76.8917C143.521 61.5415 158.004 64.4964 168.531 64.5012L202.414 64.5133C211.726 64.2588 221.994 64.5339 231.407 64.5179L307.216 64.7638C324.466 64.8357 341.857 64.0104 359.092 64.8568C372.395 65.5102 367.481 95.2475 368.167 105.764C383.732 105.736 398.023 104.358 409.766 116.35C420.057 126.86 421.582 137.059 421.433 151.139C421.165 176.424 414.59 194.066 396.265 212.637C391.586 217.378 367.068 233.787 360.047 235.404C356.095 237.656 355.172 242.103 353.178 245.952C341.22 269.044 314.574 297.713 288.219 304.49L288.229 336.009C288.231 339.457 288.406 350.839 287.71 353.561C268.718 353.8 246.643 354.475 227.864 353.561C226.62 353.099 226.07 353.501 225.272 352.873C224.26 348.947 224.519 338.007 224.517 333.329L224.524 304.49C188.889 289.941 169.056 269.5 153.048 233.998C150.595 234.028 147.088 232.298 144.838 231.254C117.388 218.52 94.2308 196.146 90.5491 164.8C88.4862 148.11 89.6224 128.244 102.125 115.908C113.959 104.231 128.452 105.74 143.721 105.764ZM143.721 127.92C124.819 127.9 110.474 125.493 111.262 149.813C110.974 168.301 115.672 182.828 129.052 196.171C131.049 198.163 143.499 207.946 145.589 208.528C142.409 183.553 143.34 153.18 143.721 127.92Z"/><path fill="#EBF2FA" transform="scale(2 2)" d="M202.414 64.5133C211.726 64.2588 221.994 64.5339 231.407 64.5179L307.216 64.7638C324.466 64.8357 341.857 64.0104 359.092 64.8568C372.395 65.5102 367.481 95.2475 368.167 105.764C383.732 105.736 398.023 104.358 409.766 116.35C420.057 126.86 421.582 137.059 421.433 151.139C421.165 176.424 414.59 194.066 396.265 212.637C391.586 217.378 367.068 233.787 360.047 235.404L359.976 235.165L359.546 235.059C358.175 235.781 357.388 236.404 356.674 237.797L356.279 237.881C355.939 236.618 355.539 236.391 354.398 235.692C353.505 235.146 353.797 233.469 353.257 233.106C347.487 229.22 350.773 231.829 346.185 227.1C342.743 226.579 327.37 210.881 324.03 206.699C321.123 203.06 306.318 184.695 302.884 182.982C302.124 183.15 301.762 183.206 300.987 183.292L300.687 182.943C301.663 180.563 311.382 172.902 311.61 170.216C320.538 150.261 289.446 153.689 279.171 148.152C271.898 144.233 267.589 118.269 256.057 118.568C250.758 118.705 250.126 121.953 246.794 125.009C246.699 124.966 246.778 124.984 246.457 125.056C245.179 127.158 243.388 130.16 242.517 132.413C240.988 129.268 240.642 126.94 237.956 123.931C237.011 122.872 234.558 121.757 233.527 120.494C229.414 115.455 225.434 110.343 220.707 105.815C219.065 104.242 216.371 102.84 214.622 101.096L205.291 91.8159C204.669 91.2056 200.589 89.5216 200.039 88.8551C196.82 84.9569 193.164 81.7028 189.846 77.9392C186.766 77.2413 182.948 69.6437 182.842 69.5837C181.001 68.5359 180.003 68.6139 178.295 66.1789C179.964 64.5587 176.004 65.6895 175.108 64.8908C177.785 63.3572 196.834 66.3271 202.414 64.5133Z"/><path fill="white" transform="scale(2 2)" d="M368.167 127.92C373.658 127.936 385.034 127.285 390 128.483C403.15 131.658 399.994 145.884 400.353 155.635C400.99 172.927 395.638 181.24 384.685 193.823C379.452 199.905 372.633 203.927 366.132 208.528C368.018 196.638 368.188 187.426 368.187 175.416L368.165 144.365C368.152 139.06 367.864 133.137 368.167 127.92Z"/><path fill="white" transform="scale(2 2)" d="M246.794 125.009C250.126 121.953 250.758 118.705 256.057 118.568C267.589 118.269 271.898 144.233 279.171 148.152C289.446 153.689 320.538 150.261 311.61 170.216C307.425 175.894 294.134 187.385 291.806 192.36C290.522 202.256 302.487 231.764 286.895 231.38C279.062 231.187 264.589 219.569 256.955 218.4C249.096 217.197 219.925 242.959 217.099 223.975C216.109 217.32 220.802 200.993 220.949 192.36C217.44 186.001 205.712 176.911 201.422 170.888C186.543 150.001 228.425 153.622 234.854 146.915C236.812 144.872 245.033 128.501 246.794 125.009Z"/><path fill="#B1E5F3" transform="scale(2 2)" d="M153.048 233.998C150.595 234.028 147.088 232.298 144.838 231.254C117.388 218.52 94.2308 196.146 90.5491 164.8C88.4862 148.11 89.6224 128.244 102.125 115.908C113.959 104.231 128.452 105.74 143.721 105.764C143.374 112.287 143.254 121.332 143.721 127.92C124.819 127.9 110.474 125.493 111.262 149.813C110.974 168.301 115.672 182.828 129.052 196.171C131.049 198.163 143.499 207.946 145.589 208.528C147.821 218.526 149.855 224.409 153.048 233.998Z"/><defs><linearGradient id="gradient_1" gradientUnits="userSpaceOnUse" x1="232.41507" y1="470.02765" x2="268.21884" y2="377.39499"><stop offset="0" stop-color="#2C599A"/><stop offset="1" stop-color="#6290C0"/></linearGradient></defs><path fill="url(#gradient_1)" transform="scale(2 2)" d="M167.287 384.184C167.114 358.909 174.343 353.358 197.295 353.558L212.262 353.568C216.326 353.56 224.418 353.168 227.864 353.561C246.643 354.475 268.718 353.8 287.71 353.561L314.215 353.553C330.974 353.546 344.302 353.713 344.284 374.662L344.272 376.629L344.272 379.851C359.928 383.646 360.063 395.665 360.043 408.747C360.04 410.364 360.222 414.972 360.047 416.35C361.696 437.523 349.502 448.445 328.65 448.49L188.267 448.502C155.297 448.486 151.361 434.901 151.709 404.141C151.909 386.443 150.306 386.729 167.287 384.184Z"/><path fill="#427AA1" transform="scale(2 2)" d="M276.337 384.184L276.459 384.142L276.523 383.98C275.903 383.224 275.595 382.746 275.336 381.83C274.521 378.946 233.495 365.677 229.07 364.244C223.881 362.564 210.465 360.133 208.113 354.431C207.392 354.456 206.407 354.482 205.966 353.883C211.839 353.067 223.925 353.753 230.274 353.843L327.221 354.117C335.386 354.206 342.45 361.69 343.468 369.058C343.852 371.839 343.414 374.981 343.966 377.317L344.272 376.629L344.272 379.851C359.928 383.646 360.063 395.665 360.043 408.747C360.04 410.364 360.222 414.972 360.047 416.35C359.7 413.619 360.108 407.635 359.885 404.022C359.385 405.359 360.192 412.543 359.352 413.433C358.832 412.877 358.243 412.112 357.594 411.962L356.349 412.75C355.281 411.408 348.529 410.633 346.389 409.916C331.029 404.769 319.187 397.38 302.598 392.689C299.815 391.902 283.847 388.518 281.892 386.961L281.468 387.164C279.89 386.156 277.988 385.11 276.337 384.184Z"/><defs><linearGradient id="gradient_2" gradientUnits="userSpaceOnUse" x1="241.38042" y1="412.74014" x2="276.76825" y2="381.94086"><stop offset="0" stop-color="#89D0E6"/><stop offset="1" stop-color="#CAF9F8"/></linearGradient></defs><path fill="url(#gradient_2)" transform="scale(2 2)" d="M225.831 391.181C233.592 381.19 244.959 384.705 256.252 384.177C262.064 383.905 270.476 383.939 276.337 384.184C277.988 385.11 279.89 386.156 281.468 387.164C293.474 398.245 288.066 416.445 272.756 416.399C263.155 416.342 253.418 416.345 243.752 416.35C244.462 411.452 226.012 395.726 225.831 391.181Z"/><path fill="#B1E5F3" transform="scale(2 2)" d="M243.752 416.35C228.505 416.565 216.688 405.635 225.831 391.181C226.012 395.726 244.462 411.452 243.752 416.35Z"/></svg>