<?xml version="1.0" encoding="utf-8" ?><svg xmlns="http://www.w3.org/2000/svg" xmlns:xlink="http://www.w3.org/1999/xlink" width="1024" height="1024" viewBox="0 0 1024 1024"><defs><linearGradient id="gradient_0" gradientUnits="userSpaceOnUse" x1="406.36676" y1="440.41479" x2="418.46069" y2="64.918213"><stop offset="0" stop-color="#8DBDF7"/><stop offset="1" stop-color="#F2FDF7"/></linearGradient></defs><path fill="url(#gradient_0)" transform="scale(2 2)" d="M371.411 96.0316C372.9 88.4288 377.401 79.9713 383.049 74.5412C397.597 60.5557 429.077 60.4337 443.16 74.9286C444.899 76.4445 448.378 80.5587 449.123 82.7303C456.608 95.5107 454.738 125.518 454.744 140.957L454.749 152.882C454.752 154.304 454.87 157.761 454.731 159.04C454.514 165.52 454.727 173.409 454.728 180.043L454.728 389.876C454.728 398.262 455.238 408.661 453.622 416.551C451.535 426.741 439.888 438.254 429.62 439.954C409.628 443.265 385.912 443.547 374.963 423.237C368.74 412.693 369.765 402.638 369.767 390.97L369.765 127.857C369.758 119.889 369.538 103.177 371.411 96.0316Z"/><path fill="white" transform="scale(2 2)" d="M371.411 96.0316C372.9 88.4288 377.401 79.9713 383.049 74.5412C397.597 60.5557 429.077 60.4337 443.16 74.9286C440.918 74.6283 426.708 61.7797 419.574 65.7434C418.211 66.5007 417.742 68.3386 416.584 69.2954C415.769 69.8909 411.6 69.6215 411.034 69.8632C409.011 70.7274 409.934 71.7611 407.108 72.1555C404.765 72.4828 402.826 71.7113 400.815 71.8681C399.189 71.9948 396.92 73.4285 394.982 72.8465C392.05 71.966 390.515 69.9045 387.131 72.069C374.334 80.2545 375.617 91.4537 371.411 96.0316Z"/><path fill="white" transform="scale(2 2)" d="M449.123 82.7303C456.608 95.5107 454.738 125.518 454.744 140.957L454.749 152.882C454.752 154.304 454.87 157.761 454.731 159.04C454.105 153.651 454.891 147.43 454.727 141.927C454.315 128.183 453.883 114.414 453.721 100.664C453.695 98.3818 451.448 90.2113 450.747 87.2004C450.422 85.8012 448.99 84.6072 449.123 82.7303Z"/><path fill="#8DB0F7" transform="scale(2 2)" d="M266.793 278.677L266.783 178.055C266.775 162.266 266.087 147.364 278.163 135.26C293.282 120.105 322.2 120.918 337.404 135.754C349.3 147.363 348.776 162.939 348.782 178.222L348.814 309.028C348.813 309.359 348.814 309.244 348.776 309.688L348.796 396.209C348.818 401.659 349.214 408.277 348.013 413.586C344.76 427.972 331.111 441.341 315.893 441.217C301.31 441.098 288.546 443.344 277.421 431.849C266.347 420.409 266.748 408.146 266.78 393.424L266.793 278.677Z"/><defs><linearGradient id="gradient_1" gradientUnits="userSpaceOnUse" x1="303.65961" y1="272.72772" x2="312.69949" y2="124.98161"><stop offset="0" stop-color="#94D6F9"/><stop offset="1" stop-color="#BFF2FB"/></linearGradient></defs><path fill="url(#gradient_1)" transform="scale(2 2)" d="M266.793 278.677L266.783 178.055C266.775 162.266 266.087 147.364 278.163 135.26C293.282 120.105 322.2 120.918 337.404 135.754C349.3 147.363 348.776 162.939 348.782 178.222L348.814 309.028C348.813 309.359 348.814 309.244 348.776 309.688C348.722 309.618 348.237 268.382 348.145 265.096C347.592 245.336 351.587 250.228 328.231 256.143L270.029 270.948C265.951 271.994 267.209 274.848 267.072 278.258L266.793 278.677Z"/><path fill="#8DB0F7" transform="scale(2 2)" d="M162.244 285.317L162.237 246.069C162.239 229.129 160.216 210.983 173.201 197.679C182.922 187.721 192.976 189.255 205.501 188.656C246.981 186.672 245.342 223.926 245.335 252.72L245.325 297.62C245.334 299.42 245.512 306.126 245.327 307.514C245.331 307.572 245.334 307.63 245.338 307.689L245.334 395.764C245.416 420.205 239.855 442.072 208.848 441.202C194.19 440.791 184.119 443.033 172.804 431.327C161.753 419.895 162.223 411.647 162.231 396.986L162.244 285.317Z"/><defs><linearGradient id="gradient_2" gradientUnits="userSpaceOnUse" x1="197.11417" y1="290.40219" x2="213.49666" y2="189.22324"><stop offset="0" stop-color="#8CC3F9"/><stop offset="1" stop-color="#BEEBF9"/></linearGradient></defs><path fill="url(#gradient_2)" transform="scale(2 2)" d="M162.244 285.317L162.237 246.069C162.239 229.129 160.216 210.983 173.201 197.679C182.922 187.721 192.976 189.255 205.501 188.656C246.981 186.672 245.342 223.926 245.335 252.72L245.325 297.62C245.334 299.42 245.512 306.126 245.327 307.514C244.041 300.664 245.623 285.771 244.772 277.355C240.277 277.366 231.255 280.349 226.375 281.109C203.217 284.139 186.377 288.434 162.244 285.317Z"/><defs><linearGradient id="gradient_3" gradientUnits="userSpaceOnUse" x1="41.252377" y1="405.85715" x2="155.9892" y2="287.36884"><stop offset="0" stop-color="#4790F3"/><stop offset="1" stop-color="#99D4FC"/></linearGradient></defs><path fill="url(#gradient_3)" transform="scale(2 2)" d="M56.1889 404.356L56.1689 293.797C56.1426 262.582 68.4503 251.632 99.5604 252.051C135.587 252.115 141.761 272.987 141.715 304.509L141.725 405.721C141.732 411.215 139.849 420.588 136.37 424.973C133.712 434.107 117.389 441.049 108.506 441.21C92.9555 441.492 79.483 442.914 67.1935 431.029C60.4529 424.51 56.1882 413.791 56.1889 404.356Z"/></svg>