<?xml version="1.0" encoding="utf-8" ?><svg xmlns="http://www.w3.org/2000/svg" xmlns:xlink="http://www.w3.org/1999/xlink" width="1024" height="1024" viewBox="0 0 1024 1024"><defs><linearGradient id="gradient_0" gradientUnits="userSpaceOnUse" x1="186.93069" y1="442.78995" x2="186.85924" y2="296.47369"><stop offset="0" stop-color="#699DF6"/><stop offset="1" stop-color="#BBD9F8"/></linearGradient></defs><path fill="url(#gradient_0)" transform="scale(2 2)" d="M96.0029 437.559C95.4659 437.361 92.9455 435.867 92.3838 435.529C67.4833 420.532 46.1215 395.117 37.4539 367.393C35.624 362.194 34.8475 356.583 33.4471 351.314C29.3971 336.076 24.6938 318.919 37.1067 306.082C43.4801 299.491 50.9893 296.276 60.256 296.246L309.898 296.216C327.401 296.229 342.178 302.48 344.558 322.514C344.886 325.278 344.677 328.665 344.74 331.505C343.88 349.622 340.05 364.198 332.185 380.515C331.657 381.61 330.95 382.966 331.783 383.959C328.169 387.863 328.351 387.375 325.476 392.19C313.062 412.985 290.68 434.165 268.344 443.665C249.178 455.842 215.063 457.169 193.321 456.957C157.028 456.603 129.173 458.139 96.0029 437.559Z"/><path fill="#7394F7" transform="scale(2 2)" d="M96.0029 437.559C97.0452 437.439 105.394 441.635 109.689 442.005C111.407 442.153 113.399 440.759 115.159 440.581C119.279 440.166 126.542 441.88 129.936 439.802C136.52 435.772 147.443 437.524 154.439 438.086C165.277 438.955 176.179 438.54 187.004 439.241C196.088 439.829 203.214 439.313 211.716 439.7C215.593 439.876 219.393 440.814 223.256 441.09C227.063 441.362 244.542 435.776 244.864 440.217C249.634 440.284 255.387 441.618 259.411 441.783C262.644 441.733 262.988 440.475 265.838 442.685L266.056 442.553C267.302 441.811 269.047 441.499 268.344 443.665C249.178 455.842 215.063 457.169 193.321 456.957C157.028 456.603 129.173 458.139 96.0029 437.559Z"/><defs><linearGradient id="gradient_1" gradientUnits="userSpaceOnUse" x1="188.24734" y1="266.37793" x2="157.31377" y2="140.35254"><stop offset="0" stop-color="#A2C1F6"/><stop offset="1" stop-color="#ACE4F4"/></linearGradient></defs><path fill="url(#gradient_1)" transform="scale(2 2)" d="M166.842 138.843C202.58 135.427 234.299 161.683 237.617 197.431C240.935 233.178 214.591 264.824 178.835 268.044C143.217 271.251 111.721 245.032 108.415 209.424C105.11 173.815 131.243 142.246 166.842 138.843Z"/><defs><linearGradient id="gradient_2" gradientUnits="userSpaceOnUse" x1="403.8869" y1="388.71249" x2="409.12338" y2="315.74139"><stop offset="0" stop-color="#648AFC"/><stop offset="1" stop-color="#87E5F9"/></linearGradient></defs><path fill="url(#gradient_2)" transform="scale(2 2)" d="M344.74 331.505C348.942 329.195 352.786 326.946 357.147 324.97C375.508 316.651 403.284 318.909 424.098 318.914L445.63 318.92C451.71 318.917 460.342 318.326 466.023 319.928C483.948 324.984 486.569 349.962 470.033 358.524C464.081 361.588 456.075 360.771 449.46 360.768L405.27 360.752C371.758 360.753 361.035 362.741 331.783 383.959C330.95 382.966 331.657 381.61 332.185 380.515C340.05 364.198 343.88 349.622 344.74 331.505Z"/><defs><linearGradient id="gradient_3" gradientUnits="userSpaceOnUse" x1="302.47241" y1="218.3656" x2="337.95834" y2="105.68304"><stop offset="0" stop-color="#C097F7"/><stop offset="1" stop-color="#98DBF5"/></linearGradient></defs><path fill="url(#gradient_3)" transform="scale(2 2)" d="M313.717 99.5775C316.968 99.2647 320.502 99.553 323.631 100.704C366.149 116.346 362.64 200.585 322.705 220.021C312.467 223.887 301.057 220.876 296.533 210.157C289.882 194.403 311.225 177.452 310.317 159.169C311.015 146.023 300.674 136.739 298.605 124.598C296.656 113.161 301.259 101.399 313.717 99.5775Z"/><path fill="#B6E5F8" transform="scale(2 2)" d="M265.871 50.829C277.721 49.7895 287.55 58.8006 287.692 70.6948C287.836 82.7003 281.369 89.1175 277.072 99.1782C273.685 107.11 276.459 116.437 268.903 123.241C263.003 128.553 258.091 129.885 250.403 129.88C235.55 129.454 225.627 115.954 228.529 101.644C231.832 82.6265 244.861 53.6043 265.871 50.829Z"/></svg>