<?xml version="1.0" encoding="utf-8" ?><svg xmlns="http://www.w3.org/2000/svg" xmlns:xlink="http://www.w3.org/1999/xlink" width="1024" height="1024" viewBox="0 0 1024 1024"><defs><linearGradient id="gradient_0" gradientUnits="userSpaceOnUse" x1="402.41116" y1="327.22153" x2="131.00011" y2="213.16933"><stop offset="0" stop-color="#9BB9F1"/><stop offset="1" stop-color="#A5D0F2"/></linearGradient></defs><path fill="url(#gradient_0)" transform="scale(2 2)" d="M80.4848 332.248C84.4415 327.808 87.2642 323.747 90.985 319.202L196.635 191.538C200.648 186.692 204.792 181.01 209.442 176.83C217.659 169.443 233.117 169.607 240.937 177.496C246.187 182.793 251.082 188.757 256.2 194.299L308.129 251.619C320.318 265.279 320.715 264 332.638 249.382L415.241 146.931C418.954 142.342 423.933 135.378 428.296 131.919C445.658 118.158 472.206 129.09 473.643 151.653C474.407 163.656 469.07 169.329 462.09 178.11L353.564 316.319C344.366 328.195 337.554 339.9 320.796 340.676C303.474 341.478 295.858 329.009 285.667 317.813C273.174 304.088 260.975 290.226 248.777 276.256L238.665 264.873C232.196 257.654 222.371 248.699 213.788 259.374L100.785 397.973C96.839 402.789 89.1963 411.493 86.0403 416.196L85.7895 416.562C80.1115 415.561 80.4679 403.243 80.4739 399.379L80.4797 383.126C80.4829 366.617 80.123 348.658 80.4848 332.248Z"/><defs><linearGradient id="gradient_1" gradientUnits="userSpaceOnUse" x1="306.54242" y1="343.23422" x2="-23.499704" y2="225.01167"><stop offset="0" stop-color="#87B5F4"/><stop offset="1" stop-color="#E4FBF5"/></linearGradient></defs><path fill="url(#gradient_1)" transform="scale(2 2)" d="M265.797 463.879L79.2495 463.882C68.1564 463.883 56.0626 465.702 46.3361 460.082C31.4382 451.474 33.1996 435.203 33.2191 420.299L33.212 78.7919C33.1266 70.9485 32.5143 63.2702 37.1111 56.3072C49.2742 37.8829 75.5797 43.1515 79.8325 62.8307C81.1847 69.0879 80.4914 78.9562 80.4837 85.6842L80.4775 319.911C80.4725 322.444 80.1033 330.483 80.4848 332.248C80.123 348.658 80.4829 366.617 80.4797 383.126L80.4739 399.379C80.4679 403.243 80.1115 415.561 85.7895 416.562C90.4478 416.153 100.443 416.57 105.724 416.574L282.214 416.562L281.944 417.017C280.795 417.254 272.835 417.117 271.225 417.111L247.427 417.07C244.353 417.073 238.316 416.906 235.402 417.178L235.362 417.981L234.669 418.413C234.777 419.385 234.623 418.925 235.287 419.786L235.552 419.856C246.613 422.856 247.47 428.93 251.714 430.25C253.392 427.953 251.828 431.17 254.025 432.525C256.949 434.329 257.324 440.514 259.814 439.361C260.791 441.439 259.765 446.873 260.08 449.4C260.478 452.582 262.428 455.598 263.298 458.123C257.772 462.762 266.443 459.893 263.085 463.08C264.133 464.068 268.841 463.716 270.263 463.589C268.832 463.689 267.196 463.738 265.797 463.879Z"/><path fill="#8DB0F7" transform="scale(2 2)" d="M282.214 416.562L440.34 416.566C446.103 416.559 453.989 416.039 459.53 416.888C478.455 419.788 486.256 443.291 472.413 456.774C463.19 465.915 450.091 463.885 438.198 463.886L265.797 463.879C267.196 463.738 268.832 463.689 270.263 463.589C268.841 463.716 264.133 464.068 263.085 463.08C266.443 459.893 257.772 462.762 263.298 458.123C262.428 455.598 260.478 452.582 260.08 449.4C259.765 446.873 260.791 441.439 259.814 439.361C257.324 440.514 256.949 434.329 254.025 432.525C251.828 431.17 253.392 427.953 251.714 430.25C247.47 428.93 246.613 422.856 235.552 419.856L235.287 419.786C234.623 418.925 234.777 419.385 234.669 418.413L235.362 417.981L235.402 417.178C238.316 416.906 244.353 417.073 247.427 417.07L271.225 417.111C272.835 417.117 280.795 417.254 281.944 417.017L282.214 416.562Z"/></svg>