<?xml version="1.0" encoding="utf-8" ?><svg xmlns="http://www.w3.org/2000/svg" xmlns:xlink="http://www.w3.org/1999/xlink" width="1024" height="1024" viewBox="0 0 1024 1024"><defs><linearGradient id="gradient_0" gradientUnits="userSpaceOnUse" x1="33.090828" y1="399.10571" x2="344.67743" y2="111.72456"><stop offset="0" stop-color="#84D2F9"/><stop offset="1" stop-color="#F4F6F8"/></linearGradient></defs><path fill="url(#gradient_0)" transform="scale(2 2)" d="M56.1766 392.97C55.8875 372.483 56.1771 351.195 56.1778 330.642L56.1648 116.071C56.1634 90.5018 62.3097 67.2244 90.3608 58.4168C99.0057 55.7025 108.118 56.333 117.069 56.3558L253.939 56.4048C269.512 56.3401 283.193 55.0696 297.376 62.8489C312.117 70.9341 328.617 97.4579 319.854 113.705C321.108 113.701 322.757 113.65 323.979 113.705C328.908 113.126 336.96 113.63 342.043 113.705C348.087 107.255 354.511 100.653 360.908 94.5433C365.318 90.3319 370.261 90.2418 374.495 94.2748L374.817 94.2121L399.978 119.705C403.438 123.191 414.96 133.838 415.89 137.756C414.796 148.51 402.884 153.346 403.07 155.213C412.568 168.693 416.042 184.475 418.381 200.486C423.415 234.941 427.156 265.363 417.621 299.036L417.764 299.361C423.799 312.902 435.506 329.284 442.917 342.831C449.987 355.755 452.672 360.063 452.759 375.326C452.86 393.184 446.863 392.328 432.89 399.469L411.983 410.034C385.534 423.132 380.225 415.111 366.435 391.854L348.022 360.373C345.186 355.442 342.694 350.419 339.652 345.587C332.356 344.215 325.765 343.125 318.729 340.631C318.945 354.917 318.733 369.831 318.734 384.159L318.731 401.028C318.724 417.328 318.605 428.637 306.33 441.327C297.15 450.819 286.392 456.014 273 456.162L114.91 456.153L114.397 456.156C91.9366 456.203 75.2489 451.488 62.6968 430.28C55.375 417.909 56.1513 406.691 56.1766 392.97Z"/><defs><linearGradient id="gradient_1" gradientUnits="userSpaceOnUse" x1="314.55649" y1="169.73698" x2="353.88843" y2="422.25397"><stop offset="0" stop-color="#93BEF6"/><stop offset="1" stop-color="#C8E5FA"/></linearGradient></defs><path fill="url(#gradient_1)" transform="scale(2 2)" d="M342.043 113.705C348.087 107.255 354.511 100.653 360.908 94.5433C365.318 90.3319 370.261 90.2418 374.495 94.2748L374.817 94.2121L399.978 119.705C403.438 123.191 414.96 133.838 415.89 137.756C414.796 148.51 402.884 153.346 403.07 155.213C412.568 168.693 416.042 184.475 418.381 200.486C423.415 234.941 427.156 265.363 417.621 299.036L417.764 299.361C423.799 312.902 435.506 329.284 442.917 342.831C449.987 355.755 452.672 360.063 452.759 375.326C452.86 393.184 446.863 392.328 432.89 399.469L411.983 410.034C385.534 423.132 380.225 415.111 366.435 391.854L348.022 360.373C345.186 355.442 342.694 350.419 339.652 345.587C332.356 344.215 325.765 343.125 318.729 340.631C281.128 324.67 281.004 292.099 276.527 289.255C275.513 288.611 255.268 279.516 254.217 279.574C250.576 282.935 249.365 283.574 244.704 285.457C243.622 283.389 244.028 277.685 245.776 276.066C232.81 270.85 226.012 265.771 221.057 252.369C214.36 238.299 226.097 218.788 239.419 212.568C240.019 212.288 239.923 212.155 240.046 211.567C240.225 207.897 240.06 202.825 240.046 199.031L240.046 170.011C240.119 159.674 240.109 151.301 245.429 141.96C259.465 117.314 294.273 113.741 319.854 113.705C321.108 113.701 322.757 113.65 323.979 113.705C328.908 113.126 336.96 113.63 342.043 113.705Z"/><defs><linearGradient id="gradient_2" gradientUnits="userSpaceOnUse" x1="290.85043" y1="139.37993" x2="380.05359" y2="196.32133"><stop offset="0" stop-color="#C1CDF6"/><stop offset="1" stop-color="#EBE7F6"/></linearGradient></defs><path fill="url(#gradient_2)" transform="scale(2 2)" d="M342.043 113.705C348.087 107.255 354.511 100.653 360.908 94.5433C365.318 90.3319 370.261 90.2418 374.495 94.2748L374.817 94.2121L399.978 119.705C403.438 123.191 414.96 133.838 415.89 137.756C414.796 148.51 402.884 153.346 403.07 155.213C399.257 159.632 395.353 163.05 391.293 167.124L343.227 215.401C337.262 221.375 325.117 237.09 315.082 233.225C295.411 225.597 278.529 208.639 255.048 209.574C253.684 209.628 246.487 210.017 245.776 209.73C244.376 210.646 241.899 212.486 240.3 212.311L240.046 211.567C240.225 207.897 240.06 202.825 240.046 199.031L240.046 170.011C240.119 159.674 240.109 151.301 245.429 141.96C259.465 117.314 294.273 113.741 319.854 113.705C321.108 113.701 322.757 113.65 323.979 113.705C328.908 113.126 336.96 113.63 342.043 113.705Z"/><path fill="#8DB0F7" transform="scale(2 2)" d="M319.854 113.705C321.108 113.701 322.757 113.65 323.979 113.705C329.725 113.929 336.207 113.683 342.043 113.705C338.192 116.998 334.202 121.199 330.562 124.826L274.164 181.652C264.751 191.13 255.72 200.77 245.776 209.73C244.376 210.646 241.899 212.486 240.3 212.311L240.046 211.567C240.225 207.897 240.06 202.825 240.046 199.031L240.046 170.011C240.119 159.674 240.109 151.301 245.429 141.96C259.465 117.314 294.273 113.741 319.854 113.705Z"/><path fill="#7C9EF7" transform="scale(2 2)" d="M245.776 276.066C246.44 276.349 250.65 277.99 250.932 278.195L250.765 278.533C250.558 278.959 250.405 279.316 250.224 279.75L250.496 280.051C252.22 280.088 252.509 278.587 254.217 279.574C250.576 282.935 249.365 283.574 244.704 285.457C243.622 283.389 244.028 277.685 245.776 276.066Z"/><defs><linearGradient id="gradient_3" gradientUnits="userSpaceOnUse" x1="171.98824" y1="213.30664" x2="195.82475" y2="153.18423"><stop offset="0" stop-color="#81D7F7"/><stop offset="1" stop-color="#C8EFF6"/></linearGradient></defs><path fill="url(#gradient_3)" transform="scale(2 2)" d="M240.046 199.031L232.906 199.141L146.994 199.044C143.066 199.047 138.352 199.235 134.54 198.675C119.583 196.478 118.416 173.346 133.627 170.428C137.762 169.751 142.966 170.006 147.264 170.005L240.046 170.011L240.046 199.031Z"/><defs><linearGradient id="gradient_4" gradientUnits="userSpaceOnUse" x1="203.74615" y1="272.78873" x2="245.10373" y2="277.49057"><stop offset="0" stop-color="#416DF8"/><stop offset="1" stop-color="#889FF9"/></linearGradient></defs><path fill="url(#gradient_4)" transform="scale(2 2)" d="M221.057 252.369C226.012 265.771 232.81 270.85 245.776 276.066C244.028 277.685 243.622 283.389 244.704 285.457C235.513 289.061 225.285 291.911 215.948 295.206C209.791 297.378 203.856 293.992 202.316 287.632C200.982 282.124 206.477 275.557 209.389 270.947L221.057 252.369Z"/><path fill="#B6E5F8" transform="scale(2 2)" d="M56.1766 392.97C57.4241 404.285 54.6544 417.202 64.0105 425.364C67.9833 428.829 67.9761 433.902 70.8291 438.36C70.2662 441.517 81.3253 448.967 83.0708 449.146L83.1796 449.731C89.3202 451.704 96.1867 453.96 102.485 455.468C104.531 455.957 113.47 455.068 114.91 456.153L114.397 456.156C91.9366 456.203 75.2489 451.488 62.6968 430.28C55.375 417.909 56.1513 406.691 56.1766 392.97Z"/><path fill="#B6E5F8" transform="scale(2 2)" d="M126.725 238.004L126.868 238.184C124.577 240.928 121.35 246.12 122.363 249.869L123.156 249.257C126.015 251.188 129.153 252.051 131.978 254.05C140.072 259.779 142.766 263.601 152.38 263.668L164.598 263.671C172.412 263.648 180.153 263.966 188.062 263.948L188.741 263.903C188.412 263.97 188.517 263.967 188.216 263.969L152.004 263.952C146.747 263.953 141.484 264.015 136.231 263.942C123.267 263.762 117.557 246.981 126.725 238.004Z"/><defs><linearGradient id="gradient_5" gradientUnits="userSpaceOnUse" x1="392.59756" y1="114.75874" x2="445.35297" y2="70.672356"><stop offset="0" stop-color="#7593F4"/><stop offset="1" stop-color="#A8CEF5"/></linearGradient></defs><path fill="url(#gradient_5)" transform="scale(2 2)" d="M374.817 94.2121C370.102 80.7991 384.634 70.8279 392.709 62.7706C411.001 43.661 452.9 60.6496 454.098 92.7141C454.703 108.91 449.681 115.309 439.47 126.278C430.584 135.825 429.817 138.62 415.89 137.756C414.96 133.838 403.438 123.191 399.978 119.705L374.817 94.2121Z"/></svg>