<?xml version="1.0" encoding="utf-8" ?><svg xmlns="http://www.w3.org/2000/svg" xmlns:xlink="http://www.w3.org/1999/xlink" width="1024" height="1024" viewBox="0 0 1024 1024"><defs><linearGradient id="gradient_0" gradientUnits="userSpaceOnUse" x1="404.01938" y1="417.86655" x2="98.366318" y2="81.191841"><stop offset="0" stop-color="#B1D4F7"/><stop offset="1" stop-color="#FFFEF7"/></linearGradient></defs><path fill="url(#gradient_0)" transform="scale(2 2)" d="M379.182 406.491C371.588 406.636 363.623 406.499 355.995 406.495L111.49 406.5C88.8682 406.517 73.8336 408.695 56.3089 390.982C40.7409 375.247 41.5441 362.548 41.5389 342.184L41.8137 160.489C41.7766 154.822 42.646 142.431 44.9885 137.081C59.1574 104.719 81.3483 105.35 110.872 105.414L405.454 105.224C414.438 105.224 424.629 104.807 433.36 106.62C450.83 110.362 465.947 125.259 469.115 142.971C470.564 151.072 470.256 158.928 470.257 167.083L470.25 300.692L470.259 341.071C470.257 361.187 471.738 376.447 456.089 392.339C441.116 407.545 427.334 406.503 407.803 406.503L379.182 406.491Z"/><path fill="#A7CAF7" transform="scale(2 2)" d="M470.25 300.692L470.259 341.071C470.257 361.187 471.738 376.447 456.089 392.339C441.116 407.545 427.334 406.503 407.803 406.503L379.182 406.491C378.753 406.108 378.134 406.303 377.638 406.411L377.419 406.462L377.203 406.065L376.298 406.101L376.284 406.493C373.726 406.499 355.04 406.714 354.129 406.279L354.263 406.501C350.988 406.498 348.458 406.399 345.192 406.151C348.013 405.938 350.947 406.013 353.783 406.028L353.652 405.808C354.144 406.092 353.888 406.028 354.412 406.03L354.283 405.808C354.736 406.073 354.516 406.031 354.915 406.03L354.786 405.805L355.29 406.029L355.163 405.801C355.682 405.793 355.604 406.032 356.317 406.029L360.801 406.026L360.696 405.775C361.107 405.787 361.197 405.881 361.568 406.053L361.466 405.796C362.077 406.248 362.561 406.088 363.496 406.123L363.404 405.856C368.197 406.068 374.216 405.934 379.138 405.976L379.158 406.456L379.515 405.977L380.013 405.979L470.25 300.692Z"/><defs><linearGradient id="gradient_1" gradientUnits="userSpaceOnUse" x1="167.14519" y1="289.19534" x2="64.502457" y2="227.22388"><stop offset="0" stop-color="#5F84F6"/><stop offset="1" stop-color="#88E3FA"/></linearGradient></defs><path fill="url(#gradient_1)" transform="scale(2 2)" d="M95.979 181.63C95.6117 169.676 92.9425 150.153 105.655 145.387C109.387 143.988 112.983 143.558 116.811 145.05C123.121 147.589 127.724 153.091 127.728 160.074L127.714 318.89C127.713 329.69 127.859 340.413 127.617 351.39C127.23 368.962 104.236 373.493 97.1563 357.638C95.2982 353.478 95.9364 345.77 95.9766 341.019L95.9736 190.724C95.9728 188.112 95.8487 184.15 95.979 181.63Z"/><path fill="#B6E5F8" transform="scale(2 2)" d="M95.979 181.63C95.6117 169.676 92.9425 150.153 105.655 145.387C109.387 143.988 112.983 143.558 116.811 145.05C116.389 146.108 115.363 146.798 115.01 147.615C112.732 152.888 102.122 167.695 98.5647 171.577C95.8846 174.533 96.6596 178.104 95.979 181.63Z"/><path fill="#96B9F7" transform="scale(2 2)" d="M398.895 143.356C406.051 143.021 414.57 148.205 415.555 155.39C416.59 162.943 416.243 172.653 416.244 180.384L416.242 341.101C416.252 354.32 417.774 364.094 402.562 367.674C386.23 368.737 384.726 356.709 384.721 344.717L384.71 173.883C384.711 161.364 382.284 145.514 398.895 143.356Z"/><defs><linearGradient id="gradient_2" gradientUnits="userSpaceOnUse" x1="308.5571" y1="282.55466" x2="203.63712" y2="229.29774"><stop offset="0" stop-color="#528EF9"/><stop offset="1" stop-color="#93E0F6"/></linearGradient></defs><path fill="url(#gradient_2)" transform="scale(2 2)" d="M254.389 144.291C268.522 143.312 271.982 153.333 271.985 165.471L271.99 337.465C271.996 349.515 274.41 365.117 258.297 367.674C241.493 369.678 240.584 354.579 240.495 342.446L240.491 174.453C240.494 160.817 237.791 147.911 254.389 144.291Z"/><path fill="#B6E5F8" transform="scale(2 2)" d="M242.752 154.793L243.455 155.094L243.531 155.526L242.752 156.631L242.577 156.623C242.279 155.826 242.473 155.821 242.752 154.793Z"/><defs><linearGradient id="gradient_3" gradientUnits="userSpaceOnUse" x1="205.95668" y1="276.46289" x2="114.54906" y2="226.09135"><stop offset="0" stop-color="#678DF9"/><stop offset="1" stop-color="#8FE1F7"/></linearGradient></defs><path fill="url(#gradient_3)" transform="scale(2 2)" d="M159.401 159.346C169.408 158.305 176.28 167.79 176.36 177.039L176.396 326.51C176.377 336.665 170.414 340.742 161.557 343.941C139.522 339.856 144.512 322.748 144.509 304.451L144.51 186.011C144.513 173.668 144.255 160.966 159.401 159.346Z"/><defs><linearGradient id="gradient_4" gradientUnits="userSpaceOnUse" x1="287.68387" y1="251.63646" x2="321.02454" y2="252.40892"><stop offset="0" stop-color="#A8D0F4"/><stop offset="1" stop-color="#5E8BFA"/></linearGradient></defs><path fill="url(#gradient_4)" transform="scale(2 2)" d="M302.374 160.31C323.539 158.099 319.772 183.819 319.777 196.744L319.777 318.002C319.775 329.059 321.297 340.951 307.229 343.941C287.138 346.425 288.976 329.496 288.973 316.62L288.97 212.133C288.969 199.424 288.785 186.696 289.227 173.999C289.512 165.813 294.863 161.634 302.374 160.31Z"/><defs><linearGradient id="gradient_5" gradientUnits="userSpaceOnUse" x1="190.27121" y1="253.18529" x2="224.67882" y2="254.84854"><stop offset="0" stop-color="#8DD1F5"/><stop offset="1" stop-color="#6882F9"/></linearGradient></defs><path fill="url(#gradient_5)" transform="scale(2 2)" d="M205.201 197.821C225.7 195.435 223.245 218.706 223.25 231.67L223.253 283.977C223.25 295.575 224.572 307.234 210.038 310.592C189.703 313.118 191.949 293.252 191.949 280.583L191.951 225.426C191.955 213.877 190.213 200.688 205.201 197.821Z"/><defs><linearGradient id="gradient_6" gradientUnits="userSpaceOnUse" x1="334.51974" y1="252.85085" x2="368.91104" y2="255.00441"><stop offset="0" stop-color="#A9D2F2"/><stop offset="1" stop-color="#6E9EF9"/></linearGradient></defs><path fill="url(#gradient_6)" transform="scale(2 2)" d="M349.351 196.307C368.31 194.447 366.987 212.302 366.992 224.684L366.993 279.566C366.989 292.363 369.962 308.446 353.809 311.686C337.855 313.828 336.645 300.375 336.655 288.391L336.66 232.049C336.661 218.777 332.844 199.455 349.351 196.307Z"/></svg>