<?xml version="1.0" encoding="utf-8" ?><svg xmlns="http://www.w3.org/2000/svg" xmlns:xlink="http://www.w3.org/1999/xlink" width="1024" height="1024" viewBox="0 0 1024 1024"><defs><linearGradient id="gradient_0" gradientUnits="userSpaceOnUse" x1="395.37347" y1="409.10419" x2="117.41171" y2="102.56314"><stop offset="0" stop-color="#688FF7"/><stop offset="1" stop-color="#B6EEF6"/></linearGradient></defs><path fill="url(#gradient_0)" transform="scale(2 2)" d="M214.257 97.5905L214.242 83.2652C214.236 73.0319 214.132 64.9078 221.841 56.948C231.784 46.6806 246.329 48.9687 259.638 49.1508C287.184 49.5276 298.201 52.1112 298.238 82.876L298.231 96.7936C309.951 101.712 324.455 107.127 335.071 114.083C347.855 104.909 355.514 88.5999 372.708 88.7679C383.748 88.8757 388.578 95.5621 395.777 102.655C406.529 113.249 423.031 125.634 422.474 141.422C422.021 154.281 406.99 166.659 397.568 175.284C402.988 188.072 409.51 202.13 415.497 214.76L431.054 214.741C441.062 214.738 448.181 214.112 456.049 221.681C466.319 231.547 462.838 253.847 462.948 267.557C463.147 292.399 453.466 297.396 430.21 297.403L415.497 297.392C410.671 304.206 402.756 327.46 398.383 336.568C408.795 348.444 426.289 359.483 422.42 377.443C421.638 381.073 419.567 385.382 416.829 388.021C413.229 394.599 387.178 418.375 381.664 419.883C370.105 427.37 355.085 415.753 347.215 408.337L336.319 398.117C326.305 404.076 311.278 409.495 300.008 412.004L298.625 430.769C298.226 435.764 297.982 441.754 296.458 446.493C289.766 467.308 265.125 462.719 247.713 462.712C221.03 462.701 216.282 455.409 214.614 429.502L213.502 412.004C209.5 410.226 202.506 408.709 197.708 407.116C189.524 404.398 184.293 401.451 176.745 398.117C170.71 401.473 162.381 411.575 157.001 416.51C143.361 428.489 129.97 420.808 119.514 410.488C111.97 403.042 104.168 395.809 96.7506 388.249C84.3666 375.626 89.151 362.388 99.528 351.494L107.985 342.592C111.166 339.255 113.88 337.186 112.04 332.276L101.8 305.669C101.209 304.105 99.5417 298.854 97.8514 298.434C82.037 294.5 63.5237 303.959 53.3291 286.123C48.0965 276.968 50.1352 247.426 50.282 236.353C50.3766 229.222 55.1229 221.874 61.1662 218.287C73.0527 211.231 96.6701 218.824 99.4753 211.94C102.907 203.519 105.661 194.952 109.814 186.842C111.238 184.046 113.288 180.523 114.037 177.529L114.123 177.177C110.725 164.601 90.7293 159.706 90.0797 140.922C89.8045 132.965 92.4503 127.374 98.0098 121.73C110.405 108.243 130.651 81.5441 151.087 91.4012C155.559 93.5585 160.604 98.8616 164.323 102.37L176.745 114.083C190.876 107.274 197.665 102.173 214.257 97.5905ZM256.874 309.132C286.166 308.481 309.373 284.188 308.685 254.897C307.998 225.607 283.677 202.43 254.387 203.153C225.149 203.876 202.021 228.145 202.707 257.384C203.393 286.624 227.634 309.781 256.874 309.132Z"/><path fill="#7394F7" transform="scale(2 2)" d="M381.664 419.883C383.056 418.2 387.217 417.822 386.803 415.549C387.36 414.755 389.175 413.013 390.088 412.797C390.381 415.557 391.957 410.671 392.905 409.832C397.184 406.043 401.23 402.029 405.682 398.428C408.028 396.623 413.93 390.225 416.292 387.989L416.829 388.021C413.229 394.599 387.178 418.375 381.664 419.883Z"/><defs><linearGradient id="gradient_1" gradientUnits="userSpaceOnUse" x1="319.38223" y1="328.3847" x2="192.51915" y2="182.85504"><stop offset="0" stop-color="#8CBAF7"/><stop offset="1" stop-color="#D3EEF6"/></linearGradient></defs><path fill="url(#gradient_1)" transform="scale(2 2)" d="M253.107 158.624C306.459 156.965 351.125 198.727 353.051 252.071C354.976 305.415 313.438 350.289 260.104 352.481C206.392 354.688 161.13 312.791 159.191 259.069C157.252 205.347 199.376 160.295 253.107 158.624ZM256.874 309.132C286.166 308.481 309.373 284.188 308.685 254.897C307.998 225.607 283.677 202.43 254.387 203.153C225.149 203.876 202.021 228.145 202.707 257.384C203.393 286.624 227.634 309.781 256.874 309.132Z"/></svg>