<?xml version="1.0" encoding="utf-8" ?><svg xmlns="http://www.w3.org/2000/svg" xmlns:xlink="http://www.w3.org/1999/xlink" width="1024" height="1024" viewBox="0 0 1024 1024"><defs><linearGradient id="gradient_0" gradientUnits="userSpaceOnUse" x1="383.72937" y1="440.52213" x2="130.00233" y2="200.48294"><stop offset="0" stop-color="#5689F4"/><stop offset="1" stop-color="#CBDAF2"/></linearGradient></defs><path fill="url(#gradient_0)" transform="scale(2 2)" d="M69.579 264.956C29.8917 217.065 50.2651 139.896 105.14 112.752C146.879 92.106 198.864 104.105 227.729 140.584C230.119 143.601 233.328 147.056 235.017 150.477C235.52 150.592 247.703 147.317 249.912 146.923C266.141 144.022 301.552 144.754 316.425 153.63C352.821 167.298 379.928 201.23 388.848 238.665C468.335 249.257 489.835 344.778 428.499 391.728C407.345 407.921 388.734 407.296 363.171 407.277L135.899 407.275C125.659 406.754 117.676 406.261 108.006 402.944C53.5202 384.256 31.8761 321.61 63.2022 273.42C65.2346 270.294 67.4964 267.978 69.4599 265.132L69.579 264.956Z"/><defs><linearGradient id="gradient_1" gradientUnits="userSpaceOnUse" x1="167.24529" y1="221.67345" x2="80.139412" y2="131.2746"><stop offset="0" stop-color="#7CC0F5"/><stop offset="1" stop-color="#C0F5F3"/></linearGradient></defs><path fill="url(#gradient_1)" transform="scale(2 2)" d="M69.579 264.956C29.8917 217.065 50.2651 139.896 105.14 112.752C146.879 92.106 198.864 104.105 227.729 140.584C230.119 143.601 233.328 147.056 235.017 150.477C234.661 150.848 227.044 153.775 225.88 154.282C194.841 167.787 171.661 193.712 160.438 225.515C155.122 240.101 143.695 233.319 128.45 234.372C107.871 235.793 82.3425 248.574 69.579 264.956Z"/><defs><linearGradient id="gradient_2" gradientUnits="userSpaceOnUse" x1="228.27618" y1="329.38452" x2="137.87601" y2="301.17896"><stop offset="0" stop-color="#9ECAF4"/><stop offset="1" stop-color="#ECFBF6"/></linearGradient></defs><path fill="url(#gradient_2)" transform="scale(2 2)" d="M185.344 295.375L165.508 295.384C158.686 295.379 150.473 296.699 145.87 290.805C141.435 285.128 143.837 277.352 149.16 273.343C152.517 270.814 160.3 271.368 164.485 271.363L198.885 271.351C204.022 271.349 208.641 271.057 213.704 271.984C217.574 273.211 219.919 275.162 221.821 278.803C227.702 290.066 209.616 305.505 201.85 313.776L182.372 334.943L201.319 334.923C205.483 334.92 210.457 334.604 214.496 335.436C226.082 337.824 224.842 357.449 213.216 359.126C209.176 359.709 204.916 359.541 200.813 359.542L165.316 359.534C159.331 359.529 153.691 360.499 148.787 356.474C137.878 345.827 149.257 336.509 156.355 328.576C164.686 319.265 178.235 305.564 185.139 295.673L185.344 295.375Z"/><defs><linearGradient id="gradient_3" gradientUnits="userSpaceOnUse" x1="325.24081" y1="269.07272" x2="234.465" y2="234.63475"><stop offset="0" stop-color="#9FCBF2"/><stop offset="1" stop-color="#E7F6F5"/></linearGradient></defs><path fill="url(#gradient_3)" transform="scale(2 2)" d="M248.344 208.2C254.862 205.9 295.71 207.305 304.857 207.224C309.783 207.181 312.973 209.596 316.425 212.755C320.544 226.876 317.685 226.855 308.095 237.692L287.77 260.634C285.84 262.802 279.211 269.945 277.845 271.984L297.591 271.965C301.736 271.964 306.474 271.677 310.509 272.476C322.478 274.845 321.956 293.43 310.271 295.525C306.525 296.196 302.345 296.055 298.516 296.054L253.732 295.945C240.419 295.785 236.44 283.629 244.843 273.828L275.835 238.324C276.798 237.214 282.552 232.115 280.094 232.007C268.603 230.506 246.055 236.801 240.866 224.512C237.964 218.499 241.982 210.226 248.344 208.2Z"/><path fill="#B6E5F8" transform="scale(2 2)" d="M240.866 224.512C237.964 218.499 241.982 210.226 248.344 208.2C246.433 209.771 244.323 211.96 242.862 214.011C239.69 218.463 241.032 220.618 240.866 224.512Z"/></svg>