<?xml version="1.0" encoding="utf-8" ?><svg xmlns="http://www.w3.org/2000/svg" xmlns:xlink="http://www.w3.org/1999/xlink" width="1024" height="1024" viewBox="0 0 1024 1024"><defs><linearGradient id="gradient_0" gradientUnits="userSpaceOnUse" x1="358.50165" y1="375.47049" x2="168.14012" y2="126.34552"><stop offset="0" stop-color="#4F7AF7"/><stop offset="1" stop-color="#86CCF7"/></linearGradient></defs><path fill="url(#gradient_0)" transform="scale(2 2)" d="M254.641 62.8167C264.546 61.6631 267.578 70.8467 271.002 78.0113L311.031 160.013C314.188 160.901 318.498 161.475 321.801 162.041L399.643 175.326C413.971 177.75 425.41 185.661 412.656 198.58L361.564 249.285C355.823 254.927 347.363 262.488 342.407 268.27C343.93 274.34 345.156 281.955 346.415 288.244L354.493 328.915C356.122 337.213 358.153 345.428 359.663 353.825C361.419 363.598 365.644 374.447 353.466 379.565C347.336 382.082 341.894 377.993 336.829 375.197C313.998 362.591 291.284 349.774 268.247 337.555C264.97 335.817 261.558 333.73 258.166 332.268L257.797 332.111C255.116 330.677 253.243 332.212 250.841 333.592C226.538 347.564 202.104 361.415 177.493 374.845C174.519 376.468 171.429 378.15 168.294 379.426C159.853 383.027 149.555 375.218 150.553 366.182C151.069 361.502 152.37 356.09 153.368 351.405C159.24 323.817 164.11 295.751 170.374 268.27C156.043 251.739 133.537 231.505 117.497 216.257L105.273 204.69C102.099 201.673 96.8204 197.195 95.1745 193.259C89.5825 179.884 101.501 177.465 110.582 175.931L189.648 162.508C193.326 161.858 196.982 161.446 200.656 160.773C209.945 140.479 220.281 119.842 230.051 99.6949L240.261 78.9197C243.869 71.6357 245.607 64.4589 254.641 62.8167Z"/><defs><linearGradient id="gradient_1" gradientUnits="userSpaceOnUse" x1="473.8555" y1="239.27481" x2="421.29718" y2="267.75696"><stop offset="0" stop-color="#E6DFEC"/><stop offset="1" stop-color="#8FB7FF"/></linearGradient></defs><path fill="url(#gradient_1)" transform="scale(2 2)" d="M430.104 237.555C436.871 237.188 462.533 236.989 467.682 238.182C485.581 242.331 483.156 267.007 465.954 269.979C457.559 270.511 434.559 270.655 428.202 269.36C410.215 265.697 411.413 239.487 430.104 237.555Z"/><defs><linearGradient id="gradient_2" gradientUnits="userSpaceOnUse" x1="33.747643" y1="248.80923" x2="95.37249" y2="258.4205"><stop offset="0" stop-color="#BEEDF4"/><stop offset="1" stop-color="#97B0FF"/></linearGradient></defs><path fill="url(#gradient_2)" transform="scale(2 2)" d="M49.1136 237.555L69.628 237.543C74.0584 237.548 80.0245 237.327 84.306 238.179C101.336 241.682 101.366 268.319 79.6161 269.979L60.2331 269.989C56.0596 269.989 49.2319 270.361 45.3959 269.351C27.7476 264.704 28.3812 239.346 49.1136 237.555Z"/><defs><linearGradient id="gradient_3" gradientUnits="userSpaceOnUse" x1="131.72444" y1="432.17325" x2="176.22034" y2="435.55359"><stop offset="0" stop-color="#CAF5F5"/><stop offset="1" stop-color="#9AB9FF"/></linearGradient></defs><path fill="url(#gradient_3)" transform="scale(2 2)" d="M159.702 404.856C167.47 402.465 175.488 408.848 177.36 416.242C179.275 423.805 176.063 428.391 172.454 434.621C166.788 444.404 159.857 460.895 148.519 463.59C132.233 465.645 125.498 449.307 134.744 435.553C141.262 425.859 148.231 405.716 159.702 404.856Z"/><defs><linearGradient id="gradient_4" gradientUnits="userSpaceOnUse" x1="239.72981" y1="414.60052" x2="272.10709" y2="415.33875"><stop offset="0" stop-color="#D6E3F4"/><stop offset="1" stop-color="#99C4FF"/></linearGradient></defs><path fill="url(#gradient_4)" transform="scale(2 2)" d="M254.641 384.086C274.158 381.764 272.317 400.78 272.45 412.765C272.593 425.654 275.216 443.335 257.797 445.971C235.143 448.204 240.116 421.24 239.58 407.934C239.117 396.451 241.501 385.922 254.641 384.086Z"/><defs><linearGradient id="gradient_5" gradientUnits="userSpaceOnUse" x1="461.88223" y1="135.73309" x2="410.31589" y2="164.98473"><stop offset="0" stop-color="#DCE7F7"/><stop offset="1" stop-color="#8DB3FF"/></linearGradient></defs><path fill="url(#gradient_5)" transform="scale(2 2)" d="M447.159 128.08C463.322 124.933 471.403 148.754 458.093 157.337C450.771 162.139 434.203 173.682 425.821 174.423C407.497 174.58 401.553 151.753 416.057 141.6C419.699 139.05 443.054 128.698 447.159 128.08Z"/><defs><linearGradient id="gradient_6" gradientUnits="userSpaceOnUse" x1="130.37289" y1="72.308395" x2="177.53189" y2="73.433372"><stop offset="0" stop-color="#C8F8F5"/><stop offset="1" stop-color="#98B2FF"/></linearGradient></defs><path fill="url(#gradient_6)" transform="scale(2 2)" d="M145.183 44.0987C149.392 43.6538 153.538 44.9889 156.816 47.6519C159.676 49.9761 174.261 74.291 176.335 78.5798C181.217 88.6807 173.885 100.638 163.05 101.853C149.221 102.776 144.639 88.7794 138.67 78.4045C136.424 74.5013 133.721 70.7599 131.745 66.6958C126.677 55.7736 133.562 45.2921 145.183 44.0987Z"/><defs><linearGradient id="gradient_7" gradientUnits="userSpaceOnUse" x1="378.34079" y1="429.62967" x2="336.36783" y2="437.3967"><stop offset="0" stop-color="#D5E1F8"/><stop offset="1" stop-color="#9EC0FE"/></linearGradient></defs><path fill="url(#gradient_7)" transform="scale(2 2)" d="M348.126 404.856C361.774 404.137 365.467 417.831 372.311 427.091C374.743 430.38 377.789 435.422 379.767 439.041C385.445 449.437 378.422 460.76 367.063 462.473C360.614 462.719 355.164 460.49 351.698 454.914C346.06 445.842 340.005 436.373 334.701 427.136C329.138 417.448 337.123 406.091 348.126 404.856Z"/><defs><linearGradient id="gradient_8" gradientUnits="userSpaceOnUse" x1="381.61237" y1="73.027298" x2="333.8573" y2="74.466087"><stop offset="0" stop-color="#DAECF5"/><stop offset="1" stop-color="#92BBFF"/></linearGradient></defs><path fill="url(#gradient_8)" transform="scale(2 2)" d="M363.95 45.8576C373.046 45.5072 379.893 50.7547 381.66 59.9234C383.397 68.9292 373.825 79.2982 369.305 86.4219C364.253 94.3845 361.993 100.385 351.764 101.853C342.969 102.401 335.397 96.9877 333.926 88.095C332.366 78.669 339.429 70.6528 344.478 63.4041C350.508 54.7482 352.605 47.4427 363.95 45.8576Z"/><defs><linearGradient id="gradient_9" gradientUnits="userSpaceOnUse" x1="455.22073" y1="343.60941" x2="416.54514" y2="367.47653"><stop offset="0" stop-color="#E1E2EF"/><stop offset="1" stop-color="#95B3FF"/></linearGradient></defs><path fill="url(#gradient_9)" transform="scale(2 2)" d="M421.25 332.111C430.086 331.476 454.118 346.281 460.213 351.386C469.167 358.886 465.753 376.917 450.593 379.264C442.94 379.321 418.843 364.419 412.811 360.12C401.108 351.779 406.493 333.625 421.25 332.111Z"/><defs><linearGradient id="gradient_10" gradientUnits="userSpaceOnUse" x1="48.417446" y1="139.55447" x2="102.40603" y2="161.87256"><stop offset="0" stop-color="#C9F1F4"/><stop offset="1" stop-color="#92AEFF"/></linearGradient></defs><path fill="url(#gradient_10)" transform="scale(2 2)" d="M62.1756 128.08C66.9559 125.778 74.8895 130.716 79.0804 132.933L92.8549 140.353C109.328 149.375 106.834 169.328 89.0578 174.423C83.4928 174.277 80.0925 173.357 75.3844 170.29C69.1623 166.243 51.7845 157.302 48.9846 150.934C44.5385 140.823 50.6501 128.668 62.1756 128.08Z"/><defs><linearGradient id="gradient_11" gradientUnits="userSpaceOnUse" x1="48.510532" y1="358.79233" x2="105.40491" y2="351.08362"><stop offset="0" stop-color="#C5F1F6"/><stop offset="1" stop-color="#9EBAFD"/></linearGradient></defs><path fill="url(#gradient_11)" transform="scale(2 2)" d="M86.7382 332.111C105.869 332.278 111.623 352.164 98.8288 361.402C92.6702 365.51 73.7414 376.243 68.0171 377.736C48.9988 379.38 42.0568 358.549 55.5761 348.684C60.5155 345.08 81.7383 333.427 86.7382 332.111Z"/></svg>