<?xml version="1.0" encoding="utf-8" ?><svg xmlns="http://www.w3.org/2000/svg" xmlns:xlink="http://www.w3.org/1999/xlink" width="1024" height="1024" viewBox="0 0 1024 1024"><defs><linearGradient id="gradient_0" gradientUnits="userSpaceOnUse" x1="292.311" y1="379.65778" x2="141.85773" y2="135.31468"><stop offset="0" stop-color="#82ACF9"/><stop offset="1" stop-color="#BDEBF6"/></linearGradient></defs><path fill="url(#gradient_0)" transform="scale(2 2)" d="M119.969 217.428C124.114 111.645 250.947 49.0245 337.898 115.532C371.9 141.539 388.49 174.435 393.418 216.564C423.34 225.052 453.982 254.266 464.524 283.1C486.621 331.778 461.422 392.082 413.233 414.549C395.386 422.869 380.274 423.492 361.14 423.476L311.794 423.472C292.58 423.472 270.269 421.217 256.419 405.84C236.514 421.931 225.346 423.598 200.948 423.474L150.318 423.475C143.642 423.489 137.65 423.787 130.892 422.949C123.343 422.013 102.256 417.01 96.1896 412.18C82.8109 406.563 67.2017 391.47 59.1485 379.796C17.2607 319.077 49.333 237.025 119.969 217.428Z"/><path fill="#85A7F7" transform="scale(2 2)" d="M96.1896 412.18L96.4193 411.944C97.4001 412.061 104.571 415.836 105.478 416.013C111.863 417.26 113.545 416.964 119.428 419.625C120.85 419.56 122.403 418.203 123.61 417.908C125.425 417.465 129.391 417.875 132.782 416.628C136.684 415.195 143.374 411.759 146.537 409.272C146.932 407.75 149.313 408.05 150.754 407.775C152.807 409.523 152.412 404.382 155.426 404.01C163.566 403.006 172.1 398.902 179.091 394.737C179.784 394.324 182.553 395.565 183.441 395.858C184.766 395.45 187.213 393.335 188.458 392.721C195.157 388.743 213.453 387.619 214.72 386.173C214.706 385.555 214.763 385.196 214.834 384.584L214.936 384.635L215.127 385.446L215.72 385.383C216.691 384.37 216.806 384.036 218.106 384.497C218.782 383.312 218.179 383.274 219.092 382.638L222.078 383.183C222.206 383.094 226.077 382.707 226.21 382.744L226.617 383.944L227.125 384.113L227.473 383.88C227.312 383.409 227.227 383.128 227.112 382.644L227.847 382.669C227.907 384.545 235.892 381.095 239.983 381.374C243.226 383.584 249.417 377.325 251.375 377.335C252.284 378.411 251.662 380.94 252.402 381.854C253.553 381.575 252.359 380.253 252.993 379.294C254.127 380.676 257.686 380.04 259.386 379.636L259.386 379.643C260.945 376.509 264.542 371.934 267.858 371.159L267.732 371.789C268.763 373.666 269.257 371.628 270.879 372.243L270.817 372.968C271.647 373.53 283.739 364.373 284.542 362.912C285.903 360.434 295.299 358.938 297.89 358.738C299.96 355.736 307.069 356.802 311.213 351.405C312.637 349.551 319.202 348.221 321.671 346.716C324.082 345.247 325.372 342.521 327.502 340.724C332.294 336.683 337.032 336.162 340.698 333.8C341.959 332.988 342.922 331.386 344.37 330.914C348.536 329.554 353.958 331.468 357.831 329.1C363.037 325.916 372.611 310.151 376.79 315.217L377.047 315.534C376.82 315.583 382.792 312.037 382.506 312.307C381.267 306.844 384.384 308.299 387.761 305.917C389.975 304.356 391.273 302.679 393.146 300.761C398.061 300.196 397.158 296.938 398.108 296.78C401.17 296.269 425.62 285.17 430.434 281.927C433.841 279.587 436.375 275.109 440.806 274.744C449.102 274.059 451.092 272.809 458.19 276.647L458.374 276.391C458.121 275.924 457.872 275.472 457.558 275.042C458.31 275.138 458.876 276.437 459.269 276.426C464.33 276.291 460.905 281.084 464.524 283.1C486.621 331.778 461.422 392.082 413.233 414.549C395.386 422.869 380.274 423.492 361.14 423.476L311.794 423.472C292.58 423.472 270.269 421.217 256.419 405.84C236.514 421.931 225.346 423.598 200.948 423.474L150.318 423.475C143.642 423.489 137.65 423.787 130.892 422.949C123.343 422.013 102.256 417.01 96.1896 412.18Z"/></svg>