<?xml version="1.0" encoding="utf-8" ?><svg xmlns="http://www.w3.org/2000/svg" xmlns:xlink="http://www.w3.org/1999/xlink" width="1024" height="1024" viewBox="0 0 1024 1024"><path fill="#A1D0EA" transform="scale(2 2)" d="M305.598 144.412L370.758 144.391C373.697 144.363 377.446 144.198 380.275 144.412C381.202 144.372 381.882 144.316 382.802 144.412L383.45 144.8C383.784 146.287 383.606 155.743 383.591 157.952C382.544 157.95 381.303 157.913 380.275 157.952C376.951 157.953 366.524 157.651 364.208 157.952L361.858 157.952C361.737 166.762 362.871 180.009 361.858 188.153C362.14 208.568 356.208 222.73 332.681 222.958L303.553 222.953C303.32 227.725 303.55 234.002 303.555 238.945L303.543 290.419C303.527 302.546 303.271 303.582 308.724 314.521C313.298 323.698 317.693 333.723 322.014 343.092C328.603 358.678 327.848 355.508 327.846 373.296L327.84 410.654C327.858 414.126 328.189 418.722 327.414 421.964C323.355 438.544 303.797 441.641 292.99 429.686C286.54 422.552 288.056 411.18 288.065 402.119L288.085 374.236C288.087 355.445 283.001 358.483 271.437 343.861C258.656 327.59 251.527 330.181 239.488 345.259C225.423 362.874 224.024 354.975 224.009 378.621L224.004 403.88C224.011 409.148 224.446 417.067 223.144 422.022C219.287 436.692 200.182 441.295 190.139 429.77C184.099 422.84 185.029 415.41 185.024 406.789L185.015 368.254C185.019 357.998 184.754 351.828 190.469 342.308C191.436 339.507 193.625 334.969 194.871 332.205L202.461 315.221C209.045 300.335 207.573 294.591 207.576 278.204L207.582 238.585C207.583 235.125 207.162 227.638 207.519 224.919L207.575 224.512L189.422 224.52C178.75 224.522 167.752 225.315 159.378 217.528C146.413 205.987 151.766 178.907 151.023 162.431C152.237 161.99 157.356 159.764 157.933 159.077C157.149 158.405 156.445 159.122 155.32 158.373L183.559 158.373C182.451 158.632 181.181 158.856 180.242 159.085L180.228 159.372C181.906 159.451 183.931 159.747 183.946 161.906C184.015 171.7 184.851 182.342 184.28 192.052C188.44 191.756 193.417 192.033 197.705 192.044L292.574 192.052C303.711 192.052 315.694 192.293 326.746 192.052L326.749 170.121C326.757 166.068 326.916 161.991 326.746 157.952C320.053 157.949 309.982 158.314 303.553 157.952C301.459 157.872 298.936 157.946 296.81 157.952C300.111 152.874 302.776 150.078 305.598 144.412Z"/><path fill="#A1D0EA" transform="scale(2 2)" d="M305.598 144.412L370.758 144.391C373.697 144.363 377.446 144.198 380.275 144.412C381.202 144.372 381.882 144.316 382.802 144.412L383.45 144.8C383.784 146.287 383.606 155.743 383.591 157.952C382.544 157.95 381.303 157.913 380.275 157.952C376.951 157.953 366.524 157.651 364.208 157.952L361.858 157.952C361.737 166.762 362.871 180.009 361.858 188.153C360.955 187.175 361.428 163.676 361.277 160.219C361.118 156.551 354.126 158.367 350.005 158.371L327.839 158.373C327.297 162.319 327.836 191.373 326.841 192.306C324.555 192.802 320.185 192.642 317.661 192.639L252.124 192.616C246.09 192.615 226.802 192.173 219.595 193.163C218.299 193.341 205.922 211.61 203.807 215.734C202.323 218.628 202.917 221.262 200.129 223.374C201.421 223.418 205.448 224.364 207.575 224.512L207.585 278.873C207.586 283.713 208.217 301.391 207.08 305.06C206.14 308.093 192.274 341.226 190.469 342.308C191.436 339.507 193.625 334.969 194.871 332.205L202.461 315.221C209.045 300.335 207.573 294.591 207.576 278.204L207.582 238.585C207.583 235.125 207.162 227.638 207.519 224.919L207.575 224.512L189.422 224.52C178.75 224.522 167.752 225.315 159.378 217.528C146.413 205.987 151.766 178.907 151.023 162.431C152.237 161.99 157.356 159.764 157.933 159.077C157.149 158.405 156.445 159.122 155.32 158.373L183.559 158.373C182.451 158.632 181.181 158.856 180.242 159.085L180.228 159.372C181.906 159.451 183.931 159.747 183.946 161.906C184.015 171.7 184.851 182.342 184.28 192.052C188.44 191.756 193.417 192.033 197.705 192.044L292.574 192.052C303.711 192.052 315.694 192.293 326.746 192.052L326.749 170.121C326.757 166.068 326.916 161.991 326.746 157.952C320.053 157.949 309.982 158.314 303.553 157.952C301.459 157.872 298.936 157.946 296.81 157.952C300.111 152.874 302.776 150.078 305.598 144.412Z"/><path fill="#A1D0EA" transform="scale(2 2)" d="M305.598 144.412L370.758 144.391C373.697 144.363 377.446 144.198 380.275 144.412C381.202 144.372 381.882 144.316 382.802 144.412L383.45 144.8C383.784 146.287 383.606 155.743 383.591 157.952C382.544 157.95 381.303 157.913 380.275 157.952C376.951 157.953 366.524 157.651 364.208 157.952L361.858 157.952L320.542 157.952C316.23 157.964 307.447 157.615 303.553 157.952C301.459 157.872 298.936 157.946 296.81 157.952C300.111 152.874 302.776 150.078 305.598 144.412Z"/><path fill="#A1D0EA" transform="scale(2 2)" d="M380.275 144.412C381.202 144.372 381.882 144.316 382.802 144.412L383.45 144.8C383.784 146.287 383.606 155.743 383.591 157.952C382.544 157.95 381.303 157.913 380.275 157.952L380.569 157.56C378.088 155.533 377.807 148.291 377.563 145.044C374.014 144.347 379.05 144.536 380.275 144.412Z"/><path fill="#A1D0EA" transform="scale(2 2)" d="M250.55 73.8407C277.826 71.7179 301.636 92.1611 303.665 119.445C305.693 146.728 285.168 170.468 257.877 172.402C230.72 174.326 207.122 153.923 205.103 126.772C203.085 99.6219 223.406 75.9532 250.55 73.8407Z"/><path fill="#A1D0EA" transform="scale(2 2)" d="M382.802 144.412L383.383 144.221C383.779 143.156 383.59 136.27 383.589 134.618L383.573 104.733C383.571 99.4725 383.492 94.1721 383.675 88.9203C384.335 69.9642 415.429 67.4823 415.875 91.8932C416.024 100.065 415.962 108.298 415.963 116.472L415.964 197.001C415.965 201.509 416.818 210.61 415.418 214.327C410.066 228.533 390.537 228.107 384.763 214.348C382.758 209.483 383.605 198.244 383.606 192.643L383.591 157.952C377.222 157.967 370.552 158.078 364.208 157.952C366.524 157.651 376.951 157.953 380.275 157.952C381.303 157.913 382.544 157.95 383.591 157.952C383.606 155.743 383.784 146.287 383.45 144.8L382.802 144.412Z"/><path fill="#A1D0EA" transform="scale(2 2)" d="M128.56 158.373L128.563 193.385C128.57 201.701 130.341 212.22 124.651 218.977C115.178 230.229 96.8822 223.252 96.8713 208.751L97.0362 104.317C97.0369 98.9054 96.6269 92.5854 97.2811 87.1211C99.3299 70.0062 123.809 70.4224 127.87 85.8815C129.148 90.7446 128.568 101.323 128.569 106.825L128.56 141.703C128.375 147.099 128.577 152.93 128.56 158.373Z"/><path fill="#A1D0EA" transform="scale(2 2)" d="M437.799 100.622C455.682 99.9506 455.734 116.85 455.747 129.784L455.756 174.897C455.75 186.643 455.889 196.628 440.966 199.746C420.892 200.092 422.351 184.319 422.347 169.448L422.338 125.032C422.274 113.081 422.927 101.813 437.799 100.622Z"/><path fill="#A1D0EA" transform="scale(2 2)" d="M72.8365 100.622C88.7809 99.9593 90.4775 113.209 90.4892 125.849L90.4868 181.951C90.5446 192.158 84.4211 197.593 74.9637 199.746C56.9802 198.86 57.1589 186.366 57.1499 171.872L57.1483 127.521C57.15 115.103 56.3457 102.247 72.8365 100.622Z"/><path fill="#A1D0EA" transform="scale(2 2)" d="M128.56 141.703C128.605 142.51 128.571 143.759 128.946 144.415C134.339 144.681 142.411 144.412 147.996 144.41L185.542 144.404C191.535 144.404 198.272 144.253 204.22 144.412C207.566 148.538 210.48 153.795 213.28 158.373L194.044 158.381C190.729 158.381 186.79 158.526 183.559 158.373L155.32 158.373L128.56 158.373C128.577 152.93 128.375 147.099 128.56 141.703Z"/></svg>