<?xml version="1.0" encoding="utf-8" ?><svg xmlns="http://www.w3.org/2000/svg" xmlns:xlink="http://www.w3.org/1999/xlink" width="1024" height="1024" viewBox="0 0 1024 1024"><path fill="#EBF2FA" transform="scale(2 2)" d="M104.051 196.49C104.148 178.827 102.141 164.147 116.062 150.486C131.415 135.287 157.2 133.92 172.678 149.79C193.739 171.384 180.548 216.777 184.746 222.207L186.134 222.499L184.984 222.597C184.414 223.389 184.626 234.837 184.625 236.655L184.631 279.794C184.637 282.572 184.851 290.083 184.628 292.449L184.601 292.75C184.377 295.524 184.569 299.769 184.601 302.676L184.654 321.658C184.667 337.416 184.434 349.902 171.439 361.514C155.467 375.784 128.23 374.296 114.124 357.854C102.117 343.858 104.019 332.247 104.051 315.234C89.6875 315.274 77.2988 314.402 66.8523 302.711C53.358 287.609 56.1158 271.8 55.7933 252.948C55.5282 237.452 54.6342 220.256 67.4203 208.809C76.3726 197.34 90.7457 196.463 104.051 196.49Z"/><defs><linearGradient id="gradient_0" gradientUnits="userSpaceOnUse" x1="83.026489" y1="315.33743" x2="78.535294" y2="206.87848"><stop offset="0" stop-color="#275D99"/><stop offset="1" stop-color="#4693CC"/></linearGradient></defs><path fill="url(#gradient_0)" transform="scale(2 2)" d="M67.4203 208.809C76.3726 197.34 90.7457 196.463 104.051 196.49L104.051 210.568L104.052 280.261C104.053 291.742 104.248 303.794 104.051 315.234C89.6875 315.274 77.2988 314.402 66.8523 302.711C53.358 287.609 56.1158 271.8 55.7933 252.948C55.5282 237.452 54.6342 220.256 67.4203 208.809Z"/><path fill="#427AA1" transform="scale(2 2)" d="M67.4203 208.809C76.3726 197.34 90.7457 196.463 104.051 196.49L104.051 210.568C100.892 203.327 94.9905 208.135 88.8342 207.43C83.1915 206.784 80.4157 208.974 75.3298 210.435C73.093 208.26 71.0575 213.025 68.6664 212.822L68.3834 211.912L66.0902 213.187C64.1798 212.536 66.8907 210.181 67.5514 209.352L67.4203 208.809Z"/><path fill="#EBF2FA" transform="scale(2 2)" d="M328.135 222.499C328.227 222.306 328.104 212.732 328.111 211.642L328.124 188.187C328.12 183.363 327.886 176.873 328.506 172.222C333.544 135.616 382.305 125.642 401.186 156.994C408.056 168.403 405.569 181.527 406.141 194.066C406.542 202.862 407.539 214.741 407.221 223.367C407.527 227.539 406.413 234.943 407.284 238.86L407.281 210.371C407.279 205.775 407.129 200.547 407.284 196.018C428.801 195.992 448.191 201.818 454.309 226.026C456.26 233.744 455.638 244.708 455.628 252.886L455.649 274.126C455.413 302.903 434.577 316.641 407.284 314.742L406.973 314.723C405.72 316.8 406.377 330.58 406.369 333.813C406.255 380.608 339.532 386.79 329.267 342.315C327.559 334.916 328.111 326.095 328.123 318.46L328.135 292.449C328.277 291.033 328.163 287.618 328.155 286.086L328.123 233.74C328.127 232.309 328.497 223.027 328.135 222.499Z"/><defs><linearGradient id="gradient_1" gradientUnits="userSpaceOnUse" x1="433.82599" y1="313.07095" x2="425.90982" y2="195.26294"><stop offset="0" stop-color="#509AB5"/><stop offset="1" stop-color="#70D1E4"/></linearGradient></defs><path fill="url(#gradient_1)" transform="scale(2 2)" d="M407.284 196.018C428.801 195.992 448.191 201.818 454.309 226.026C456.26 233.744 455.638 244.708 455.628 252.886L455.649 274.126C455.413 302.903 434.577 316.641 407.284 314.742C407.53 313.627 407.306 309.306 407.296 307.865L407.282 256.091C407.284 251.68 407.574 242.901 407.284 238.86L407.281 210.371C407.279 205.775 407.129 200.547 407.284 196.018Z"/><defs><linearGradient id="gradient_2" gradientUnits="userSpaceOnUse" x1="219.8434" y1="313.95871" x2="292.61591" y2="200.60466"><stop offset="0" stop-color="#3D7FB6"/><stop offset="1" stop-color="#59B2D7"/></linearGradient></defs><path fill="url(#gradient_2)" transform="scale(2 2)" d="M328.135 222.499C328.497 223.027 328.127 232.309 328.123 233.74L328.155 286.086C328.163 287.618 328.277 291.033 328.135 292.449L184.628 292.449C184.851 290.083 184.637 282.572 184.631 279.794L184.625 236.655C184.626 234.837 184.414 223.389 184.984 222.597L186.134 222.499C195.653 222.7 205.836 222.502 215.425 222.501L310.089 222.506C315.083 222.508 323.363 222.792 328.135 222.499Z"/></svg>