<?xml version="1.0" encoding="utf-8" ?><svg xmlns="http://www.w3.org/2000/svg" xmlns:xlink="http://www.w3.org/1999/xlink" width="1024" height="1024" viewBox="0 0 1024 1024"><path fill="#3A87D1" transform="scale(2 2)" d="M354.069 187.274C341.782 186.141 339.914 192.005 330.9 198.228C321.751 204.543 305.051 204.137 296.002 197.754C288.956 192.783 282.429 184.926 276.044 178.949C268.202 171.337 266.469 158.952 268.956 148.695C271.844 136.791 282.986 129.904 290.63 121.225C306.869 102.786 321.716 90.5786 348.658 97.7644C363.479 101.717 370.735 113.967 378.808 125.63C381.738 129.863 387.066 134.689 390.568 139.062C400.906 151.973 410.539 165.66 418.773 180.018C439.336 215.362 454.281 252.876 461.831 293.201C463.942 304.475 467.101 310.41 463.988 322.374C459.951 337.895 449.204 348.151 435.742 356.056C409.34 372.712 379.625 386.605 349.369 394.676C305.294 406.435 246.613 404.442 206.742 380.016C202.937 378.183 199.552 375.466 196.342 372.758C188.718 380.647 184.206 386.067 175.281 393.655C142.152 421.822 93.0908 414.714 66.0835 381.428C32.6247 340.192 46.7193 277.704 96.3051 257.124C127.512 244.172 164.463 252.04 186.407 278.014C190.119 282.395 192.858 287.096 196.342 291.561C225.707 276.516 247.815 267.231 282.63 268.439C286.958 268.59 294.927 268.803 298.933 269.645C317.68 270.85 347.619 283.646 362.507 293.76C366.71 290.432 369.727 288.221 372.165 283.364C357.292 264.815 354.357 249.531 349.992 227.666C350.476 220.349 349.483 213.029 350.362 205.445C351.149 198.656 352.679 193.782 354.069 187.274Z"/></svg>