<?xml version="1.0" encoding="utf-8" ?><svg xmlns="http://www.w3.org/2000/svg" xmlns:xlink="http://www.w3.org/1999/xlink" width="1024" height="1024" viewBox="0 0 1024 1024"><defs><linearGradient id="gradient_0" gradientUnits="userSpaceOnUse" x1="353.06937" y1="423.4151" x2="141.7542" y2="138.71625"><stop offset="0" stop-color="#7090F5"/><stop offset="1" stop-color="#B1DFEC"/></linearGradient></defs><path fill="url(#gradient_0)" transform="scale(2 2)" d="M191.481 113.638C192.306 110.726 225.894 75.2489 234.179 67.6123C249.287 53.6877 253.855 43.0933 271.312 61.2153C318.125 106.956 360.159 154.451 390.18 213.401C400.004 232.692 410.147 256.962 413.631 278.358C421.131 324.429 401.037 377.31 368.884 409.99C313.017 466.773 224.056 472.613 161.053 424.491C122.443 395 95.7746 345.824 95.5732 297.058C95.3503 243.064 147.193 166.295 183.066 123.266C184.694 121.313 189.529 114.451 191.481 113.638Z"/><path fill="#B6E5F8" transform="scale(2 2)" d="M191.481 113.638C192.306 110.726 225.894 75.2489 234.179 67.6123C249.287 53.6877 253.855 43.0933 271.312 61.2153L270.95 61.5074C269.805 60.5962 267.821 58.4569 266.647 57.3125C266.533 57.7198 268.283 59.4447 264.511 57.8598L263.928 57.9671C263.884 62.2327 263.947 58.4061 261.605 60.9001L261.545 61.3226C260.85 66.0136 255.845 64.6522 252.806 66.4269C252.829 66.4137 252.413 68.4059 252.073 68.891C251.963 67.9867 251.915 67.683 251.667 66.812L251.392 66.8286C249.599 68.9923 237.144 75.6092 234.022 77.0995C227.995 79.9762 228.776 70.829 220.73 82.2447C221.34 85.168 216.611 83.4979 217.763 87.3813C217.108 89.0047 213.314 90.7127 211.63 91.9491C207.609 94.9007 205.432 103.194 200.858 103.771C198.704 105.679 192.809 113.209 191.481 113.638Z"/><path fill="#B0D3F8" transform="scale(2 2)" d="M221.129 175.985L221.239 176.073C221.823 178.786 222.829 177.147 220.015 179.52C219.514 181.3 221.991 184.334 219.101 184.486L218.744 184.503C218.173 185.448 218.674 187.713 218.213 188.121C216.443 189.689 213.778 190.098 215 194.726L215.74 195.072L215.779 195.449L215.031 195.591C213.25 197.079 214.465 199.696 213.264 201.902C212.804 202.748 202.86 228.122 202.761 229.262C202.852 229.463 197.628 240.2 197.449 242.862L197.433 243.147C196.107 243.91 196.502 245.534 194.667 245.586C194.274 248.034 195.388 248.824 192.936 250.209C192.838 251.077 192.719 252.539 192.501 253.334L191.724 253.424C191.136 254.325 192.266 255.299 191.477 256.332C191.554 256.324 190.619 256.411 190.703 256.439C189.877 256.638 190.621 260.338 190.295 260.887C189.322 262.525 188.07 263.545 188.809 265.445C188.37 266.622 187.061 266.832 186.641 267.488C186.223 268.142 187.125 270.77 186.863 271.745C186.876 272.423 184.75 273.056 184.841 273.733C185.368 277.651 184.761 277.782 182.349 279.583C182.301 279.619 183.299 283.435 182.792 283.703C179.894 285.236 182.347 287.051 181.79 289.259C181.783 289.287 180.211 290.48 180.211 290.466C180.221 293.47 181.436 296.521 181.718 299.545C181.758 299.992 179.868 301.616 179.876 301.67C180.075 302.937 181.431 305.69 180.908 306.733C177.164 309.029 182.366 313.435 183.12 317.271C183.3 318.184 182.174 318.309 182.259 319.314C182.388 320.841 183.253 322.298 183.355 323.861C183.552 326.885 181.856 324.903 183.001 330.817C183.406 332.914 183.215 335.16 183.712 337.234C185.073 342.911 190.02 365.401 195.573 368.861C201.686 372.671 216.813 374.165 224.339 374.278L224.338 374.487C221.498 374.35 218.587 374.459 215.758 374.25C193.84 370.565 178.088 364.103 163.923 346.077C135.784 310.269 153.073 265.925 174.117 231.796C185.265 213.718 204.107 189.413 221.129 175.985Z"/></svg>