<?xml version="1.0" encoding="utf-8" ?><svg xmlns="http://www.w3.org/2000/svg" xmlns:xlink="http://www.w3.org/1999/xlink" width="1024" height="1024" viewBox="0 0 1024 1024"><defs><linearGradient id="gradient_0" gradientUnits="userSpaceOnUse" x1="329.17917" y1="450.10635" x2="73.44075" y2="57.542721"><stop offset="0" stop-color="#65C4FB"/><stop offset="1" stop-color="#FFFDF3"/></linearGradient></defs><path fill="url(#gradient_0)" transform="scale(2 2)" d="M42.3022 370.668C42.0139 361.052 42.3038 350.047 42.3052 340.346L42.089 105.804C42.037 81.0811 60.9406 59.5345 85.0029 54.801C93.2673 53.1753 103.912 53.7223 112.493 53.7225L296.064 53.7196C309.522 53.7265 320.456 54.0507 332.474 61.0587C357.015 75.3685 361.538 93.8207 361.503 119.464L361.498 207.942C365.827 204.62 374.73 195.169 379.039 190.851L395.559 174.421C412.411 157.827 428.391 149.223 447.705 168.7L456.774 177.869C465.046 186.138 470.536 191.972 470.504 204.612C470.46 221.763 450.83 237.391 438.66 249.258C424.468 262.949 409.903 278.226 396.001 292.358L361.498 326.97C361.695 329.84 361.529 333.363 361.513 336.316L361.498 408.061C360.651 410.511 360.016 413.57 359.247 416.103C351.748 440.822 331.123 452.942 306.561 453.038L112.528 453.032C104.11 453.045 92.8218 453.708 84.7487 452.146C62.8957 447.92 44.8014 428.357 42.5916 406.148C42.0957 401.164 42.2848 395.928 42.2857 390.941L42.3022 370.668Z"/><defs><linearGradient id="gradient_1" gradientUnits="userSpaceOnUse" x1="405.63504" y1="214.07494" x2="260.68475" y2="385.68509"><stop offset="0" stop-color="#6E91F6"/><stop offset="1" stop-color="#D1D2F7"/></linearGradient></defs><path fill="url(#gradient_1)" transform="scale(2 2)" d="M379.039 190.851L395.559 174.421C412.411 157.827 428.391 149.223 447.705 168.7L456.774 177.869C465.046 186.138 470.536 191.972 470.504 204.612C470.46 221.763 450.83 237.391 438.66 249.258C424.468 262.949 409.903 278.226 396.001 292.358L361.498 326.97C350.823 334.976 343.105 348.588 330.487 356.214C317.01 364.358 301.122 368.751 286.295 374.016L271.454 379.346C264.504 381.854 256.792 386.432 252.037 377.945C251.496 365.819 260.155 338.845 262.573 325.476C266.183 305.523 268.4 302.306 282.742 287.774L354.09 215.864C356.503 213.481 359.605 210.68 361.498 207.942C365.827 204.62 374.73 195.169 379.039 190.851Z"/><path fill="#7394F7" transform="scale(2 2)" d="M379.039 190.851L395.559 174.421C412.411 157.827 428.391 149.223 447.705 168.7L456.774 177.869C465.046 186.138 470.536 191.972 470.504 204.612C470.46 221.763 450.83 237.391 438.66 249.258C435.332 246.631 431.83 243.059 428.771 240.05L379.039 190.851Z"/><path fill="white" transform="scale(2 2)" d="M262.152 146.222L265.191 146.15C272.948 145.999 279.486 145.939 285.271 151.663C292.925 159.459 292.96 171.782 285.129 179.481C277.448 187.032 268.722 185.517 258.683 185.519L136.938 185.518C128.711 185.489 120.484 186.024 114.183 179.638C103.458 168.77 109.043 149.187 124.465 146.751C129.867 145.898 136.215 146.22 141.755 146.219L262.152 146.222Z"/><path fill="white" transform="scale(2 2)" d="M145.808 234.459C146.22 234.435 146.71 234.4 147.121 234.403L258.367 234.456C267.294 234.457 277.603 232.829 284.56 239.595C291.69 246.527 291.894 258.303 284.72 265.322C278.462 271.445 272.239 271.067 264.037 271.069L252.037 271.054L136.874 271.058C128.801 271.057 119.209 272.572 113.02 266.254C105.6 258.679 104.977 247.143 112.757 239.569C118.994 233.496 125.157 234.378 133.124 234.435L145.808 234.459Z"/><path fill="white" transform="scale(2 2)" d="M124.822 321.717C126.322 321.528 132.797 321.688 134.657 321.694L190.099 321.713C196.747 321.712 204.242 321.479 210.705 322.125C229.253 324.678 233.708 355.381 208.309 360.701C202.191 360.49 194.703 360.695 188.494 360.697L148.651 360.706C141.626 360.707 131.328 361.258 124.576 360.36C101.863 357.341 100.906 325.254 124.822 321.717Z"/></svg>