<?xml version="1.0" encoding="utf-8" ?><svg xmlns="http://www.w3.org/2000/svg" xmlns:xlink="http://www.w3.org/1999/xlink" width="1024" height="1024" viewBox="0 0 1024 1024"><defs><linearGradient id="gradient_0" gradientUnits="userSpaceOnUse" x1="413.08646" y1="390.58768" x2="132.84891" y2="150.74043"><stop offset="0" stop-color="#6785F5"/><stop offset="1" stop-color="#BADFF6"/></linearGradient></defs><path fill="url(#gradient_0)" transform="scale(2 2)" d="M181.395 144.278L386.418 144.278C395.075 144.279 407.265 143.76 415.296 145.292C437.186 149.467 455.916 166.753 461.661 188.347C463.934 196.89 463.699 209.556 463.704 218.528L463.697 311.689C463.468 339.355 445.023 361.665 417.782 366.27C413.396 367.012 407.168 366.864 402.6 366.868L105.679 366.829C89.1037 367.071 75.3741 360.467 63.9133 348.732C47.6934 332.123 48.3912 310.685 48.7373 289.242C48.8959 279.419 48.4606 269.27 48.7477 259.413C48.0544 248.656 49.0291 236.002 48.7422 225.343C48.4564 200.423 47.4431 180.067 66.828 161.276C87.4859 141.25 107.454 144.281 133.587 144.278L181.395 144.278Z"/><path fill="#B6E5F8" transform="scale(2 2)" d="M48.7477 259.413C48.0544 248.656 49.0291 236.002 48.7422 225.343C48.4564 200.423 47.4431 180.067 66.828 161.276C87.4859 141.25 107.454 144.281 133.587 144.278L181.395 144.278C175.018 145.899 149.591 142.515 145.66 144.815L146.859 144.861L146.943 145.227C144.726 144.71 132.81 153.018 131.758 154.547C128.021 159.976 115.461 176.74 109.827 180.081C109.151 183.37 105.708 184.933 102.984 187C96.5877 191.852 96.4759 193.81 92.9727 200.385C90.5979 204.842 87.4793 204.461 85.4622 211.251C85.918 211.589 87.1545 211.124 88.2873 211.507C84.4757 212.315 82.6823 213.431 81.4916 217.388L80.928 217.01C80.8317 217.041 77.4933 221.101 77.1596 221.567C71.9811 222.352 67.1551 238.499 64.6685 241.057L64.2796 240.866C63.3007 241.993 62.8027 242.121 61.4778 242.657C59.5531 246.699 57.9542 250.434 55.6562 254.363C55.2173 255.113 55.9026 257.02 55.1308 258.061L53.8738 258.552C53.2023 261.876 50.6558 258.322 50.8888 261.733C49.297 262.641 49.5122 260.114 48.7477 259.413Z"/><defs><linearGradient id="gradient_1" gradientUnits="userSpaceOnUse" x1="128.75052" y1="290.19052" x2="122.65491" y2="209.18002"><stop offset="0" stop-color="#C2E2F2"/><stop offset="1" stop-color="white"/></linearGradient></defs><path fill="url(#gradient_1)" transform="scale(2 2)" d="M106.675 254.777C108.119 250.571 109.165 245.779 110.202 241.426L114.031 225.855C114.95 222.194 115.679 218.671 117.111 215.202C119.959 208.025 130.302 209.238 132.839 219.107C135.551 229.656 137.742 244.392 141.536 254.057L141.568 253.713C141.848 250.869 143.052 246.438 143.768 243.586L147.958 227.458C149.508 221.641 150.618 210.693 158.723 211.34C172.686 212.455 160.18 240.825 157.913 250.004L152.544 271.223C151.413 275.747 150.504 280.446 148.827 284.824C146.502 290.673 138.084 291.292 134.805 285.957C130.387 278.768 127.339 255.55 124.044 245.042C120.819 254.887 117.858 277.757 113.142 285.73C109.678 291.234 100.278 291.066 97.7479 284.497C94.0103 274.795 80.7807 222.727 81.4916 217.388C82.6823 213.431 84.4757 212.315 88.2873 211.507C98.5251 212.407 97.9233 220.987 100.176 229.642L106.675 254.777Z"/><defs><linearGradient id="gradient_2" gradientUnits="userSpaceOnUse" x1="359.04623" y1="293.4993" x2="342.50668" y2="228.31187"><stop offset="0" stop-color="#9CCDF4"/><stop offset="1" stop-color="#DCF3FA"/></linearGradient></defs><path fill="url(#gradient_2)" transform="scale(2 2)" d="M340.816 231.814C345.993 231.432 350.94 232.937 353.642 237.677C360.407 229.741 374.565 229.201 379.964 239.038C384.254 246.855 382.467 273.367 382.689 283.139C382.759 286.25 381.407 287.728 378.885 289.152C369.103 289.796 370.443 284.025 370.463 276.651L370.513 258.822C370.518 256.702 370.995 249.266 369.572 247.68C366.925 244.73 361.974 244.356 359.239 247.523C357.323 249.743 358.221 256.234 358.22 259.171L358.221 281.969C358.286 289.117 345.95 297.168 345.958 277.294L345.997 260.779C346.009 256.115 347.452 246.091 340.711 245.48C329.819 244.492 333.726 273.884 333.61 281.71C333.975 289.993 321.465 297.107 321.44 276.889L321.437 248.061C321.441 244.197 320.284 235.855 323.783 233.301C327.505 230.585 330.649 231.806 333.103 235.168L333.312 235.459L333.862 235.29C335.591 232.967 338.036 232.28 340.816 231.814Z"/><defs><linearGradient id="gradient_3" gradientUnits="userSpaceOnUse" x1="294.92993" y1="288.54031" x2="294.05426" y2="232.7021"><stop offset="0" stop-color="#9CCDF4"/><stop offset="1" stop-color="#D0EAF7"/></linearGradient></defs><path fill="url(#gradient_3)" transform="scale(2 2)" d="M293.117 232.351C312.552 232.211 312.826 246.054 313.042 260.649C313.244 274.341 312.32 287.494 296.123 289.152C281.962 290.104 275.379 279.509 276.227 266.67C277.119 253.15 272.087 234.071 293.117 232.351Z"/><path fill="#85A7F7" transform="scale(2 2)" d="M293.117 245.042C302.007 244.489 299.937 256.893 299.762 263.305C299.622 268.426 300.832 274.039 296.123 277.475C293.399 277.111 290.239 275.907 289.233 273.082C288.259 270.346 288.279 249.61 289.604 247.231C290.278 246.021 291.884 245.445 293.117 245.042Z"/><path fill="#B6E5F8" transform="scale(2 2)" d="M185.828 232.351L186.21 232.332C198.883 231.76 203.991 239.745 204.494 251.431C205.144 266.541 191.137 265.762 179.942 265.724C181.341 289.483 207.618 264.219 203.157 281.969C196.634 295.408 167.94 292.019 166.181 266.301C165.146 251.164 167.458 233.894 185.828 232.351Z"/><path fill="#9DC0F7" transform="scale(2 2)" d="M185.828 245.042C191.4 244.207 198.143 254.76 187.063 254.777C184.332 254.927 182.638 254.898 179.942 254.777C180.029 250.122 180.825 246.315 185.828 245.042Z"/><defs><linearGradient id="gradient_4" gradientUnits="userSpaceOnUse" x1="428.90207" y1="280.32327" x2="392.35172" y2="240.05795"><stop offset="0" stop-color="#ADCDF4"/><stop offset="1" stop-color="#CAF4FA"/></linearGradient></defs><path fill="url(#gradient_4)" transform="scale(2 2)" d="M409.375 230.352C429.404 228.176 440.437 265.113 404.992 267.013C405.824 279.736 413.296 280.043 423.544 273.841C425.779 275.894 426.313 276.944 427.059 279.74C427.191 289.859 390.27 302.782 391.244 258.829C391.553 244.853 391.911 231.891 409.375 230.352Z"/><path fill="#85A7F7" transform="scale(2 2)" d="M409.375 243.048C417.763 243.659 416.883 254.293 410.519 254.777C408.436 255.71 407.223 256.095 404.992 256.328C404.942 252.115 404.19 244.229 409.375 243.048Z"/><defs><linearGradient id="gradient_5" gradientUnits="userSpaceOnUse" x1="262.85403" y1="286.15991" x2="240.26811" y2="235.78532"><stop offset="0" stop-color="#AED8F5"/><stop offset="1" stop-color="#D9EDF8"/></linearGradient></defs><path fill="url(#gradient_5)" transform="scale(2 2)" d="M248.909 232.351C273.902 232.428 273.072 257.038 262.662 257.377C254.956 257.627 259.716 243.399 251.065 244.844C243.494 246.6 242.585 272.243 249.829 277.475C260.408 278.029 253.179 269.23 261.34 267.013C278.832 263.799 264.85 301.516 241.526 287.191C227.491 277.728 226.729 236.732 248.909 232.351Z"/><path fill="#B6E5F8" transform="scale(2 2)" d="M216.95 211.507C219.394 211.438 224.326 212.498 224.589 215.548C225.397 224.877 225.029 234.666 225.03 244.072L225.025 268.475C225.021 275.713 227.618 287.364 219.544 289.152C208.282 289.716 211.896 276.108 211.901 267.037L211.9 227.967C211.871 222.507 210.001 213.183 216.95 211.507Z"/></svg>